<svg width="296" height="102" viewBox="0 0 296 102" fill="none" xmlns="http://www.w3.org/2000/svg">
<path d="M206.339 64.2299L206.327 64.2143L206.307 64.2183L205.24 64.1188C204.529 64.0524 204.024 64.1539 203.726 64.4234L202.832 65.2318C202.534 65.5012 202.212 65.6545 201.867 65.6916L200.832 65.8028C200.487 65.8399 200.141 65.8724 199.794 65.9002L198.753 65.9838C198.406 66.0117 198.062 66.0565 197.722 66.1182L196.702 66.3033C196.362 66.365 196.012 66.3794 195.652 66.3464L194.572 66.2473C194.212 66.2143 193.947 66.3009 193.777 66.5071L193.668 66.6393L193.266 67.1259C193.096 67.3321 193.003 67.3962 192.986 67.3182L192.962 67.2011L192.933 66.9629L192.893 66.9711L192.943 67.1125L192.959 67.1853C192.969 67.2338 192.816 67.2535 192.5 67.2443L191.554 67.2167C191.238 67.2075 190.906 67.215 190.559 67.2392L189.516 67.3118C189.168 67.336 188.825 67.3809 188.485 67.4463L187.468 67.6428C187.129 67.7083 186.794 67.7953 186.463 67.9038L185.472 68.2292C185.142 68.3377 184.813 68.4519 184.484 68.5719L183.5 68.9319C183.172 69.0519 182.835 69.1295 182.489 69.1648L181.453 69.2705C181.107 69.3058 180.77 69.3848 180.443 69.5077L179.459 69.8762C179.132 69.9991 178.795 70.0769 178.449 70.1096L177.411 70.2077C177.065 70.2404 176.718 70.2702 176.371 70.2969L175.33 70.3772C174.983 70.404 174.634 70.4195 174.283 70.4239L173.229 70.437C172.878 70.4413 172.546 70.5431 172.232 70.7423L171.292 71.34C170.979 71.5392 170.647 71.6409 170.296 71.6452L169.243 71.658C168.892 71.6623 168.551 71.7213 168.221 71.8349L167.23 72.1758C166.9 72.2894 166.556 72.3299 166.199 72.2973L165.127 72.1994C164.769 72.1668 164.427 72.2144 164.099 72.3424L163.115 72.7263C162.787 72.8543 162.456 72.9667 162.122 73.0636L161.12 73.3543C160.786 73.4512 160.45 73.5383 160.113 73.6155L159.1 73.8472C158.762 73.9244 158.411 73.9186 158.046 73.8298L156.951 73.5634C156.586 73.4745 156.234 73.4636 155.895 73.5305L154.879 73.7313C154.54 73.7982 154.213 73.9411 153.897 74.1599L152.95 74.8162C152.634 75.0349 152.295 75.1017 151.933 75.0166L150.848 74.7612C150.486 74.6761 150.136 74.6652 149.796 74.7287L148.778 74.919C148.438 74.9824 148.094 75.0132 147.745 75.0112L146.7 75.0052C146.351 75.0032 146.007 75.0373 145.668 75.1073L144.651 75.3175C144.312 75.3876 143.969 75.4235 143.623 75.4253L142.584 75.4305C142.237 75.4323 141.896 75.4833 141.56 75.5836L140.551 75.8844C140.215 75.9847 139.877 76.0834 139.537 76.1806L138.518 76.4722C138.178 76.5694 137.837 76.6588 137.495 76.7405L136.468 76.9855C136.126 77.0672 135.778 77.0273 135.425 76.8659L134.366 76.3814C134.013 76.22 133.666 76.1982 133.325 76.3162L132.304 76.6703C131.963 76.7883 131.618 76.8067 131.269 76.7254L130.221 76.4815C129.872 76.4002 129.525 76.3616 129.179 76.3657L128.143 76.3781C127.798 76.3822 127.454 76.4489 127.113 76.5781L126.089 76.966C125.748 77.0952 125.402 77.094 125.053 76.9624L124.005 76.5674C123.655 76.4357 123.308 76.3884 122.964 76.4254L121.93 76.5365C121.586 76.5735 121.241 76.602 120.896 76.6219L119.861 76.6818C119.516 76.7018 119.172 76.7378 118.827 76.7899L117.793 76.9463C117.449 76.9985 117.104 77.0612 116.759 77.1345L115.724 77.3543C115.38 77.4276 115.034 77.4581 114.688 77.4458L113.65 77.4089C113.305 77.3967 112.959 77.3602 112.613 77.2996L111.576 77.1178C111.23 77.0572 110.885 76.9983 110.54 76.9412L109.505 76.7696C109.16 76.7125 108.814 76.7678 108.466 76.9357L107.423 77.4392C107.076 77.6071 106.729 77.6726 106.384 77.6357L105.347 77.5251C105.002 77.4882 104.658 77.4118 104.315 77.2957L103.286 76.9475C102.943 76.8314 102.598 76.7844 102.252 76.8065L101.213 76.8727C100.867 76.8948 100.522 76.8694 100.179 76.7964L99.1509 76.5777C98.808 76.5048 98.4631 76.4843 98.1161 76.5164L97.075 76.6127C96.728 76.6448 96.3811 76.669 96.0343 76.6854L94.9938 76.7344C94.647 76.7507 94.3044 76.6958 93.9661 76.5698L92.9511 76.1917C92.6128 76.0657 92.2656 76.0732 91.9096 76.2144L90.8415 76.6377C90.4855 76.7788 90.1411 76.759 89.8085 76.5783L88.8106 76.0362C88.4779 75.8555 88.1404 75.7451 87.7978 75.7049L86.7702 75.5843C86.4277 75.5441 86.0828 75.5281 85.7355 75.5364L84.6937 75.5612C84.3464 75.5695 83.9998 75.5674 83.654 75.5548L82.6164 75.5173C82.2706 75.5047 81.9257 75.4824 81.5818 75.4504L80.55 75.3542C80.206 75.3222 79.8681 75.2437 79.5362 75.1188L78.5405 74.744C78.2085 74.6191 77.8684 74.5586 77.52 74.5627L76.4748 74.5748C76.1263 74.5788 75.7835 74.5424 75.4461 74.4654L74.434 74.2347C74.0967 74.1578 73.7589 74.0855 73.4207 74.0179L72.4062 73.8151C72.068 73.7475 71.7157 73.7602 71.3495 73.8532L70.2508 74.1322C69.8845 74.2252 69.5269 74.2628 69.1779 74.245L68.1309 74.1916C67.7819 74.1738 67.4574 74.032 67.1573 73.7662L66.2571 72.9688C65.957 72.703 65.627 72.5873 65.2671 72.6217L64.1875 72.7249C63.8276 72.7593 63.4759 72.7519 63.1325 72.7026L62.1021 72.5547C61.7586 72.5054 61.4185 72.4411 61.0816 72.3617L60.0711 72.1237C59.7343 72.0443 59.3969 71.967 59.0589 71.8916L58.0449 71.6655C57.7069 71.5901 57.3818 71.4672 57.0697 71.2968L56.1334 70.7857C55.8213 70.6153 55.4911 70.5103 55.1428 70.4707L54.0982 70.3519C53.7499 70.3123 53.3984 70.2801 53.0435 70.2553L51.9788 70.1808C51.6239 70.1559 51.3083 70.0053 51.0321 69.7288L50.2033 68.8993C49.9271 68.6228 49.6095 68.4656 49.2505 68.4279L48.1736 68.3146C47.8147 68.2768 47.4626 68.2286 47.1173 68.1701L46.0815 67.9944C45.7362 67.9359 45.426 67.7907 45.1509 67.559L44.3254 66.8637C44.0502 66.632 43.7487 66.4511 43.4208 66.321L42.4371 65.9306C42.1092 65.8005 41.7801 65.6839 41.4499 65.5807L40.4594 65.2711C40.1292 65.1679 39.8178 65.0287 39.5254 64.8533L38.648 64.3271C38.3555 64.1517 38.0447 64.0015 37.7155 63.8766L36.728 63.502C36.3989 63.3771 36.0741 63.252 35.7537 63.1266L34.7924 62.7506C34.472 62.6252 34.156 62.4957 33.8444 62.362L32.9095 61.9609C32.5979 61.8272 32.2462 61.7632 31.8543 61.7689L30.6788 61.786C30.2869 61.7917 29.9633 61.6659 29.7078 61.4085L28.9415 60.6364C28.6861 60.379 28.3797 60.2181 28.0223 60.1537L26.9502 59.9604C26.5928 59.896 26.2829 59.7404 26.0206 59.4937L25.2335 58.7534C24.9711 58.5066 24.6677 58.341 24.3233 58.2567L23.29 58.0038C22.9455 57.9194 22.647 57.7452 22.3945 57.4811L21.6368 56.6888C21.3843 56.4247 21.1351 56.1706 20.8894 55.9264L20.1523 55.1939C19.9066 54.9498 19.609 54.7735 19.2597 54.6652L18.2116 54.3402C17.8622 54.2319 17.542 54.0879 17.251 53.9082L16.3781 53.3692C16.0871 53.1896 15.8075 52.9856 15.5395 52.7573L14.7352 52.0724C14.4671 51.8441 14.2039 51.6191 13.9455 51.3973L13.1703 50.7321C12.9119 50.5103 12.6418 50.2932 12.3599 50.0807L11.5141 49.4432C11.2321 49.2307 11.0187 48.9535 10.8739 48.6116L10.4392 47.586C10.2944 47.2442 10.062 46.9875 9.74224 46.8162L8.78288 46.3021C8.4631 46.1307 8.16989 45.9305 7.90328 45.7015L7.10343 45.0143C6.83681 44.7853 6.58132 44.5463 6.33697 44.2974L5.60389 43.5506C5.35953 43.3017 5.13675 43.0312 4.93554 42.739L4.33194 41.8625C4.13074 41.5703 3.95509 41.2643 3.805 40.9444L3.35472 39.9848C3.20463 39.6649 3.05264 39.3481 2.89876 39.0342L2.43713 38.0926C2.28325 37.7788 2.12983 37.4636 1.97686 37.147L1.51797 36.1974C1.365 35.8808 1.3231 35.5308 1.39225 35.1474L1.5997 33.9971C1.66885 33.6137 1.61609 33.2646 1.44143 32.9499L0.917438 32.0058C0.742774 31.6911 0.655778 31.3596 0.656451 31.0113L0.658468 29.9664C0.65914 29.6181 0.696927 29.273 0.771828 28.931L0.996532 27.9049C1.07143 27.5629 1.04908 27.2158 0.929482 26.8634L0.570679 25.8065C0.451078 25.4541 0.483266 25.1183 0.667243 24.799L1.21917 23.8412C1.40315 23.5219 1.50857 23.19 1.53544 22.8456L1.61604 21.8122C1.6429 21.4677 1.64944 21.1099 1.63564 20.7388L1.59425 19.6256C1.58045 19.2546 1.65594 18.9129 1.82071 18.6006L2.315 17.6636C2.47977 17.3513 2.67913 17.0593 2.91309 16.7875L3.61497 15.9724C3.84893 15.7006 4.06006 15.4207 4.24836 15.1325L4.81328 14.2681C5.00158 13.9799 5.143 13.66 5.23755 13.3085L5.52118 12.2538C5.61572 11.9023 5.76837 11.5873 5.97912 11.3089L6.61138 10.4738C6.81909 10.1994 7.08249 9.97234 7.40158 9.79251L7.92041 9.19755C8.14972 8.93458 8.37922 8.67233 8.6089 8.41081L9.29794 7.62624C9.40859 7.50026 9.52961 7.38421 9.66102 7.2781C9.79044 7.03463 9.94265 6.81001 10.1177 6.60424L10.7945 5.80837C11.0202 5.54309 11.2996 5.33559 11.6328 5.1859L12.6325 4.73681C12.6348 4.73579 12.637 4.73475 12.6393 4.73372C12.8156 4.52446 13.0127 4.33911 13.2306 4.17766L13.3299 4.10412C13.3479 4.07272 13.3651 4.04041 13.3814 4.0072L13.8797 2.99705C14.0458 2.66034 14.2623 2.37936 14.5293 2.1541L15.33 1.47834C15.597 1.25309 15.8782 1.07778 16.1737 0.952407L17.0603 0.576294C17.3558 0.450923 17.353 0.480065 17.0519 0.66372L16.1487 1.21468C15.8476 1.39834 15.5953 1.63722 15.3918 1.93134L14.7813 2.81369C14.5777 3.10781 14.3376 3.3574 14.0609 3.56247L13.3299 4.10412C13.1665 4.38881 12.9363 4.59867 12.6393 4.73372C12.5917 4.79026 12.5455 4.84855 12.5009 4.90858L11.8719 5.7552C11.6622 6.0374 11.3978 6.26646 11.0787 6.44237L10.1212 6.9701C9.95579 7.06127 9.8024 7.16393 9.66102 7.2781C9.62359 7.34852 9.58806 7.42052 9.55444 7.4941L9.1049 8.47794C8.95506 8.80589 8.71741 9.06039 8.39198 9.24145L7.41567 9.78462C7.41096 9.78724 7.40626 9.78987 7.40158 9.79251L7.23245 9.98646C7.00313 10.2494 6.84909 10.5647 6.77034 10.9323L6.53408 12.035C6.45533 12.4025 6.30565 12.721 6.08505 12.9905L5.42324 13.7989C5.20264 14.0684 4.98001 14.3418 4.75535 14.6192L4.08136 15.4515C3.85669 15.7289 3.72001 16.0455 3.67131 16.4011L3.52519 17.4681C3.47649 17.8237 3.39699 18.165 3.28669 18.4919L2.95579 19.4727C2.84548 19.7996 2.79916 20.138 2.8168 20.488L2.86974 21.5378C2.88739 21.8878 2.87008 22.2301 2.8178 22.5649L2.66097 23.5693L2.50143 24.5908L2.33918 25.6293C2.2851 25.9755 2.32652 26.311 2.46344 26.6359L2.87421 27.6107C3.01113 27.9356 3.06515 28.2816 3.03627 28.6486L2.94963 29.7496C2.92075 30.1166 2.98502 30.4573 3.14243 30.7717L3.61467 31.7148C3.77208 32.0292 3.96146 32.3236 4.18281 32.5979L4.84685 33.4208C5.0682 33.6952 5.29624 33.9592 5.53097 34.2128L6.23517 34.9739C6.46991 35.2275 6.67096 35.5034 6.83833 35.8014L7.34044 36.6954C7.50781 36.9934 7.67655 37.2952 7.84665 37.6009L8.35696 38.5179C8.52707 38.8236 8.7283 39.105 8.96066 39.3621L9.65774 40.1333C9.8901 40.3903 10.1021 40.6717 10.2939 40.9773L10.8691 41.8942C11.0608 42.1998 11.3061 42.4456 11.605 42.6317L12.5017 43.1898C12.8006 43.3759 13.1156 43.5379 13.4467 43.6758L14.4399 44.0897C14.771 44.2276 15.0426 44.4436 15.2548 44.7376L15.8915 45.6197C16.1037 45.9137 16.3358 46.1843 16.5878 46.4316L17.3438 47.1734C17.5958 47.4207 17.8821 47.6153 18.2028 47.7573L19.1646 48.1834C19.4853 48.3255 19.8169 48.4506 20.1594 48.559L21.1872 48.8841C21.5297 48.9925 21.8603 49.1142 22.1788 49.2491L23.1344 49.654C23.4529 49.789 23.7533 49.9562 24.0355 50.1555L24.8821 50.7536C25.1643 50.953 25.4543 51.141 25.7522 51.3176L26.6458 51.8473C26.9436 52.0239 27.2222 52.2353 27.4814 52.4814L28.2591 53.2199C28.5183 53.4661 28.8095 53.6566 29.1326 53.7915L30.1018 54.1961C30.4249 54.331 30.7245 54.5073 31.0008 54.725L31.8296 55.3781C32.1059 55.5958 32.437 55.7038 32.823 55.7023L33.9811 55.6977C34.3672 55.6962 34.7223 55.7504 35.0465 55.8605L36.0192 56.1907C36.3435 56.3008 36.6638 56.4283 36.9802 56.5732L37.9295 57.008C38.246 57.153 38.5552 57.3068 38.8572 57.4694L39.7632 57.9573C40.0652 58.12 40.3677 58.2905 40.6707 58.4691L41.5796 59.0046C41.8826 59.1832 42.1919 59.3401 42.5075 59.4756L43.4544 59.8818C43.77 60.0173 44.0841 60.162 44.3967 60.3161L45.3345 60.7784C45.6471 60.9326 45.9759 61.0447 46.3208 61.115L47.3555 61.3258C47.7004 61.3961 48.0485 61.4497 48.3998 61.4868L49.4536 61.5978C49.8049 61.6349 50.1383 61.7254 50.4539 61.8693L51.4008 62.3013C51.7164 62.4453 52.0435 62.5512 52.382 62.619L53.3976 62.8224C53.7362 62.8902 54.0682 62.9819 54.3937 63.0975L55.3702 63.4442C55.6957 63.5598 56.0291 63.6445 56.3704 63.6984L57.3943 63.8599C57.7356 63.9137 58.0673 64.0117 58.3893 64.1536L59.3555 64.5796C59.6776 64.7216 60.0162 64.7837 60.3715 64.7659L61.4374 64.7126C61.7927 64.6948 62.1234 64.8102 62.4294 65.059L63.3475 65.8053C63.6536 66.054 63.9892 66.1342 64.3545 66.0458L65.4501 65.7806C65.8154 65.6922 66.1678 65.6787 66.5076 65.74L67.5267 65.9241C67.8664 65.9854 68.2105 66.0136 68.559 66.0088L69.6043 65.9941C69.9527 65.9892 70.2909 66.0702 70.6188 66.2372L71.6026 66.738C71.9305 66.905 72.2739 66.9333 72.6326 66.8231L73.7087 66.4924C74.0674 66.3822 74.4142 66.3902 74.7489 66.5163L75.7533 66.8947C76.0881 67.0209 76.4244 67.1421 76.7622 67.2583L77.7755 67.6071C78.1133 67.7233 78.4572 67.7577 78.8072 67.7104L79.8572 67.5682C80.2072 67.5209 80.5525 67.553 80.893 67.6646L81.9147 67.9994C82.2553 68.111 82.6003 68.1387 82.9497 68.0827L83.9978 67.9144C84.3472 67.8583 84.6935 67.8752 85.0366 67.9649L86.066 68.2341C86.4091 68.3238 86.7547 68.3349 87.1026 68.2674L88.1465 68.0649C88.4944 67.9974 88.8408 67.9999 89.1855 68.0724L90.2197 68.29C90.5645 68.3625 90.9103 68.3952 91.257 68.388L92.2973 68.3667C92.6441 68.3596 92.9907 68.3112 93.337 68.2215L94.3761 67.9525C94.7224 67.8628 95.0686 67.8457 95.4146 67.9011L96.4527 68.0673C96.7987 68.1227 97.1442 68.1197 97.489 68.0582L98.5236 67.8736C98.8685 67.8121 99.2136 67.7844 99.559 67.7904L100.595 67.8084C100.94 67.8144 101.287 67.8624 101.635 67.9524L102.678 68.2223C103.026 68.3123 103.372 68.3189 103.717 68.2423L104.749 68.0122C105.094 67.9356 105.437 67.845 105.78 67.7404L106.807 67.4268C107.15 67.3223 107.497 67.3387 107.848 67.476L108.902 67.888C109.253 68.0253 109.599 68.0199 109.939 67.8717L110.959 67.4273C111.299 67.2791 111.644 67.2602 111.995 67.3705L113.047 67.7016C113.398 67.8119 113.746 67.8594 114.091 67.8439L115.127 67.7976C115.472 67.7822 115.814 67.7142 116.154 67.5935L117.174 67.2315C117.514 67.1109 117.859 67.1045 118.21 67.2123L119.261 67.5357C119.611 67.6435 119.958 67.6556 120.301 67.5719L121.332 67.3209C121.676 67.2372 122.015 67.1222 122.35 66.976L123.356 66.5372C123.691 66.391 124.036 66.3877 124.391 66.5275L125.457 66.9467C125.812 67.0865 126.164 67.1635 126.511 67.1777L127.554 67.2206C127.902 67.2349 128.25 67.2261 128.598 67.1942L129.642 67.0986C129.99 67.0668 130.323 66.9268 130.639 66.6788L131.589 65.9347C131.906 65.6866 132.24 65.5766 132.593 65.6045L133.65 65.6884C134.002 65.7164 134.343 65.6687 134.672 65.5453L135.661 65.1752C135.991 65.0519 136.335 65.0194 136.695 65.0778L137.775 65.2529C138.135 65.3113 138.473 65.2464 138.79 65.0584L139.74 64.4941C140.056 64.306 140.385 64.1852 140.724 64.1317L141.744 63.971C142.084 63.9174 142.439 63.9307 142.81 64.0109L143.923 64.2515C144.294 64.3316 144.635 64.2768 144.946 64.087L145.879 63.5176C146.19 63.3278 146.508 63.1695 146.833 63.0427L147.81 62.6622C148.135 62.5354 148.49 62.5335 148.876 62.6564L150.032 63.0254C150.417 63.1484 150.774 63.1533 151.104 63.0402L152.092 62.7008C152.422 62.5877 152.737 62.4262 153.039 62.2163L153.943 61.5866C154.245 61.3767 154.573 61.2667 154.93 61.2567L155.998 61.2267C156.354 61.2166 156.701 61.1733 157.039 61.0965L158.051 60.8664C158.389 60.7896 158.708 60.6485 159.008 60.443L159.909 59.8264C160.21 59.6208 160.527 59.4766 160.863 59.3935L161.869 59.1445C162.205 59.0615 162.551 59.0108 162.907 58.9926L163.975 58.9379C164.331 58.9196 164.654 58.7956 164.944 58.5657L165.814 57.876C166.103 57.6461 166.432 57.539 166.801 57.5548L167.905 57.6022C168.273 57.618 168.618 57.5628 168.941 57.4366L169.91 57.058C170.233 56.9318 170.564 56.8296 170.902 56.7513L171.917 56.5164C172.255 56.4381 172.582 56.3258 172.898 56.1795L173.846 55.7405C174.162 55.5941 174.484 55.466 174.811 55.3562L175.793 55.0266C176.121 54.9167 176.437 54.7729 176.741 54.5953L177.653 54.0625C177.958 53.8849 178.286 53.7762 178.639 53.7364L179.697 53.617C180.05 53.5772 180.392 53.5043 180.722 53.3983L181.715 53.0803C182.045 52.9742 182.374 52.8644 182.7 52.7508L183.677 52.4099C184.003 52.2963 184.306 52.1217 184.587 51.8862L185.43 51.1796C185.712 50.9441 186.037 50.8261 186.406 50.8256L187.515 50.8242C187.885 50.8237 188.218 50.7263 188.515 50.5318L189.406 49.9485C189.703 49.754 190.005 49.5794 190.313 49.4247L191.238 48.9603C191.546 48.8055 191.877 48.7003 192.231 48.6447L193.291 48.4779C193.645 48.4223 193.962 48.2848 194.244 48.0654L195.089 47.4071C195.371 47.1876 195.687 47.0482 196.039 46.9888L197.094 46.8106C197.445 46.7512 197.748 46.5801 198.002 46.2974L198.764 45.4492C199.018 45.1665 199.314 44.982 199.651 44.8957L200.663 44.6366C201 44.5503 201.321 44.4218 201.626 44.2512L202.54 43.7395C202.844 43.5689 203.178 43.4645 203.54 43.4265L204.626 43.3122C204.988 43.2742 205.334 43.1985 205.663 43.0852L206.65 42.7454C206.979 42.6322 207.29 42.4788 207.584 42.2852L208.464 41.7045C208.758 41.5109 209.045 41.309 209.326 41.0989L210.17 40.4683C210.451 40.2582 210.737 40.0611 211.028 39.8772L211.9 39.3253C212.19 39.1413 212.479 38.9519 212.766 38.7571L213.628 38.1726C213.915 37.9777 214.216 37.8085 214.532 37.665L215.479 37.2342C215.794 37.0906 216.125 36.9718 216.471 36.8778L217.508 36.5957C217.853 36.5017 218.173 36.3607 218.465 36.1728L219.343 35.6089C219.636 35.421 219.897 35.1899 220.125 34.9157L220.81 34.0932C221.039 33.819 221.314 33.6397 221.637 33.5551L222.605 33.3014C222.927 33.2169 223.221 33.0347 223.486 32.755L224.281 31.9157C224.546 31.636 224.854 31.4702 225.203 31.4184L226.251 31.263C226.6 31.2112 226.926 31.0966 227.229 30.919L228.137 30.3863C228.44 30.2088 228.772 30.1092 229.132 30.0876L230.213 30.0229C230.574 30.0013 230.905 29.9017 231.208 29.724L232.116 29.1908C232.419 29.013 232.741 28.8876 233.082 28.8145L234.106 28.5951C234.448 28.522 234.77 28.3972 235.073 28.2209L235.983 27.6918C236.286 27.5154 236.605 27.3817 236.94 27.2907L237.944 27.0176C238.279 26.9266 238.612 26.8297 238.942 26.727L239.934 26.4188C240.264 26.316 240.585 26.1866 240.895 26.0304L241.827 25.5618C242.138 25.4056 242.458 25.2737 242.786 25.1661L243.772 24.8434C244.101 24.7358 244.425 24.617 244.746 24.487L245.707 24.0969C246.027 23.9669 246.369 23.8938 246.731 23.8775L247.818 23.8288C248.181 23.8126 248.528 23.757 248.862 23.662L249.862 23.3771C250.195 23.2822 250.5 23.1112 250.777 22.8642L251.609 22.1232C251.886 21.8761 252.182 21.6792 252.496 21.5323L253.438 21.0918C253.752 20.9449 254.073 20.8169 254.401 20.7078L255.386 20.3804C255.714 20.2712 256.215 20.1423 256.89 19.9936L257.902 19.7706L257.921 19.7636L257.941 19.7659L258.104 19.7134C258.212 19.6785 258.279 19.6875 258.305 19.7406L258.383 19.8998C258.396 19.9264 258.417 19.9366 258.445 19.9304L258.456 19.9237C258.48 19.9095 258.504 19.8967 258.526 19.8852C258.534 19.8786 258.543 19.8713 258.552 19.8633L258.811 19.6313C258.898 19.554 258.923 19.5436 258.886 19.6001L258.83 19.6849L258.75 19.787C258.76 19.7849 258.763 19.7875 258.758 19.7948L258.745 19.8146L258.699 19.8521L258.719 19.8544L258.736 19.8654L259.513 20.5519C260.031 21.0097 260.429 21.3419 260.707 21.5487L261.54 22.1691C261.818 22.3759 262.149 22.5015 262.533 22.5458L263.685 22.6789C264.069 22.7233 264.365 22.9029 264.571 23.2179L265.192 24.1627C265.398 24.4776 265.672 24.6896 266.014 24.7987L267.039 25.126C267.381 25.2351 267.656 25.4466 267.863 25.7603L268.485 26.7017C268.693 27.0155 268.981 27.2065 269.349 27.2749L270.455 27.48C270.823 27.5484 271.127 27.7154 271.366 27.981L272.083 28.778C272.322 29.0436 272.576 29.2869 272.844 29.5077L273.649 30.1701C273.918 30.3909 274.241 30.5289 274.618 30.5838L275.749 30.7488C276.126 30.8038 276.459 30.9274 276.746 31.1196L277.608 31.6961C277.895 31.8883 278.166 32.1043 278.422 32.3441L279.19 33.0633C279.446 33.3031 279.744 33.4797 280.083 33.5931L281.099 33.9335C281.438 34.0469 281.701 34.2765 281.887 34.622L282.447 35.6588C282.634 36.0044 282.889 36.2463 283.211 36.3845L284.179 36.7991C284.502 36.9373 284.816 37.0877 285.123 37.2503L286.043 37.7383C286.349 37.901 286.627 38.1074 286.876 38.3575L287.624 39.108C287.873 39.3581 288.154 39.5602 288.466 39.7144L289.402 40.1768C289.714 40.331 289.995 40.5341 290.242 40.7862L290.986 41.5426C291.234 41.7947 291.524 41.9829 291.855 42.1071L292.849 42.4796C293.18 42.6038 293.477 42.7786 293.739 43.0038L294.526 43.6796C294.789 43.9049 294.848 44.0848 294.704 44.2193L294.272 44.6228C294.128 44.7573 293.883 44.8468 293.537 44.8911L292.499 45.024C292.154 45.0683 291.814 45.1322 291.479 45.2157L290.477 45.4664C290.143 45.55 289.806 45.6237 289.465 45.6875L288.444 45.8791C288.104 45.943 287.778 46.0671 287.467 46.2516L286.534 46.8049C286.223 46.9893 285.878 47.0308 285.498 46.9292L284.361 46.6246C283.981 46.523 283.643 46.5959 283.345 46.8432L282.452 47.5852C282.155 47.8325 281.835 47.984 281.492 48.0397L280.465 48.2066C280.123 48.2622 279.769 48.2674 279.403 48.2222L278.306 48.0864C277.941 48.0411 277.6 48.1017 277.284 48.268L276.336 48.7672C276.02 48.9336 275.693 49.056 275.357 49.1343L274.347 49.3695C274.011 49.4478 273.661 49.4703 273.298 49.4369L272.21 49.3365C271.848 49.3031 271.503 49.3462 271.176 49.4659L270.195 49.825C269.868 49.9447 269.542 50.0665 269.216 50.1904L268.238 50.5622C267.912 50.6861 267.589 50.8263 267.271 50.9827L266.315 51.4519C265.997 51.6083 265.668 51.7223 265.33 51.7938L264.315 52.0085C263.977 52.0801 263.624 52.0884 263.256 52.0336L262.152 51.8692C261.785 51.8144 261.437 51.8477 261.111 51.969L260.131 52.3331C259.804 52.4544 259.485 52.609 259.174 52.7968L258.24 53.3603C257.929 53.5481 257.599 53.6559 257.251 53.6836L256.206 53.7667C255.857 53.7944 255.503 53.7976 255.144 53.7761L254.064 53.7116C253.705 53.6901 253.367 53.7606 253.05 53.9233L252.099 54.4111C251.782 54.5737 251.452 54.6823 251.11 54.7368L250.084 54.9002C249.742 54.9547 249.4 55.0103 249.058 55.0671L248.033 55.2376C247.692 55.2944 247.346 55.3347 246.997 55.3585L245.948 55.4299C245.598 55.4537 245.256 55.5104 244.922 55.6001L243.918 55.8691C243.583 55.9588 243.306 56.0334 243.086 56.093L242.425 56.2718C242.206 56.3312 242.104 56.3952 242.118 56.4637C242.118 56.464 242.118 56.4643 242.119 56.4646L242.142 56.5679L242.209 56.7701L242.19 56.7746L242.17 56.7791L242.162 56.7732L242.2 56.9993C242.227 57.1532 242.224 57.2007 242.192 57.1419L242.097 56.9653C242.065 56.9065 242.03 56.8699 241.99 56.8556L241.93 56.8342L241.917 56.8486L241.041 57.4313C240.457 57.8197 240.066 58.1585 239.868 58.4476L239.275 59.3149C239.077 59.604 238.847 59.8621 238.584 60.0891L237.797 60.7702C237.534 60.9972 237.335 61.2853 237.2 61.6343L236.795 62.6814C236.66 63.0305 236.45 63.3084 236.166 63.5151L235.315 64.1352C235.031 64.3419 234.77 64.5701 234.531 64.8198L233.814 65.5689C233.575 65.8186 233.317 66.0496 233.039 66.2619L232.205 66.8988C231.927 67.1112 231.68 67.353 231.464 67.6244L230.815 68.4387C230.599 68.7101 230.398 68.9958 230.212 69.2959L229.653 70.1961C229.467 70.4961 229.252 70.7692 229.009 71.0152L228.281 71.7531C228.038 71.9991 227.785 72.2349 227.521 72.4604L226.728 73.1369C226.464 73.3624 226.23 73.6167 226.026 73.8997L225.414 74.7486C225.209 75.0316 224.987 75.2973 224.747 75.5458L224.027 76.2914C223.787 76.5399 223.551 76.7926 223.32 77.0494L222.625 77.8199C222.394 78.0767 222.123 78.2964 221.814 78.4788L220.887 79.026C220.577 79.2084 220.339 79.458 220.17 79.7748L219.663 80.7251C219.495 81.0419 219.268 81.3038 218.985 81.5109L218.135 82.1321C217.851 82.3391 217.587 82.5643 217.341 82.8076L216.604 83.5375C216.359 83.7808 216.145 84.0545 215.963 84.3587L215.417 85.2711C215.235 85.5753 215.022 85.8498 214.778 86.0945L214.046 86.8287C213.802 87.0735 213.546 87.3067 213.278 87.5284L212.473 88.1934C212.205 88.4151 211.954 88.6532 211.72 88.9078L211.019 89.6716C210.785 89.9261 210.543 90.1731 210.294 90.4125L209.545 91.1306C209.295 91.3699 209.001 91.5674 208.664 91.7231L207.653 92.1902C207.316 92.3458 207.027 92.5481 206.788 92.7968L206.068 93.5431C205.828 93.7919 205.582 94.0348 205.33 94.2719L204.574 94.9833C204.322 95.2204 204.103 95.4889 203.916 95.7889L203.357 96.6888C203.171 96.9888 202.956 97.2616 202.713 97.5071L201.983 98.2438C201.74 98.4894 201.487 98.7255 201.224 98.9521L200.435 99.6319C200.172 99.8585 200.034 100.031 200.021 100.149L200.002 100.326L199.978 100.665L199.964 100.68L199.945 100.685L199.844 100.901C199.776 101.045 199.705 101.066 199.632 100.963L199.411 100.654C199.391 100.627 199.374 100.604 199.359 100.584C199.272 100.578 199.235 100.589 199.247 100.618L199.306 100.759C199.325 100.805 199.307 100.868 199.25 100.945L199.079 101.179C199.022 101.257 199.002 101.265 199.018 101.203L199.043 101.11L199.111 100.92L199.092 100.925L199.073 100.92L198.019 100.888C197.317 100.866 196.819 100.734 196.525 100.493L195.645 99.7681C195.351 99.5265 195.084 99.424 194.842 99.4606L194.118 99.5704C193.877 99.6071 193.759 99.6166 193.763 99.5992L193.77 99.5731L193.803 99.526L193.784 99.5209L193.775 99.5029L193.355 99.5004C193.075 99.4988 192.981 99.4469 193.074 99.3449L193.353 99.0388C193.432 98.9529 193.457 98.8678 193.428 98.7835L193.208 98.6754C193.105 98.6246 193.087 98.5841 193.153 98.5539L193.271 98.5004L193.234 98.437C193.176 98.3373 193.151 98.289 193.159 98.2923L193.17 98.2971L193.202 98.3248L193.193 98.3068L193.201 98.2885L193.689 97.3806C194.014 96.7754 194.279 96.3288 194.484 96.0406L195.098 95.1763C195.303 94.8881 195.462 94.5804 195.575 94.253L195.916 93.2709C196.029 92.9435 196.095 92.5958 196.114 92.2279L196.171 91.1241C196.19 90.7561 196.272 90.4151 196.416 90.1009L196.849 89.1584C196.993 88.8442 197.103 88.5156 197.18 88.1724L197.41 87.1431C197.487 86.7999 197.67 86.5025 197.96 86.2509L198.829 85.496C199.119 85.2443 199.317 84.9532 199.422 84.6225L199.74 83.6305C199.846 83.2999 199.98 82.9817 200.144 82.676L200.636 81.759C200.8 81.4534 200.971 81.1506 201.148 80.8506L201.68 79.9508C201.857 79.6509 201.924 79.3032 201.879 78.9079L201.744 77.7218C201.699 77.3265 201.786 76.9876 202.004 76.7052L202.659 75.8581C202.877 75.5758 203.104 75.2971 203.34 75.0222L204.047 74.1976C204.282 73.9227 204.374 73.586 204.322 73.1874L204.165 71.9919C204.113 71.5933 204.218 71.2624 204.481 70.9991L205.268 70.2091C205.531 69.9458 205.673 69.6309 205.695 69.2643L205.762 68.1647C205.784 67.7982 205.889 67.4672 206.077 67.1719L206.642 66.2859C206.83 65.9906 206.956 65.8092 207.021 65.7418L207.118 65.6407L207.303 65.4568L207.311 65.4384L207.299 65.4228L207.314 65.4301L207.445 65.005L207.419 64.9364C207.38 64.8316 207.366 64.7176 207.377 64.5943C207.364 64.5949 207.349 64.5969 207.334 64.6004L206.828 64.7127C206.66 64.7501 206.552 64.7048 206.503 64.5767L206.367 64.2168L206.339 64.2299Z" fill="#F0F0F0"/>
<path d="M206.327 64.2143L206.339 64.2299L206.961 63.9334C207.376 63.7357 207.563 63.727 207.522 63.9074L207.4 64.4486C207.359 64.6289 207.366 64.7916 207.419 64.9364L207.58 65.3709C207.633 65.5157 207.631 65.5757 207.573 65.5507L207.486 65.5133L207.299 65.4228L207.311 65.4384M206.327 64.2143L206.307 64.2183L205.24 64.1188C204.529 64.0524 204.024 64.1539 203.726 64.4234L202.832 65.2318C202.534 65.5012 202.212 65.6545 201.867 65.6916L200.832 65.8028C200.487 65.8399 200.141 65.8724 199.794 65.9002L198.753 65.9838C198.406 66.0117 198.062 66.0565 197.722 66.1182L196.702 66.3033C196.362 66.365 196.012 66.3794 195.652 66.3464L194.572 66.2473C194.212 66.2143 193.947 66.3009 193.777 66.5071L193.266 67.1259C193.096 67.3321 193.003 67.3962 192.986 67.3182L192.962 67.2011L192.933 66.9629M206.327 64.2143L206.295 64.0538C206.288 64.0181 206.309 64.0643 206.357 64.1924L206.503 64.5767C206.552 64.7048 206.66 64.7501 206.828 64.7127L207.334 64.6004C207.502 64.5629 207.54 64.6933 207.449 64.9913L207.311 65.4384M207.311 65.4384L207.303 65.4568L207.118 65.6407L207.021 65.7418C206.956 65.8092 206.83 65.9906 206.642 66.2859L206.077 67.1719C205.889 67.4672 205.784 67.7982 205.762 68.1647L205.695 69.2643C205.673 69.6309 205.531 69.9458 205.268 70.2091L204.481 70.9991C204.218 71.2624 204.113 71.5933 204.165 71.9919L204.322 73.1874C204.374 73.5859 204.282 73.9227 204.047 74.1976L203.34 75.0222C203.104 75.2971 202.877 75.5758 202.659 75.8581L202.004 76.7052C201.786 76.9876 201.699 77.3265 201.744 77.7218L201.879 78.9079C201.924 79.3032 201.857 79.6509 201.68 79.9508L201.148 80.8506C200.971 81.1506 200.8 81.4534 200.636 81.759L200.144 82.676C199.98 82.9817 199.846 83.2999 199.74 83.6305L199.422 84.6225C199.317 84.9532 199.119 85.2443 198.829 85.496L197.96 86.2509C197.67 86.5025 197.487 86.7999 197.41 87.143L197.18 88.1724C197.103 88.5156 196.993 88.8442 196.849 89.1584L196.416 90.1009C196.272 90.4151 196.19 90.7561 196.171 91.1241L196.114 92.2279C196.095 92.5958 196.029 92.9435 195.916 93.2709L195.575 94.253C195.462 94.5804 195.303 94.8881 195.098 95.1763L194.484 96.0406C194.279 96.3288 194.014 96.7754 193.689 97.3806L193.201 98.2885L193.193 98.3068L193.202 98.3248M192.933 66.9629L193.074 66.7581C193.167 66.6215 193.244 66.541 193.304 66.5165L193.482 66.4429C193.542 66.4184 193.604 66.4849 193.669 66.6424L193.865 67.115C193.93 67.2725 193.953 67.303 193.932 67.2067L193.902 67.0621L193.822 66.7771L193.842 66.773M192.933 66.9629L192.893 66.9711L192.943 67.1125L192.959 67.1853C192.969 67.2338 192.816 67.2535 192.5 67.2443L191.554 67.2167C191.238 67.2075 190.906 67.215 190.559 67.2392L189.516 67.3118C189.168 67.336 188.825 67.3809 188.485 67.4463L187.468 67.6428C187.129 67.7083 186.794 67.7953 186.463 67.9038L185.472 68.2292C185.142 68.3377 184.813 68.4519 184.484 68.5719L183.5 68.9319C183.172 69.0519 182.835 69.1295 182.489 69.1648L181.453 69.2705C181.107 69.3058 180.77 69.3848 180.443 69.5077L179.459 69.8762C179.131 69.9991 178.795 70.0769 178.449 70.1096L177.411 70.2077C177.065 70.2404 176.718 70.2702 176.371 70.2969L175.33 70.3772C174.983 70.404 174.634 70.4195 174.283 70.4239L173.229 70.437C172.878 70.4413 172.546 70.5431 172.232 70.7423L171.292 71.34C170.979 71.5392 170.647 71.6409 170.296 71.6452L169.243 71.658C168.892 71.6623 168.551 71.7212 168.221 71.8349L167.23 72.1758C166.9 72.2894 166.556 72.3299 166.199 72.2973L165.127 72.1994C164.769 72.1668 164.427 72.2144 164.099 72.3424L163.115 72.7263C162.787 72.8543 162.456 72.9667 162.122 73.0636L161.12 73.3543C160.786 73.4512 160.45 73.5383 160.113 73.6155L159.1 73.8472C158.762 73.9244 158.411 73.9186 158.046 73.8298L156.951 73.5634C156.586 73.4745 156.234 73.4636 155.895 73.5305L154.879 73.7313C154.54 73.7982 154.213 73.9411 153.897 74.1599L152.95 74.8162C152.634 75.0349 152.295 75.1017 151.933 75.0166L150.848 74.7612C150.486 74.6761 150.136 74.6652 149.796 74.7287L148.778 74.919C148.438 74.9824 148.094 75.0131 147.745 75.0112L146.7 75.0052C146.351 75.0032 146.007 75.0373 145.668 75.1073L144.651 75.3175C144.312 75.3876 143.969 75.4235 143.623 75.4253L142.584 75.4305C142.237 75.4323 141.896 75.4833 141.56 75.5836L140.551 75.8844C140.215 75.9847 139.877 76.0834 139.537 76.1806L138.518 76.4722C138.178 76.5694 137.837 76.6588 137.495 76.7405L136.468 76.9855C136.126 77.0672 135.778 77.0273 135.425 76.8659L134.366 76.3814C134.013 76.22 133.666 76.1982 133.325 76.3162L132.304 76.6703C131.963 76.7883 131.618 76.8067 131.269 76.7254L130.221 76.4815C129.872 76.4002 129.525 76.3616 129.179 76.3657L128.143 76.3781C127.798 76.3822 127.454 76.4489 127.113 76.5781L126.089 76.966C125.748 77.0952 125.402 77.094 125.053 76.9624L124.005 76.5674C123.655 76.4357 123.308 76.3884 122.964 76.4254L121.93 76.5365C121.586 76.5735 121.241 76.602 120.896 76.6219L119.861 76.6818C119.516 76.7018 119.172 76.7378 118.827 76.7899L117.793 76.9463C117.449 76.9985 117.104 77.0612 116.759 77.1345L115.724 77.3543C115.38 77.4276 115.034 77.4581 114.688 77.4458L113.65 77.4089C113.305 77.3967 112.959 77.3602 112.613 77.2996L111.576 77.1178C111.23 77.0572 110.885 76.9983 110.54 76.9412L109.505 76.7696C109.16 76.7125 108.814 76.7678 108.466 76.9357L107.423 77.4392C107.076 77.6071 106.729 77.6726 106.384 77.6357L105.347 77.5251C105.002 77.4882 104.658 77.4118 104.315 77.2957L103.286 76.9475C102.943 76.8314 102.598 76.7844 102.252 76.8065L101.213 76.8727C100.867 76.8948 100.522 76.8694 100.179 76.7964L99.1509 76.5777C98.808 76.5048 98.4631 76.4843 98.1161 76.5164L97.075 76.6127C96.728 76.6448 96.3811 76.669 96.0343 76.6854L94.9938 76.7344C94.647 76.7507 94.3044 76.6958 93.9661 76.5698L92.9511 76.1917C92.6128 76.0657 92.2656 76.0732 91.9096 76.2144L90.8415 76.6377C90.4854 76.7788 90.1411 76.759 89.8085 76.5783L88.8106 76.0362C88.4779 75.8555 88.1404 75.7451 87.7978 75.7049L86.7702 75.5843C86.4277 75.5441 86.0828 75.5281 85.7355 75.5364L84.6937 75.5612C84.3464 75.5695 83.9998 75.5674 83.654 75.5548L82.6164 75.5173C82.2706 75.5047 81.9257 75.4824 81.5818 75.4504L80.55 75.3542C80.206 75.3222 79.8681 75.2437 79.5362 75.1188L78.5405 74.744C78.2086 74.6191 77.8684 74.5586 77.52 74.5627L76.4748 74.5748C76.1263 74.5788 75.7835 74.5424 75.4461 74.4654L74.434 74.2347C74.0967 74.1578 73.7589 74.0855 73.4207 74.0179L72.4061 73.8151C72.068 73.7475 71.7157 73.7602 71.3495 73.8532L70.2508 74.1322C69.8845 74.2252 69.5269 74.2628 69.1779 74.245L68.1309 74.1916C67.7819 74.1738 67.4574 74.032 67.1573 73.7662L66.2571 72.9688C65.957 72.703 65.627 72.5873 65.2671 72.6217L64.1875 72.7249C63.8276 72.7593 63.4759 72.7519 63.1325 72.7026L62.1021 72.5547C61.7586 72.5054 61.4185 72.4411 61.0816 72.3617L60.0711 72.1237C59.7343 72.0443 59.3969 71.967 59.0589 71.8916L58.0449 71.6655C57.7069 71.5901 57.3818 71.4672 57.0697 71.2968L56.1334 70.7857C55.8213 70.6153 55.4911 70.5103 55.1428 70.4707L54.0982 70.3519C53.7499 70.3123 53.3984 70.2801 53.0435 70.2553L51.9788 70.1808C51.6239 70.1559 51.3083 70.0053 51.0321 69.7288L50.2033 68.8993C49.9271 68.6228 49.6095 68.4656 49.2505 68.4279L48.1736 68.3146C47.8147 68.2768 47.4626 68.2286 47.1173 68.1701L46.0815 67.9944C45.7362 67.9359 45.426 67.7907 45.1509 67.559L44.3254 66.8637C44.0502 66.632 43.7487 66.4511 43.4208 66.321L42.4371 65.9306C42.1092 65.8005 41.7801 65.6839 41.4499 65.5807L40.4594 65.2711C40.1292 65.1679 39.8178 65.0287 39.5254 64.8533L38.648 64.3271C38.3555 64.1517 38.0447 64.0015 37.7155 63.8766L36.728 63.502C36.3989 63.3771 36.0741 63.252 35.7537 63.1266L34.7924 62.7506C34.472 62.6252 34.156 62.4957 33.8444 62.362L32.9095 61.9609C32.5979 61.8272 32.2462 61.7632 31.8543 61.7689L30.6788 61.786C30.2869 61.7917 29.9633 61.6659 29.7078 61.4085L28.9415 60.6364C28.6861 60.379 28.3797 60.2181 28.0223 60.1537L26.9502 59.9604C26.5928 59.896 26.2829 59.7404 26.0206 59.4937L25.2335 58.7534C24.9711 58.5066 24.6677 58.341 24.3233 58.2567L23.29 58.0038C22.9455 57.9194 22.647 57.7452 22.3945 57.4811L21.6368 56.6888C21.3843 56.4247 21.1351 56.1706 20.8894 55.9264L20.1523 55.1939C19.9066 54.9498 19.609 54.7735 19.2597 54.6652L18.2116 54.3402C17.8622 54.2319 17.542 54.0879 17.251 53.9082L16.3781 53.3692C16.0871 53.1896 15.8075 52.9856 15.5395 52.7573L14.7352 52.0724C14.4671 51.8441 14.2039 51.6191 13.9455 51.3973L13.1703 50.7321C12.9119 50.5103 12.6418 50.2932 12.3599 50.0807L11.5141 49.4432C11.2321 49.2307 11.0187 48.9535 10.8739 48.6116L10.4392 47.586C10.2944 47.2442 10.062 46.9875 9.74223 46.8162L8.78288 46.3021C8.4631 46.1307 8.16989 45.9305 7.90328 45.7015L7.10343 45.0143C6.83681 44.7853 6.58132 44.5463 6.33697 44.2974L5.60389 43.5506C5.35953 43.3017 5.13675 43.0312 4.93554 42.739L4.33194 41.8625C4.13074 41.5703 3.95509 41.2643 3.805 40.9444L3.35472 39.9848C3.20463 39.6649 3.05264 39.3481 2.89876 39.0342L2.43713 38.0926C2.28325 37.7788 2.12983 37.4636 1.97686 37.147L1.51797 36.1974C1.365 35.8808 1.3231 35.5308 1.39225 35.1474L1.5997 33.9971C1.66885 33.6137 1.61609 33.2646 1.44143 32.9499L0.917438 32.0058C0.742774 31.6911 0.655778 31.3596 0.656451 31.0113L0.658468 29.9664C0.65914 29.6181 0.696927 29.273 0.771828 28.931L0.996532 27.9049C1.07143 27.5629 1.04908 27.2158 0.929482 26.8634L0.570679 25.8065C0.451078 25.4541 0.483266 25.1183 0.667243 24.799L1.21917 23.8412C1.40315 23.5219 1.50857 23.19 1.53544 22.8456L1.61604 21.8122C1.6429 21.4677 1.64944 21.1099 1.63564 20.7388L1.59425 19.6256C1.58045 19.2546 1.65594 18.9129 1.82071 18.6006L2.315 17.6636C2.47977 17.3513 2.67913 17.0593 2.91309 16.7875L3.61497 15.9724C3.84893 15.7006 4.06006 15.4207 4.24836 15.1325L4.81328 14.2681C5.00158 13.9799 5.143 13.66 5.23755 13.3085L5.52118 12.2538C5.61572 11.9023 5.76837 11.5873 5.97912 11.3089L6.61138 10.4738C6.82213 10.1954 7.09023 9.96568 7.41567 9.78462L8.39198 9.24145C8.71741 9.06039 8.95506 8.80589 9.1049 8.47794L9.55444 7.4941C9.70429 7.16615 9.89202 6.86953 10.1176 6.60424L10.7945 5.80837C11.0202 5.54309 11.2996 5.33559 11.6328 5.1859L12.6325 4.73681C12.9657 4.58712 13.2154 4.34391 13.3814 4.0072L13.8797 2.99705C14.0458 2.66034 14.2623 2.37936 14.5293 2.1541L15.33 1.47834C15.597 1.25309 15.8782 1.07778 16.1737 0.952407L17.0603 0.576294C17.3558 0.450923 17.353 0.480065 17.0519 0.66372L16.1487 1.21468C15.8476 1.39834 15.5953 1.63722 15.3918 1.93134L14.7813 2.81369C14.5777 3.10781 14.3376 3.3574 14.0609 3.56247L13.2306 4.17766C12.9538 4.38273 12.7106 4.62637 12.5009 4.90858L11.8719 5.7552C11.6622 6.0374 11.3978 6.26646 11.0787 6.44237L10.1212 6.9701C9.80204 7.14601 9.52762 7.36472 9.29794 7.62624L8.6089 8.41081C8.37922 8.67233 8.14973 8.93458 7.92041 9.19755L7.23245 9.98646C7.00313 10.2494 6.84909 10.5647 6.77034 10.9323L6.53408 12.035C6.45532 12.4025 6.30565 12.721 6.08505 12.9905L5.42324 13.7989C5.20264 14.0684 4.98001 14.3418 4.75535 14.6192L4.08136 15.4515C3.85669 15.7289 3.72001 16.0455 3.67131 16.4011L3.52519 17.4681C3.47649 17.8237 3.39699 18.165 3.28669 18.4919L2.95579 19.4727C2.84548 19.7996 2.79916 20.138 2.8168 20.488L2.86974 21.5378C2.88739 21.8878 2.87008 22.2301 2.8178 22.5649L2.66097 23.5693C2.60869 23.9041 2.55551 24.2446 2.50143 24.5908L2.33918 25.6293C2.2851 25.9755 2.32652 26.311 2.46344 26.6359L2.87421 27.6107C3.01113 27.9356 3.06515 28.2816 3.03627 28.6486L2.94963 29.7496C2.92075 30.1166 2.98502 30.4573 3.14243 30.7717L3.61467 31.7148C3.77208 32.0292 3.96146 32.3236 4.18281 32.5979L4.84685 33.4208C5.0682 33.6952 5.29624 33.9592 5.53097 34.2128L6.23517 34.9739C6.46991 35.2275 6.67096 35.5034 6.83833 35.8014L7.34044 36.6954C7.50781 36.9934 7.67655 37.2952 7.84665 37.6009L8.35696 38.5179C8.52707 38.8236 8.7283 39.105 8.96066 39.3621L9.65774 40.1333C9.8901 40.3903 10.1021 40.6717 10.2939 40.9773L10.8691 41.8942C11.0608 42.1998 11.3061 42.4456 11.605 42.6317L12.5017 43.1898C12.8006 43.3759 13.1156 43.5379 13.4467 43.6758L14.4399 44.0897C14.771 44.2276 15.0426 44.4436 15.2548 44.7376L15.8915 45.6197C16.1037 45.9137 16.3358 46.1844 16.5878 46.4316L17.3438 47.1734C17.5958 47.4207 17.8821 47.6153 18.2028 47.7573L19.1646 48.1834C19.4853 48.3255 19.8169 48.4507 20.1594 48.559L21.1872 48.8841C21.5297 48.9925 21.8603 49.1142 22.1788 49.2491L23.1344 49.654C23.4529 49.789 23.7533 49.9561 24.0355 50.1555L24.8821 50.7536C25.1643 50.953 25.4543 51.141 25.7522 51.3176L26.6458 51.8473C26.9436 52.0239 27.2222 52.2353 27.4814 52.4814L28.2591 53.2199C28.5183 53.4661 28.8095 53.6566 29.1326 53.7915L30.1018 54.1961C30.4249 54.331 30.7245 54.5073 31.0008 54.725L31.8296 55.3781C32.1059 55.5958 32.437 55.7038 32.823 55.7023L33.9811 55.6977C34.3672 55.6962 34.7223 55.7504 35.0465 55.8605L36.0192 56.1907C36.3435 56.3008 36.6638 56.4283 36.9802 56.5732L37.9295 57.008C38.246 57.153 38.5552 57.3068 38.8572 57.4694L39.7632 57.9573C40.0652 58.12 40.3677 58.2905 40.6707 58.4691L41.5796 59.0046C41.8826 59.1832 42.1919 59.3401 42.5075 59.4756L43.4544 59.8818C43.77 60.0173 44.0841 60.162 44.3967 60.3161L45.3345 60.7784C45.6471 60.9326 45.9759 61.0447 46.3208 61.115L47.3555 61.3258C47.7004 61.3961 48.0485 61.4497 48.3998 61.4868L49.4536 61.5978C49.8049 61.6349 50.1383 61.7254 50.4539 61.8693L51.4008 62.3013C51.7164 62.4453 52.0435 62.5512 52.382 62.619L53.3976 62.8224C53.7362 62.8902 54.0682 62.9819 54.3937 63.0975L55.3702 63.4442C55.6957 63.5598 56.0291 63.6445 56.3704 63.6984L57.3943 63.8599C57.7356 63.9137 58.0673 64.0117 58.3893 64.1536L59.3555 64.5796C59.6776 64.7216 60.0162 64.7837 60.3715 64.7659L61.4374 64.7126C61.7927 64.6948 62.1234 64.8102 62.4294 65.059L63.3475 65.8053C63.6536 66.054 63.9892 66.1342 64.3545 66.0458L65.4501 65.7806C65.8154 65.6922 66.1678 65.6787 66.5076 65.74L67.5267 65.9241C67.8664 65.9854 68.2105 66.0136 68.559 66.0088L69.6043 65.9941C69.9527 65.9892 70.2909 66.0702 70.6188 66.2372L71.6026 66.738C71.9305 66.905 72.2739 66.9333 72.6326 66.8231L73.7087 66.4924C74.0674 66.3822 74.4142 66.3902 74.7489 66.5163L75.7533 66.8947C76.0881 67.0209 76.4244 67.1421 76.7622 67.2583L77.7755 67.6071C78.1133 67.7233 78.4572 67.7577 78.8072 67.7104L79.8572 67.5682C80.2072 67.5209 80.5525 67.553 80.893 67.6646L81.9147 67.9994C82.2553 68.111 82.6003 68.1388 82.9497 68.0827L83.9978 67.9144C84.3472 67.8583 84.6935 67.8752 85.0366 67.9649L86.066 68.2341C86.4091 68.3238 86.7547 68.3349 87.1026 68.2674L88.1465 68.0649C88.4944 67.9974 88.8408 67.9999 89.1855 68.0724L90.2198 68.29C90.5645 68.3625 90.9103 68.3952 91.257 68.388L92.2973 68.3667C92.6441 68.3596 92.9907 68.3112 93.337 68.2215L94.3761 67.9525C94.7224 67.8628 95.0686 67.8457 95.4146 67.9011L96.4527 68.0673C96.7987 68.1228 97.1442 68.1197 97.489 68.0582L98.5236 67.8737C98.8685 67.8121 99.2136 67.7844 99.559 67.7904L100.595 67.8084C100.94 67.8144 101.287 67.8624 101.635 67.9524L102.678 68.2223C103.026 68.3123 103.372 68.3189 103.717 68.2423L104.749 68.0122C105.094 67.9356 105.437 67.845 105.78 67.7404L106.807 67.4268C107.15 67.3223 107.497 67.3387 107.848 67.476L108.902 67.888C109.253 68.0253 109.599 68.0199 109.939 67.8717L110.959 67.4273C111.299 67.2791 111.644 67.2602 111.995 67.3705L113.047 67.7016C113.398 67.8119 113.746 67.8594 114.091 67.8439L115.127 67.7976C115.472 67.7822 115.814 67.7142 116.154 67.5935L117.174 67.2315C117.514 67.1109 117.859 67.1045 118.21 67.2123L119.261 67.5357C119.611 67.6435 119.958 67.6556 120.301 67.5719L121.332 67.3209C121.676 67.2372 122.015 67.1222 122.35 66.976L123.356 66.5372C123.691 66.391 124.036 66.3877 124.391 66.5275L125.457 66.9467C125.812 67.0865 126.164 67.1635 126.511 67.1777L127.554 67.2206C127.902 67.2349 128.25 67.2261 128.598 67.1942L129.642 67.0986C129.99 67.0668 130.323 66.9268 130.639 66.6788L131.589 65.9347C131.906 65.6866 132.24 65.5766 132.593 65.6045L133.65 65.6884C134.002 65.7164 134.343 65.6687 134.672 65.5453L135.661 65.1752C135.991 65.0519 136.335 65.0194 136.695 65.0778L137.775 65.2529C138.135 65.3113 138.473 65.2464 138.79 65.0584L139.74 64.4941C140.056 64.306 140.385 64.1852 140.724 64.1317L141.744 63.971C142.084 63.9174 142.439 63.9307 142.81 64.0109L143.923 64.2515C144.294 64.3316 144.635 64.2768 144.946 64.087L145.879 63.5176C146.19 63.3278 146.508 63.1695 146.833 63.0427L147.81 62.6622C148.135 62.5354 148.49 62.5335 148.876 62.6564L150.032 63.0254C150.417 63.1484 150.774 63.1533 151.104 63.0402L152.092 62.7008C152.422 62.5877 152.737 62.4262 153.039 62.2163L153.943 61.5866C154.245 61.3767 154.573 61.2667 154.93 61.2567L155.998 61.2267C156.354 61.2166 156.701 61.1733 157.039 61.0965L158.051 60.8664C158.389 60.7896 158.708 60.6485 159.008 60.443L159.909 59.8264C160.21 59.6208 160.527 59.4766 160.863 59.3935L161.869 59.1445C162.205 59.0614 162.551 59.0108 162.907 58.9926L163.975 58.9379C164.331 58.9196 164.654 58.7956 164.944 58.5657L165.814 57.876C166.103 57.6461 166.432 57.539 166.801 57.5548L167.905 57.6022C168.273 57.618 168.618 57.5628 168.941 57.4366L169.91 57.058C170.233 56.9318 170.564 56.8296 170.902 56.7513L171.917 56.5164C172.255 56.4381 172.582 56.3258 172.898 56.1795L173.846 55.7405C174.162 55.5941 174.484 55.466 174.811 55.3562L175.793 55.0266C176.121 54.9167 176.437 54.7729 176.741 54.5953L177.653 54.0625C177.958 53.8849 178.286 53.7762 178.639 53.7364L179.697 53.617C180.05 53.5772 180.392 53.5043 180.722 53.3983L181.715 53.0803C182.045 52.9742 182.374 52.8644 182.7 52.7508L183.677 52.4099C184.003 52.2963 184.306 52.1217 184.587 51.8862L185.43 51.1796C185.712 50.9441 186.037 50.8261 186.406 50.8256L187.515 50.8242C187.885 50.8237 188.218 50.7263 188.515 50.5318L189.406 49.9485C189.703 49.754 190.005 49.5794 190.313 49.4247L191.238 48.9603C191.546 48.8055 191.877 48.7003 192.231 48.6447L193.291 48.4779C193.645 48.4223 193.962 48.2848 194.244 48.0654L195.089 47.4071C195.371 47.1876 195.687 47.0482 196.039 46.9888L197.094 46.8106C197.445 46.7512 197.748 46.5801 198.002 46.2974L198.764 45.4492C199.018 45.1665 199.314 44.982 199.651 44.8957L200.663 44.6366C201 44.5503 201.321 44.4218 201.626 44.2512L202.54 43.7395C202.844 43.5689 203.178 43.4645 203.54 43.4265L204.626 43.3122C204.988 43.2741 205.334 43.1985 205.663 43.0852L206.65 42.7454C206.979 42.6322 207.29 42.4788 207.584 42.2852L208.464 41.7045C208.758 41.5109 209.045 41.309 209.326 41.0989L210.17 40.4683C210.451 40.2582 210.737 40.0611 211.028 39.8772L211.9 39.3253C212.19 39.1413 212.479 38.9519 212.766 38.7571L213.628 38.1726C213.915 37.9777 214.216 37.8085 214.532 37.665L215.479 37.2342C215.794 37.0906 216.125 36.9718 216.471 36.8778L217.508 36.5957C217.853 36.5017 218.173 36.3607 218.465 36.1728L219.343 35.6089C219.636 35.421 219.897 35.1899 220.125 34.9157L220.81 34.0932C221.039 33.819 221.314 33.6397 221.637 33.5551L222.605 33.3014C222.927 33.2169 223.221 33.0347 223.486 32.755L224.281 31.9157C224.546 31.636 224.854 31.4702 225.203 31.4184L226.251 31.263C226.6 31.2112 226.926 31.0966 227.229 30.919L228.137 30.3863C228.44 30.2088 228.772 30.1092 229.132 30.0876L230.213 30.0229C230.574 30.0013 230.905 29.9017 231.208 29.724L232.116 29.1908C232.419 29.013 232.741 28.8876 233.082 28.8145L234.106 28.5951C234.448 28.522 234.77 28.3972 235.073 28.2209L235.983 27.6918C236.286 27.5154 236.605 27.3817 236.94 27.2907L237.944 27.0176C238.279 26.9266 238.612 26.8297 238.942 26.727L239.934 26.4188C240.264 26.316 240.585 26.1866 240.895 26.0304L241.827 25.5618C242.138 25.4056 242.458 25.2737 242.786 25.1661L243.772 24.8434C244.101 24.7358 244.425 24.617 244.746 24.487L245.707 24.0969C246.027 23.9669 246.369 23.8938 246.731 23.8775L247.818 23.8288C248.181 23.8126 248.528 23.757 248.862 23.662L249.862 23.3771C250.195 23.2822 250.5 23.1112 250.777 22.8642L251.609 22.1232C251.886 21.8761 252.182 21.6792 252.496 21.5323L253.438 21.0918C253.752 20.9449 254.073 20.8169 254.401 20.7078L255.386 20.3804C255.714 20.2712 256.215 20.1423 256.89 19.9936L257.902 19.7706L257.921 19.7636L257.941 19.7659M257.941 19.7659L258.091 19.9081C258.191 20.0028 258.265 20.0362 258.313 20.008L258.456 19.9237C258.504 19.8956 258.548 19.8726 258.589 19.8548L258.71 19.8015C258.751 19.7838 258.767 19.7815 258.758 19.7948L258.745 19.8146L258.699 19.8521M257.941 19.7659L258.104 19.7134C258.212 19.6785 258.279 19.6875 258.305 19.7406L258.383 19.8998C258.409 19.9528 258.465 19.9407 258.552 19.8633L258.811 19.6313C258.898 19.554 258.923 19.5436 258.886 19.6001L258.83 19.6848L258.699 19.8521M258.699 19.8521L258.719 19.8544L258.736 19.8654L259.513 20.5519C260.031 21.0097 260.429 21.3419 260.707 21.5487L261.54 22.1691C261.818 22.3759 262.149 22.5015 262.533 22.5458L263.685 22.6789C264.069 22.7233 264.365 22.9029 264.571 23.2179L265.192 24.1627C265.398 24.4776 265.672 24.6896 266.014 24.7987L267.039 25.126C267.381 25.2351 267.656 25.4466 267.863 25.7603L268.485 26.7017C268.693 27.0155 268.981 27.2065 269.349 27.2749L270.455 27.48C270.823 27.5484 271.127 27.7154 271.366 27.981L272.083 28.778C272.322 29.0436 272.576 29.2869 272.844 29.5077L273.649 30.1701C273.918 30.3909 274.241 30.5289 274.618 30.5838L275.749 30.7488C276.126 30.8038 276.459 30.9274 276.746 31.1196L277.607 31.6961C277.895 31.8883 278.166 32.1043 278.422 32.3441L279.19 33.0633C279.446 33.3031 279.744 33.4797 280.083 33.5931L281.099 33.9335C281.438 34.0469 281.701 34.2765 281.887 34.622L282.447 35.6588C282.634 36.0044 282.889 36.2463 283.211 36.3845L284.179 36.7991C284.502 36.9373 284.816 37.0877 285.123 37.2503L286.043 37.7383C286.349 37.901 286.627 38.1074 286.876 38.3575L287.624 39.108C287.873 39.3581 288.154 39.5602 288.466 39.7144L289.402 40.1768C289.714 40.331 289.994 40.5341 290.242 40.7862L290.986 41.5426C291.234 41.7947 291.524 41.9829 291.855 42.1071L292.849 42.4796C293.18 42.6038 293.477 42.7786 293.739 43.0038L294.526 43.6796C294.789 43.9049 294.848 44.0848 294.704 44.2193L294.272 44.6228C294.128 44.7573 293.883 44.8468 293.537 44.8911L292.499 45.024C292.154 45.0683 291.814 45.1322 291.479 45.2157L290.477 45.4664C290.143 45.55 289.806 45.6237 289.465 45.6875L288.444 45.8791C288.104 45.943 287.778 46.0671 287.467 46.2516L286.534 46.8049C286.223 46.9893 285.878 47.0308 285.498 46.9292L284.361 46.6246C283.981 46.523 283.643 46.5959 283.345 46.8432L282.452 47.5852C282.155 47.8325 281.835 47.984 281.492 48.0397L280.465 48.2066C280.123 48.2622 279.769 48.2674 279.403 48.2222L278.306 48.0864C277.941 48.0411 277.6 48.1017 277.284 48.268L276.336 48.7672C276.02 48.9336 275.693 49.056 275.357 49.1343L274.347 49.3695C274.011 49.4478 273.661 49.4703 273.298 49.4369L272.21 49.3365C271.848 49.3031 271.503 49.3462 271.176 49.4659L270.195 49.825C269.868 49.9447 269.542 50.0665 269.216 50.1904L268.238 50.5622C267.912 50.6861 267.589 50.8263 267.271 50.9827L266.315 51.4519C265.997 51.6083 265.668 51.7223 265.33 51.7938L264.315 52.0085C263.977 52.0801 263.624 52.0884 263.256 52.0336L262.152 51.8692C261.785 51.8144 261.437 51.8477 261.111 51.969L260.131 52.3331C259.804 52.4544 259.485 52.609 259.174 52.7968L258.24 53.3603C257.929 53.5481 257.599 53.6559 257.251 53.6836L256.206 53.7667C255.857 53.7944 255.503 53.7976 255.144 53.7761L254.065 53.7116C253.705 53.6901 253.366 53.7606 253.05 53.9233L252.099 54.4111C251.782 54.5737 251.452 54.6823 251.11 54.7368L250.084 54.9002C249.742 54.9547 249.4 55.0103 249.058 55.0671L248.033 55.2376C247.692 55.2944 247.346 55.3347 246.997 55.3585L245.948 55.4299C245.598 55.4537 245.256 55.5104 244.922 55.6001L243.918 55.8691C243.583 55.9588 243.306 56.0334 243.086 56.093L242.425 56.2718C242.205 56.3314 242.103 56.3957 242.119 56.4646L242.142 56.5679L242.209 56.7701L242.19 56.7746M242.19 56.7746L242.17 56.7791L242.118 56.7425C242.082 56.7182 242.054 56.6995 242.033 56.6866L241.97 56.6478C241.948 56.6349 241.935 56.6345 241.928 56.6467L241.909 56.6833C241.903 56.6955 241.903 56.7126 241.908 56.7347L241.915 56.7679L241.95 56.8297L241.93 56.8342M242.19 56.7746L242.109 56.4237C242.091 56.3458 242.095 56.3837 242.122 56.5376L242.2 56.9993C242.227 57.1532 242.224 57.2008 242.192 57.1419L242.097 56.9653C242.065 56.9065 242.03 56.8699 241.99 56.8556L241.93 56.8342M241.93 56.8342L241.917 56.8486L241.041 57.4313C240.457 57.8197 240.066 58.1585 239.868 58.4476L239.275 59.3149C239.077 59.604 238.847 59.8621 238.584 60.0891L237.797 60.7702C237.534 60.9972 237.335 61.2853 237.2 61.6343L236.795 62.6814C236.66 63.0305 236.45 63.3084 236.166 63.5151L235.315 64.1352C235.031 64.3419 234.77 64.5701 234.531 64.8198L233.814 65.5689C233.575 65.8186 233.317 66.0496 233.039 66.2619L232.205 66.8988C231.927 67.1112 231.68 67.353 231.464 67.6244L230.815 68.4387C230.599 68.7101 230.398 68.9958 230.212 69.2959L229.653 70.1961C229.467 70.4961 229.252 70.7692 229.009 71.0152L228.281 71.7531C228.038 71.9991 227.785 72.2349 227.521 72.4604L226.728 73.1369C226.464 73.3624 226.23 73.6167 226.026 73.8997L225.414 74.7486C225.209 75.0316 224.987 75.2973 224.747 75.5458L224.027 76.2914C223.787 76.5399 223.551 76.7926 223.32 77.0494L222.625 77.8199C222.394 78.0767 222.123 78.2964 221.814 78.4788L220.887 79.026C220.577 79.2084 220.338 79.458 220.17 79.7748L219.663 80.7251C219.495 81.0419 219.268 81.3038 218.985 81.5109L218.135 82.1321C217.851 82.3391 217.587 82.5643 217.341 82.8076L216.604 83.5375C216.359 83.7808 216.145 84.0545 215.963 84.3586L215.417 85.2711C215.235 85.5753 215.022 85.8498 214.778 86.0945L214.046 86.8287C213.802 87.0735 213.546 87.3067 213.278 87.5284L212.473 88.1934C212.205 88.4151 211.954 88.6532 211.72 88.9078L211.019 89.6716C210.785 89.9261 210.543 90.1731 210.294 90.4125L209.545 91.1306C209.295 91.3699 209.001 91.5674 208.664 91.7231L207.653 92.1902C207.316 92.3459 207.027 92.5481 206.788 92.7968L206.068 93.5431C205.828 93.7919 205.582 94.0348 205.33 94.2719L204.574 94.9833C204.322 95.2204 204.103 95.4889 203.916 95.7889L203.357 96.6888C203.171 96.9888 202.956 97.2616 202.713 97.5071L201.983 98.2438C201.74 98.4894 201.487 98.7255 201.224 98.9521L200.435 99.6319C200.172 99.8584 200.034 100.031 200.021 100.149L200.002 100.326L199.978 100.665L199.964 100.68L199.945 100.685M199.945 100.685L199.844 100.901C199.776 101.045 199.705 101.066 199.632 100.963L199.411 100.654C199.337 100.551 199.292 100.5 199.277 100.499L199.229 100.496C199.214 100.496 199.196 100.531 199.177 100.603L199.149 100.71L199.111 100.92M199.945 100.685L199.581 100.616C199.339 100.571 199.227 100.571 199.247 100.618L199.306 100.759C199.325 100.805 199.307 100.868 199.25 100.945L199.079 101.179C199.022 101.257 199.002 101.265 199.018 101.203L199.043 101.11L199.111 100.92M199.111 100.92L199.092 100.925L199.073 100.92L198.019 100.888C197.317 100.866 196.819 100.734 196.525 100.493L195.645 99.7681C195.351 99.5265 195.084 99.424 194.842 99.4606L194.118 99.5705C193.877 99.6071 193.759 99.6166 193.763 99.5992L193.77 99.5731L193.803 99.526L193.784 99.5209L193.775 99.5029M193.775 99.5029L193.724 99.2035C193.69 99.0038 193.622 98.8786 193.518 98.8278L193.208 98.6754C193.105 98.6246 193.087 98.5841 193.153 98.5539L193.352 98.4633C193.418 98.4331 193.43 98.4087 193.387 98.3902L193.322 98.3624L193.202 98.3248M193.775 99.5029L193.355 99.5004C193.075 99.4988 192.981 99.4469 193.074 99.3449L193.353 99.0388C193.446 98.9368 193.464 98.8359 193.407 98.7362L193.234 98.437C193.176 98.3373 193.151 98.289 193.159 98.2923L193.17 98.2971L193.202 98.3248" stroke="#335270" stroke-linecap="round"/>
<path d="M195.018 39.1994L219.802 31.1051C220.267 30.9534 220.184 30.2724 219.696 30.2366L177.886 27.1667C177.427 27.133 177.224 27.732 177.609 27.9843L194.635 39.1485C194.748 39.2227 194.889 39.2415 195.018 39.1994Z" fill="#335270"/>
<path d="M218.667 31.6685L218.171 30.67L218.667 31.6685ZM217.179 32.4991L217.738 33.4636L217.179 32.4991ZM215.936 32.7328L215.961 33.8472L215.936 32.7328ZM215.5 32.7425L215.475 31.628L215.5 32.7425ZM214.693 32.9649L215.248 33.9315L214.693 32.9649ZM214.323 33.1777L213.767 32.2112L214.323 33.1777ZM213.145 33.6132L213.171 34.7276L213.145 33.6132ZM212.709 33.6232L212.734 34.7376L212.709 33.6232ZM212.273 33.6331L212.247 32.5187L212.273 33.6331ZM211.392 33.6316L211.364 34.7459L211.392 33.6316ZM210.505 33.6085L210.534 32.4942L210.505 33.6085ZM209.692 33.8094L210.246 34.7764L209.692 33.8094ZM209.321 34.0218L208.767 33.0547L209.321 34.0218ZM208.951 34.2342L209.505 35.2012L208.951 34.2342ZM208.222 34.6952L207.587 33.7792L208.222 34.6952ZM207.863 34.9439L208.499 35.8599L207.863 34.9439ZM207.505 35.1925L208.14 36.1085L207.505 35.1925ZM206.73 35.5133L206.92 36.6116L206.73 35.5133ZM205.898 35.6574L205.707 34.5591L205.898 35.6574ZM205.043 35.7344L205.056 36.8491L205.043 35.7344ZM204.605 35.7393L204.617 36.854L204.605 35.7393ZM204.167 35.7442L204.154 34.6295L204.167 35.7442ZM203.35 35.9373L202.854 34.9393L203.35 35.9373ZM202.972 36.1255L203.469 37.1235L202.972 36.1255ZM201.819 36.6342L201.466 35.5769L201.819 36.6342ZM201.026 36.8989L200.673 35.8415L201.026 36.8989ZM200.214 37.1055L200.018 36.0081L200.214 37.1055ZM199.798 37.1797L199.994 38.2771L199.798 37.1797ZM199.383 37.2539L199.579 38.3513L199.383 37.2539ZM198.273 37.8933L197.569 37.0285L198.273 37.8933ZM197.925 38.1759L198.628 39.0407L197.925 38.1759ZM197.129 38.4325L197.065 39.5453L197.129 38.4325ZM196.233 38.3805L196.168 39.4933L196.233 38.3805ZM195.42 38.5423L195.931 39.5332L195.42 38.5423ZM194.691 38.9179L194.18 37.927L194.691 38.9179ZM193.974 38.8814L194.572 37.9407L193.974 38.8814ZM193.268 38.4329L192.67 39.3736L193.268 38.4329ZM192.651 37.8499L193.548 37.188L192.651 37.8499ZM192.121 37.1325L191.224 37.7944L192.121 37.1325ZM191.477 36.5899L191.964 35.5869L191.477 36.5899ZM190.719 36.2219L190.232 37.2248L190.719 36.2219ZM189.96 35.8539L190.447 34.851L189.96 35.8539ZM189.202 35.4858L189.689 34.483L189.202 35.4858ZM188.392 35.1967L188.128 36.2797L188.392 35.1967ZM187.961 35.0916L188.225 34.0086L187.961 35.0916ZM187.53 34.9864L187.266 36.0694L187.53 34.9864ZM186.832 34.5264L187.722 33.856V33.856L186.832 34.5264ZM186.298 33.8165L185.407 34.4869V34.4869L186.298 33.8165ZM185.611 33.3394L185.299 34.4098L185.611 33.3394ZM184.771 33.0951L185.083 32.0248L184.771 33.0951ZM182.711 31.6629L183.059 30.6038L182.711 31.6629ZM181.888 31.3929L181.541 32.4521L181.888 31.3929ZM181.293 30.7767L182.333 30.3779L181.293 30.7767ZM181.108 30.2956L182.149 29.8967L181.108 30.2956ZM180.924 29.8144L179.883 30.2132L180.924 29.8144ZM180.379 29.1204L180.946 28.1605L180.379 29.1204ZM179.658 28.6949L179.092 29.6548L179.658 28.6949ZM178.797 28.4837L178.794 27.3689L178.797 28.4837ZM177.55 28.3333L176.972 27.3803L177.55 28.3333ZM177.805 28.1782L177.227 27.2252L177.805 28.1782ZM178.061 28.0231L178.639 28.976L178.061 28.0231ZM178.758 27.5664L178.129 26.6461L178.758 27.5664ZM179.64 26.9633L180.269 27.8836L179.64 26.9633ZM180.474 27.0208L179.722 27.8435L180.474 27.0208ZM180.867 27.3798L181.619 26.5571L180.867 27.3798ZM181.26 27.7389L180.508 28.5617L181.26 27.7389ZM182.08 27.9899L181.807 26.9092L182.08 27.9899ZM182.507 27.8819L182.78 28.9626L182.507 27.8819ZM182.934 27.7738L183.207 28.8545L182.934 27.7738ZM183.778 27.7006L183.685 28.8114L183.778 27.7006ZM184.194 27.7353L184.102 28.8462L184.194 27.7353ZM184.611 27.7701L184.704 26.6593L184.611 27.7701ZM185.443 27.8508L185.321 28.9588L185.443 27.8508ZM186.275 27.9425L186.397 26.8345L186.275 27.9425ZM187.121 27.829L187.508 28.8746L187.121 27.829ZM187.552 27.6697L187.166 26.6242L187.552 27.6697ZM187.983 27.5104L188.37 28.5559L187.983 27.5104ZM188.821 27.5184L188.397 28.5493L188.821 27.5184ZM189.635 27.8531L190.059 26.8222L189.635 27.8531ZM190.456 28.0785L190.302 29.1825L190.456 28.0785ZM191.286 28.1947L191.441 27.0907L191.286 28.1947ZM192.945 28.4343L193.106 27.3312L192.945 28.4343ZM193.785 28.4073L193.561 27.3154L193.785 28.4073ZM194.637 28.2323L194.861 29.3242L194.637 28.2323ZM195.482 28.1291L195.441 27.0152L195.482 28.1291ZM195.903 28.1134L195.944 29.2274L195.903 28.1134ZM196.323 28.0977L196.281 26.9838L196.323 28.0977ZM197.155 28.1854L196.883 29.2665L197.155 28.1854ZM197.978 28.392L198.249 27.3109L197.978 28.392ZM198.8 28.6149L199.112 27.5446L198.8 28.6149ZM199.621 28.8538L199.309 29.9241L199.621 28.8538ZM200.447 29.0123L200.344 30.1222L200.447 29.0123ZM200.864 29.0512L200.968 27.9413L200.864 29.0512ZM201.28 29.0902L201.176 30.2001L201.28 29.0902ZM202.123 29.0283L202.379 30.1132L202.123 29.0283ZM202.549 28.9275L202.293 27.8427L202.549 28.9275ZM203.812 28.8563L203.474 29.9185L203.812 28.8563ZM204.222 28.9868L204.56 27.9246L204.222 28.9868ZM204.631 29.1172L204.969 28.0551L204.631 29.1172ZM205.469 29.1266L205.165 28.054L205.469 29.1266ZM205.897 29.0055L205.593 27.9329L205.897 29.0055ZM206.325 28.8845L206.628 29.9571L206.325 28.8845ZM207.154 29.0048L206.58 29.9601L207.154 29.0048ZM207.957 29.4877L208.532 28.5324L207.957 29.4877ZM208.77 29.8387L208.483 30.9158L208.77 29.8387ZM209.181 29.9482L209.468 28.871L209.181 29.9482ZM209.592 30.0577L209.305 31.1349L209.592 30.0577ZM211.261 30.1602L211.267 31.2749L211.261 30.1602ZM212.111 30.006L212.482 31.0572L212.111 30.006ZM212.541 29.8541L212.17 28.8029L212.541 29.8541ZM212.971 29.7022L213.342 30.7534L212.971 29.7022ZM213.826 29.4832L213.651 28.3822L213.826 29.4832ZM214.674 29.349L214.848 30.45L214.674 29.349ZM216.335 29.5606L216.09 30.648L216.335 29.5606ZM217.148 29.9047L216.556 30.8492L217.148 29.9047ZM217.949 30.4071L218.541 29.4627L217.949 30.4071ZM219.681 30.6308L218.902 31.4279L219.681 30.6308ZM219.664 30.6147L220.444 29.8175L219.664 30.6147ZM219.648 30.5986L218.869 31.3957L219.648 30.5986ZM219.674 30.7131L220.734 30.3671L219.674 30.7131ZM219.76 30.9745L218.7 31.3205L219.76 30.9745ZM219.424 31.2929L219.919 32.2915L219.424 31.2929ZM219.045 31.4807L219.541 32.4793L219.162 32.667L218.667 31.6685L218.171 30.67L218.55 30.4822L219.045 31.4807ZM218.667 31.6685L219.162 32.667C218.932 32.7815 218.704 32.9041 218.478 33.0351L217.919 32.0706L217.36 31.1061C217.627 30.9513 217.897 30.806 218.171 30.67L218.667 31.6685ZM217.919 32.0706L218.478 33.0351L218.108 33.2493L217.549 32.2848L216.99 31.3203L217.36 31.1061L217.919 32.0706ZM217.549 32.2848L218.108 33.2493L217.738 33.4636L217.179 32.4991L216.62 31.5346L216.99 31.3203L217.549 32.2848ZM217.179 32.4991L217.738 33.4636C217.325 33.7028 216.872 33.827 216.398 33.8375L216.373 32.7231L216.348 31.6086C216.456 31.6062 216.54 31.5811 216.62 31.5346L217.179 32.4991ZM216.373 32.7231L216.398 33.8375L215.961 33.8472L215.936 32.7328L215.911 31.6183L216.348 31.6086L216.373 32.7231ZM215.936 32.7328L215.961 33.8472L215.524 33.8569L215.5 32.7425L215.475 31.628L215.911 31.6183L215.936 32.7328ZM215.5 32.7425L215.524 33.8569C215.415 33.8593 215.33 33.8847 215.248 33.9315L214.693 32.9649L214.137 31.9984C214.55 31.7615 215.002 31.6385 215.475 31.628L215.5 32.7425ZM214.693 32.9649L215.248 33.9315L214.878 34.1442L214.323 33.1777L213.767 32.2112L214.137 31.9984L214.693 32.9649ZM214.323 33.1777L214.878 34.1442L214.508 34.357L213.952 33.3905L213.397 32.4239L213.767 32.2112L214.323 33.1777ZM213.952 33.3905L214.508 34.357C214.096 34.5938 213.644 34.7168 213.171 34.7276L213.145 33.6132L213.12 32.4988C213.229 32.4963 213.315 32.4708 213.397 32.4239L213.952 33.3905ZM213.145 33.6132L213.171 34.7276L212.734 34.7376L212.709 33.6232L212.684 32.5087L213.12 32.4988L213.145 33.6132ZM212.709 33.6232L212.734 34.7376L212.298 34.7476L212.273 33.6331L212.247 32.5187L212.684 32.5087L212.709 33.6232ZM212.273 33.6331L212.298 34.7476C211.989 34.7546 211.677 34.7541 211.364 34.7459L211.392 33.6316L211.421 32.5172C211.699 32.5245 211.974 32.5249 212.247 32.5187L212.273 33.6331ZM211.392 33.6316L211.364 34.7459L210.92 34.7344L210.949 33.6201L210.978 32.5057L211.421 32.5172L211.392 33.6316ZM210.949 33.6201L210.92 34.7344L210.477 34.7229L210.505 33.6085L210.534 32.4942L210.978 32.5057L210.949 33.6201ZM210.505 33.6085L210.477 34.7229C210.377 34.7203 210.309 34.7406 210.246 34.7764L209.692 33.8094L209.137 32.8424C209.568 32.595 210.043 32.4814 210.534 32.4942L210.505 33.6085ZM209.692 33.8094L210.246 34.7764L209.876 34.9888L209.321 34.0218L208.767 33.0547L209.137 32.8424L209.692 33.8094ZM209.321 34.0218L209.876 34.9888L209.505 35.2012L208.951 34.2342L208.396 33.2671L208.767 33.0547L209.321 34.0218ZM208.951 34.2342L209.505 35.2012C209.287 35.3266 209.071 35.4632 208.857 35.6112L208.222 34.6952L207.587 33.7792C207.851 33.5957 208.121 33.4249 208.396 33.2671L208.951 34.2342ZM208.222 34.6952L208.857 35.6112L208.499 35.8599L207.863 34.9439L207.228 34.0278L207.587 33.7792L208.222 34.6952ZM207.863 34.9439L208.499 35.8599L208.14 36.1085L207.505 35.1925L206.869 34.2765L207.228 34.0278L207.863 34.9439ZM207.505 35.1925L208.14 36.1085C207.772 36.3636 207.363 36.535 206.92 36.6116L206.73 35.5133L206.54 34.4149C206.652 34.3954 206.759 34.353 206.869 34.2765L207.505 35.1925ZM206.73 35.5133L206.92 36.6116L206.504 36.6837L206.314 35.5854L206.124 34.487L206.54 34.4149L206.73 35.5133ZM206.314 35.5854L206.504 36.6837L206.088 36.7558L205.898 35.6574L205.707 34.5591L206.124 34.487L206.314 35.5854ZM205.898 35.6574L206.088 36.7558C205.749 36.8144 205.405 36.8452 205.056 36.8491L205.043 35.7344L205.031 34.6198C205.265 34.6172 205.491 34.5966 205.707 34.5591L205.898 35.6574ZM205.043 35.7344L205.056 36.8491L204.617 36.854L204.605 35.7393L204.593 34.6247L205.031 34.6198L205.043 35.7344ZM204.605 35.7393L204.617 36.854L204.179 36.8589L204.167 35.7442L204.154 34.6295L204.593 34.6247L204.605 35.7393ZM204.167 35.7442L204.179 36.8589C204.049 36.8603 203.943 36.8875 203.847 36.9353L203.35 35.9373L202.854 34.9393C203.262 34.7361 203.701 34.6346 204.154 34.6295L204.167 35.7442ZM203.35 35.9373L203.847 36.9353L203.469 37.1235L202.972 36.1255L202.476 35.1275L202.854 34.9393L203.35 35.9373ZM202.972 36.1255L203.469 37.1235L203.09 37.3117L202.594 36.3137L202.097 35.3157L202.476 35.1275L202.972 36.1255ZM202.594 36.3137L203.09 37.3117C202.792 37.4601 202.486 37.5868 202.172 37.6916L201.819 36.6342L201.466 35.5769C201.681 35.5052 201.891 35.4183 202.097 35.3157L202.594 36.3137ZM201.819 36.6342L202.172 37.6916L201.775 37.824L201.423 36.7666L201.07 35.7092L201.466 35.5769L201.819 36.6342ZM201.423 36.7666L201.775 37.824L201.379 37.9563L201.026 36.8989L200.673 35.8415L201.07 35.7092L201.423 36.7666ZM201.026 36.8989L201.379 37.9563C201.063 38.0618 200.74 38.144 200.41 38.2028L200.214 37.1055L200.018 36.0081C200.242 35.968 200.461 35.9125 200.673 35.8415L201.026 36.8989ZM200.214 37.1055L200.41 38.2028L199.994 38.2771L199.798 37.1797L199.602 36.0823L200.018 36.0081L200.214 37.1055ZM199.798 37.1797L199.994 38.2771L199.579 38.3513L199.383 37.2539L199.187 36.1565L199.602 36.0823L199.798 37.1797ZM199.383 37.2539L199.579 38.3513C199.499 38.3655 199.418 38.3989 199.323 38.4755L198.62 37.6107L197.917 36.7459C198.286 36.4457 198.712 36.2413 199.187 36.1565L199.383 37.2539ZM198.62 37.6107L199.323 38.4755L198.976 38.7581L198.273 37.8933L197.569 37.0285L197.917 36.7459L198.62 37.6107ZM198.273 37.8933L198.976 38.7581L198.628 39.0407L197.925 38.1759L197.222 37.3111L197.569 37.0285L198.273 37.8933ZM197.925 38.1759L198.628 39.0407C198.18 39.4053 197.641 39.5788 197.065 39.5453L197.129 38.4325L197.194 37.3196C197.206 37.3203 197.212 37.3197 197.213 37.3195C197.215 37.3194 197.213 37.3195 197.21 37.3204C197.207 37.3213 197.206 37.3221 197.207 37.3217C197.208 37.3212 197.213 37.3184 197.222 37.3111L197.925 38.1759ZM197.129 38.4325L197.065 39.5453L196.617 39.5193L196.681 38.4065L196.746 37.2936L197.194 37.3196L197.129 38.4325ZM196.681 38.4065L196.617 39.5193L196.168 39.4933L196.233 38.3805L196.297 37.2676L196.746 37.2936L196.681 38.4065ZM196.233 38.3805L196.168 39.4933C196.049 39.4864 195.98 39.5079 195.931 39.5332L195.42 38.5423L194.91 37.5514C195.346 37.3262 195.819 37.2399 196.297 37.2676L196.233 38.3805ZM195.42 38.5423L195.931 39.5332L195.566 39.721L195.056 38.7301L194.545 37.7392L194.91 37.5514L195.42 38.5423ZM195.056 38.7301L195.566 39.721L195.202 39.9088L194.691 38.9179L194.18 37.927L194.545 37.7392L195.056 38.7301ZM194.691 38.9179L195.202 39.9088C194.598 40.2198 193.937 40.1791 193.376 39.8222L193.974 38.8814L194.572 37.9407C194.554 37.9292 194.488 37.8946 194.386 37.8894C194.283 37.8841 194.209 37.9124 194.18 37.927L194.691 38.9179ZM193.974 38.8814L193.376 39.8222L193.023 39.5979L193.621 38.6572L194.219 37.7164L194.572 37.9407L193.974 38.8814ZM193.621 38.6572L193.023 39.5979L192.67 39.3736L193.268 38.4329L193.866 37.4921L194.219 37.7164L193.621 38.6572ZM193.268 38.4329L192.67 39.3736C192.311 39.1456 192.006 38.8541 191.754 38.5118L192.651 37.8499L193.548 37.188C193.648 37.324 193.754 37.4211 193.866 37.4921L193.268 38.4329ZM192.651 37.8499L191.754 38.5118L191.489 38.1531L192.386 37.4912L193.283 36.8293L193.548 37.188L192.651 37.8499ZM192.386 37.4912L191.489 38.1531L191.224 37.7944L192.121 37.1325L193.018 36.4707L193.283 36.8293L192.386 37.4912ZM192.121 37.1325L191.224 37.7944C191.149 37.6919 191.072 37.6321 190.991 37.5928L191.477 36.5899L191.964 35.5869C192.388 35.7929 192.741 36.0949 193.018 36.4707L192.121 37.1325ZM191.477 36.5899L190.991 37.5928L190.611 37.4088L191.098 36.4059L191.585 35.403L191.964 35.5869L191.477 36.5899ZM191.098 36.4059L190.611 37.4088L190.232 37.2248L190.719 36.2219L191.205 35.219L191.585 35.403L191.098 36.4059ZM190.719 36.2219L190.232 37.2248C189.979 37.1021 189.727 36.9795 189.474 36.8568L189.96 35.8539L190.447 34.851C190.7 34.9737 190.953 35.0963 191.205 35.219L190.719 36.2219ZM189.96 35.8539L189.474 36.8568L189.095 36.6727L189.581 35.6699L190.068 34.667L190.447 34.851L189.96 35.8539ZM189.581 35.6699L189.095 36.6727L188.715 36.4887L189.202 35.4858L189.689 34.483L190.068 34.667L189.581 35.6699ZM189.202 35.4858L188.715 36.4887C188.537 36.4023 188.342 36.332 188.128 36.2797L188.392 35.1967L188.656 34.1137C189.016 34.2016 189.361 34.324 189.689 34.483L189.202 35.4858ZM188.392 35.1967L188.128 36.2797L187.697 36.1745L187.961 35.0916L188.225 34.0086L188.656 34.1137L188.392 35.1967ZM187.961 35.0916L187.697 36.1745L187.266 36.0694L187.53 34.9864L187.794 33.9035L188.225 34.0086L187.961 35.0916ZM187.53 34.9864L187.266 36.0694C186.728 35.9382 186.274 35.6388 185.941 35.1967L186.832 34.5264L187.722 33.856C187.74 33.8787 187.75 33.886 187.753 33.8881C187.757 33.8901 187.767 33.8969 187.794 33.9035L187.53 34.9864ZM186.832 34.5264L185.941 35.1967L185.674 34.8418L186.565 34.1714L187.455 33.5011L187.722 33.856L186.832 34.5264ZM186.565 34.1714L185.674 34.8418L185.407 34.4869L186.298 33.8165L187.188 33.1462L187.455 33.5011L186.565 34.1714ZM186.298 33.8165L185.407 34.4869C185.371 34.4393 185.344 34.4228 185.299 34.4098L185.611 33.3394L185.922 32.2691C186.437 32.419 186.868 32.7205 187.188 33.1462L186.298 33.8165ZM185.611 33.3394L185.299 34.4098L184.879 34.2876L185.191 33.2173L185.502 32.1469L185.922 32.2691L185.611 33.3394ZM185.191 33.2173L184.879 34.2876L184.46 34.1655L184.771 33.0951L185.083 32.0248L185.502 32.1469L185.191 33.2173ZM184.771 33.0951L184.46 34.1655C184.013 34.0354 183.612 33.8082 183.274 33.4849L184.044 32.6792L184.814 31.8735C184.886 31.9419 184.97 31.9919 185.083 32.0248L184.771 33.0951ZM184.044 32.6792L183.274 33.4849L182.966 33.1911L183.737 32.3854L184.507 31.5797L184.814 31.8735L184.044 32.6792ZM183.737 32.3854L182.966 33.1911L182.659 32.8974L183.43 32.0917L184.2 31.286L184.507 31.5797L183.737 32.3854ZM183.43 32.0917L182.659 32.8974C182.577 32.8187 182.483 32.7612 182.363 32.7221L182.711 31.6629L183.059 30.6038C183.488 30.7446 183.873 30.973 184.2 31.286L183.43 32.0917ZM182.711 31.6629L182.363 32.7221L181.952 32.5871L182.3 31.5279L182.647 30.4688L183.059 30.6038L182.711 31.6629ZM182.3 31.5279L181.952 32.5871L181.541 32.4521L181.888 31.3929L182.236 30.3338L182.647 30.4688L182.3 31.5279ZM181.888 31.3929L181.541 32.4521C180.886 32.2372 180.469 31.7434 180.252 31.1756L181.293 30.7767L182.333 30.3779C182.352 30.4259 182.359 30.4213 182.335 30.3966C182.323 30.3843 182.307 30.3707 182.287 30.3584C182.268 30.3461 182.25 30.3383 182.236 30.3338L181.888 31.3929ZM181.293 30.7767L180.252 31.1756L180.067 30.6944L181.108 30.2956L182.149 29.8967L182.333 30.3779L181.293 30.7767ZM181.108 30.2956L180.067 30.6944L179.883 30.2132L180.924 29.8144L181.965 29.4156L182.149 29.8967L181.108 30.2956ZM180.924 29.8144L179.883 30.2132C179.855 30.1399 179.83 30.1032 179.819 30.0886C179.809 30.076 179.807 30.077 179.812 30.0803L180.379 29.1204L180.946 28.1605C181.449 28.4579 181.773 28.9154 181.965 29.4156L180.924 29.8144ZM180.379 29.1204L179.812 30.0803L179.452 29.8675L180.019 28.9076L180.585 27.9478L180.946 28.1605L180.379 29.1204ZM180.019 28.9076L179.452 29.8675L179.092 29.6548L179.658 28.6949L180.225 27.735L180.585 27.9478L180.019 28.9076ZM179.658 28.6949L179.092 29.6548C179.055 29.6333 178.974 29.5978 178.801 29.5984L178.797 28.4837L178.794 27.3689C179.288 27.3674 179.781 27.4727 180.225 27.735L179.658 28.6949ZM178.797 28.4837L178.801 29.5984L178.3 29.5999L178.296 28.4852L178.293 27.3705L178.794 27.3689L178.797 28.4837ZM178.296 28.4852L178.3 29.5999L177.799 29.6015L177.795 28.4868L177.792 27.3721L178.293 27.3705L178.296 28.4852ZM177.795 28.4868L177.799 29.6015C177.693 29.6018 177.575 29.5985 177.459 29.5845C177.391 29.5763 177.138 29.5479 176.892 29.3942C176.751 29.306 176.501 29.1059 176.395 28.74C176.282 28.3542 176.398 28.0289 176.502 27.8468C176.668 27.558 176.921 27.411 176.972 27.3803L177.55 28.3333L178.128 29.2862C178.137 29.2807 178.171 29.2598 178.216 29.2224C178.252 29.1922 178.351 29.1049 178.437 28.9552C178.53 28.7925 178.643 28.4848 178.535 28.1151C178.433 27.7652 178.195 27.5796 178.075 27.5042C177.952 27.4276 177.847 27.3978 177.81 27.3879C177.763 27.3757 177.732 27.3718 177.726 27.3711C177.714 27.3696 177.731 27.3722 177.792 27.3721L177.795 28.4868ZM177.55 28.3333L176.972 27.3803L177.227 27.2252L177.805 28.1782L178.384 29.1311L178.128 29.2862L177.55 28.3333ZM177.805 28.1782L177.227 27.2252L177.483 27.0701L178.061 28.0231L178.639 28.976L178.384 29.1311L177.805 28.1782ZM178.061 28.0231L177.483 27.0701C177.627 26.9822 177.841 26.8431 178.129 26.6461L178.758 27.5664L179.387 28.4868C179.087 28.6918 178.835 28.8572 178.639 28.976L178.061 28.0231ZM178.758 27.5664L178.129 26.6461L178.57 26.3445L179.199 27.2649L179.828 28.1852L179.387 28.4868L178.758 27.5664ZM179.199 27.2649L178.57 26.3445L179.011 26.0429L179.64 26.9633L180.269 27.8836L179.828 28.1852L179.199 27.2649ZM179.64 26.9633L179.011 26.0429C179.307 25.8409 179.695 25.6837 180.146 25.7148C180.598 25.746 180.961 25.9555 181.227 26.198L180.474 27.0208L179.722 27.8435C179.726 27.8467 179.819 27.927 179.993 27.939C180.166 27.9509 180.268 27.8846 180.269 27.8836L179.64 26.9633ZM180.474 27.0208L181.227 26.198L181.619 26.5571L180.867 27.3798L180.115 28.2026L179.722 27.8435L180.474 27.0208ZM180.867 27.3798L181.619 26.5571L182.012 26.9161L181.26 27.7389L180.508 28.5617L180.115 28.2026L180.867 27.3798ZM181.26 27.7389L182.012 26.9161C182.05 26.9505 182.043 26.9321 181.988 26.9153C181.96 26.9068 181.927 26.901 181.892 26.9002C181.856 26.8995 181.827 26.904 181.807 26.9092L182.08 27.9899L182.353 29.0706C181.626 29.2546 180.98 28.9935 180.508 28.5617L181.26 27.7389ZM182.08 27.9899L181.807 26.9092L182.234 26.8012L182.507 27.8819L182.78 28.9626L182.353 29.0706L182.08 27.9899ZM182.507 27.8819L182.234 26.8012L182.661 26.6931L182.934 27.7738L183.207 28.8545L182.78 28.9626L182.507 27.8819ZM182.934 27.7738L182.661 26.6931C183.058 26.5925 183.463 26.5557 183.87 26.5897L183.778 27.7006L183.685 28.8114C183.537 28.7991 183.379 28.8111 183.207 28.8545L182.934 27.7738ZM183.778 27.7006L183.87 26.5897L184.287 26.6245L184.194 27.7353L184.102 28.8462L183.685 28.8114L183.778 27.7006ZM184.194 27.7353L184.287 26.6245L184.704 26.6593L184.611 27.7701L184.518 28.881L184.102 28.8462L184.194 27.7353ZM184.611 27.7701L184.704 26.6593C184.991 26.6833 185.279 26.7111 185.566 26.7428L185.443 27.8508L185.321 28.9588C185.054 28.9293 184.786 28.9033 184.518 28.881L184.611 27.7701ZM185.443 27.8508L185.566 26.7428L185.981 26.7886L185.859 27.8966L185.737 29.0046L185.321 28.9588L185.443 27.8508ZM185.859 27.8966L185.981 26.7886L186.397 26.8345L186.275 27.9425L186.153 29.0505L185.737 29.0046L185.859 27.8966ZM186.275 27.9425L186.397 26.8345C186.486 26.8443 186.594 26.8356 186.735 26.7835L187.121 27.829L187.508 28.8746C187.075 29.0349 186.618 29.1019 186.153 29.0505L186.275 27.9425ZM187.121 27.829L186.735 26.7835L187.166 26.6242L187.552 27.6697L187.939 28.7152L187.508 28.8746L187.121 27.829ZM187.552 27.6697L187.166 26.6242L187.597 26.4648L187.983 27.5104L188.37 28.5559L187.939 28.7152L187.552 27.6697ZM187.983 27.5104L187.597 26.4648C188.134 26.2663 188.703 26.2644 189.245 26.4875L188.821 27.5184L188.397 28.5493C188.39 28.5465 188.388 28.5463 188.389 28.5466C188.391 28.547 188.394 28.5474 188.397 28.5474C188.401 28.5474 188.401 28.5471 188.398 28.5477C188.394 28.5483 188.385 28.5503 188.37 28.5559L187.983 27.5104ZM188.821 27.5184L189.245 26.4875L189.652 26.6548L189.228 27.6858L188.804 28.7167L188.397 28.5493L188.821 27.5184ZM189.228 27.6858L189.652 26.6548L190.059 26.8222L189.635 27.8531L189.211 28.884L188.804 28.7167L189.228 27.6858ZM189.635 27.8531L190.059 26.8222C190.248 26.9 190.431 26.9494 190.611 26.9746L190.456 28.0785L190.302 29.1825C189.928 29.1302 189.564 29.0294 189.211 28.884L189.635 27.8531ZM190.456 28.0785L190.611 26.9746L191.026 27.0326L190.871 28.1366L190.717 29.2406L190.302 29.1825L190.456 28.0785ZM190.871 28.1366L191.026 27.0326L191.441 27.0907L191.286 28.1947L191.132 29.2986L190.717 29.2406L190.871 28.1366ZM191.286 28.1947L191.441 27.0907C191.719 27.1297 191.998 27.1695 192.277 27.2102L192.116 28.3132L191.955 29.4163C191.68 29.3762 191.406 29.337 191.132 29.2986L191.286 28.1947ZM192.116 28.3132L192.277 27.2102L192.691 27.2707L192.53 28.3737L192.369 29.4768L191.955 29.4163L192.116 28.3132ZM192.53 28.3737L192.691 27.2707L193.106 27.3312L192.945 28.4343L192.784 29.5373L192.369 29.4768L192.53 28.3737ZM192.945 28.4343L193.106 27.3312C193.25 27.3522 193.399 27.3486 193.561 27.3154L193.785 28.4073L194.01 29.4992C193.604 29.5826 193.193 29.597 192.784 29.5373L192.945 28.4343ZM193.785 28.4073L193.561 27.3154L193.987 27.2279L194.211 28.3198L194.435 29.4117L194.01 29.4992L193.785 28.4073ZM194.211 28.3198L193.987 27.2279L194.412 27.1404L194.637 28.2323L194.861 29.3242L194.435 29.4117L194.211 28.3198ZM194.637 28.2323L194.412 27.1404C194.754 27.0701 195.097 27.028 195.441 27.0152L195.482 28.1291L195.524 29.2431C195.307 29.2512 195.086 29.2779 194.861 29.3242L194.637 28.2323ZM195.482 28.1291L195.441 27.0152L195.861 26.9995L195.903 28.1134L195.944 29.2274L195.524 29.2431L195.482 28.1291ZM195.903 28.1134L195.861 26.9995L196.281 26.9838L196.323 28.0977L196.365 29.2117L195.944 29.2274L195.903 28.1134ZM196.323 28.0977L196.281 26.9838C196.668 26.9693 197.051 27.0099 197.426 27.1042L197.155 28.1854L196.883 29.2665C196.71 29.2231 196.539 29.2052 196.365 29.2117L196.323 28.0977ZM197.155 28.1854L197.426 27.1042L197.838 27.2075L197.566 28.2887L197.295 29.3699L196.883 29.2665L197.155 28.1854ZM197.566 28.2887L197.838 27.2075L198.249 27.3109L197.978 28.392L197.707 29.4732L197.295 29.3699L197.566 28.2887ZM197.978 28.392L198.249 27.3109C198.537 27.3832 198.825 27.4611 199.112 27.5446L198.8 28.6149L198.488 29.6851C198.228 29.6093 197.967 29.5387 197.707 29.4732L197.978 28.392ZM198.8 28.6149L199.112 27.5446L199.522 27.6641L199.21 28.7343L198.899 29.8046L198.488 29.6851L198.8 28.6149ZM199.21 28.7343L199.522 27.6641L199.932 27.7835L199.621 28.8538L199.309 29.9241L198.899 29.8046L199.21 28.7343ZM199.621 28.8538L199.932 27.7835C200.14 27.8439 200.346 27.8831 200.551 27.9024L200.447 29.0123L200.344 30.1222C199.994 30.0895 199.649 30.0231 199.309 29.9241L199.621 28.8538ZM200.447 29.0123L200.551 27.9024L200.968 27.9413L200.864 29.0512L200.76 30.1611L200.344 30.1222L200.447 29.0123ZM200.864 29.0512L200.968 27.9413L201.384 27.9803L201.28 29.0902L201.176 30.2001L200.76 30.1611L200.864 29.0512ZM201.28 29.0902L201.384 27.9803C201.535 27.9944 201.694 27.9842 201.866 27.9435L202.123 29.0283L202.379 30.1132C201.983 30.2069 201.58 30.2378 201.176 30.2001L201.28 29.0902ZM202.123 29.0283L201.866 27.9435L202.293 27.8427L202.549 28.9275L202.806 30.0123L202.379 30.1132L202.123 29.0283ZM202.549 28.9275L202.293 27.8427L202.72 27.7418L202.976 28.8267L203.232 29.9115L202.806 30.0123L202.549 28.9275ZM202.976 28.8267L202.72 27.7418C203.196 27.6291 203.681 27.6446 204.15 27.7942L203.812 28.8563L203.474 29.9185C203.397 29.8941 203.324 29.8898 203.232 29.9115L202.976 28.8267ZM203.812 28.8563L204.15 27.7942L204.56 27.9246L204.222 28.9868L203.883 30.0489L203.474 29.9185L203.812 28.8563ZM204.222 28.9868L204.56 27.9246L204.969 28.0551L204.631 29.1172L204.293 30.1794L203.883 30.0489L204.222 28.9868ZM204.631 29.1172L204.969 28.0551C205.027 28.0733 205.083 28.0774 205.165 28.054L205.469 29.1266L205.772 30.1993C205.284 30.3373 204.782 30.3351 204.293 30.1794L204.631 29.1172ZM205.469 29.1266L205.165 28.054L205.593 27.9329L205.897 29.0055L206.2 30.0782L205.772 30.1993L205.469 29.1266ZM205.897 29.0055L205.593 27.9329L206.021 27.8118L206.325 28.8845L206.628 29.9571L206.2 30.0782L205.897 29.0055ZM206.325 28.8845L206.021 27.8118C206.62 27.6424 207.213 27.7393 207.729 28.0496L207.154 29.0048L206.58 29.9601C206.568 29.953 206.563 29.9516 206.566 29.9524C206.568 29.9533 206.575 29.9556 206.586 29.9572C206.597 29.9588 206.608 29.9591 206.618 29.9584C206.627 29.9577 206.631 29.9564 206.628 29.9571L206.325 28.8845ZM207.154 29.0048L207.729 28.0496L208.13 28.291L207.556 29.2463L206.981 30.2015L206.58 29.9601L207.154 29.0048ZM207.556 29.2463L208.13 28.291L208.532 28.5324L207.957 29.4877L207.383 30.443L206.981 30.2015L207.556 29.2463ZM207.957 29.4877L208.532 28.5324C208.719 28.6449 208.893 28.718 209.057 28.7615L208.77 29.8387L208.483 30.9158C208.098 30.8133 207.731 30.6524 207.383 30.443L207.957 29.4877ZM208.77 29.8387L209.057 28.7615L209.468 28.871L209.181 29.9482L208.894 31.0253L208.483 30.9158L208.77 29.8387ZM209.181 29.9482L209.468 28.871L209.879 28.9805L209.592 30.0577L209.305 31.1349L208.894 31.0253L209.181 29.9482ZM209.592 30.0577L209.879 28.9805C210.059 29.0285 210.237 29.0512 210.416 29.0502L210.422 30.1649L210.429 31.2796C210.049 31.2817 209.673 31.233 209.305 31.1349L209.592 30.0577ZM210.422 30.1649L210.416 29.0502L210.835 29.0478L210.842 30.1625L210.848 31.2772L210.429 31.2796L210.422 30.1649ZM210.842 30.1625L210.835 29.0478L211.255 29.0455L211.261 30.1602L211.267 31.2749L210.848 31.2772L210.842 30.1625ZM211.261 30.1602L211.255 29.0455C211.4 29.0447 211.56 29.0183 211.74 28.9548L212.111 30.006L212.482 31.0572C212.088 31.1961 211.682 31.2726 211.267 31.2749L211.261 30.1602ZM212.111 30.006L211.74 28.9548L212.17 28.8029L212.541 29.8541L212.912 30.9053L212.482 31.0572L212.111 30.006ZM212.541 29.8541L212.17 28.8029L212.6 28.6511L212.971 29.7022L213.342 30.7534L212.912 30.9053L212.541 29.8541ZM212.971 29.7022L212.6 28.6511C212.947 28.5287 213.298 28.4382 213.651 28.3822L213.826 29.4832L214 30.5842C213.788 30.6178 213.569 30.6733 213.342 30.7534L212.971 29.7022ZM213.826 29.4832L213.651 28.3822L214.075 28.3151L214.25 29.4161L214.424 30.5171L214 30.5842L213.826 29.4832ZM214.25 29.4161L214.075 28.3151L214.499 28.2479L214.674 29.349L214.848 30.45L214.424 30.5171L214.25 29.4161ZM214.674 29.349L214.499 28.2479C214.919 28.1815 215.34 28.1938 215.755 28.2873L215.51 29.3747L215.265 30.4622C215.13 30.4318 214.994 30.4269 214.848 30.45L214.674 29.349ZM215.51 29.3747L215.755 28.2873L216.168 28.3802L215.922 29.4677L215.677 30.5551L215.265 30.4622L215.51 29.3747ZM215.922 29.4677L216.168 28.3802L216.58 28.4731L216.335 29.5606L216.09 30.648L215.677 30.5551L215.922 29.4677ZM216.335 29.5606L216.58 28.4731C216.991 28.5658 217.379 28.7337 217.74 28.9602L217.148 29.9047L216.556 30.8492C216.383 30.7407 216.228 30.6792 216.09 30.648L216.335 29.5606ZM217.148 29.9047L217.74 28.9602L218.141 29.2115L217.549 30.1559L216.956 31.1004L216.556 30.8492L217.148 29.9047ZM217.549 30.1559L218.141 29.2115L218.541 29.4627L217.949 30.4071L217.357 31.3516L216.956 31.1004L217.549 30.1559ZM217.949 30.4071L218.541 29.4627C218.616 29.5095 218.665 29.5301 218.69 29.5384C218.713 29.5462 218.707 29.5405 218.677 29.5408L218.687 30.6555L218.696 31.7702C218.189 31.7745 217.735 31.5883 217.357 31.3516L217.949 30.4071ZM218.687 30.6555L218.677 29.5408L219.014 29.5379L219.024 30.6526L219.033 31.7673L218.696 31.7702L218.687 30.6555ZM219.024 30.6526L219.014 29.5379L219.351 29.535L219.36 30.6497L219.37 31.7644L219.033 31.7673L219.024 30.6526ZM219.36 30.6497L219.351 29.535C219.46 29.5341 219.519 29.5322 219.543 29.5308C219.565 29.5295 219.529 29.5303 219.472 29.5405C219.454 29.5437 219.421 29.5499 219.381 29.5611C219.349 29.5698 219.264 29.594 219.164 29.646C219.117 29.6705 218.787 29.8356 218.636 30.2474C218.422 30.8272 218.74 31.2701 218.902 31.4279L219.681 30.6308L220.46 29.8336C220.623 29.9927 220.942 30.437 220.728 31.018C220.575 31.4311 220.244 31.5974 220.195 31.6231C220.026 31.7108 219.871 31.7339 219.862 31.7355C219.781 31.7499 219.706 31.7545 219.675 31.7563C219.592 31.7612 219.485 31.7634 219.37 31.7644L219.36 30.6497ZM219.681 30.6308L218.902 31.4279L218.885 31.4118L219.664 30.6147L220.444 29.8175L220.46 29.8336L219.681 30.6308ZM219.664 30.6147L218.885 31.4118L218.869 31.3957L219.648 30.5986L220.427 29.8014L220.444 29.8175L219.664 30.6147ZM219.648 30.5986L218.869 31.3957C218.904 31.4303 218.988 31.5082 219.115 31.5772C219.229 31.6389 219.528 31.7744 219.914 31.6786C220.343 31.5718 220.564 31.2616 220.653 31.072C220.734 30.8991 220.75 30.7486 220.754 30.6901C220.765 30.5631 220.75 30.4649 220.747 30.4453C220.742 30.409 220.736 30.382 220.733 30.3706C220.725 30.3357 220.72 30.3247 220.734 30.3671L219.674 30.7131L218.615 31.0592C218.6 31.0145 218.576 30.9409 218.56 30.8678C218.555 30.8468 218.547 30.8118 218.541 30.769C218.537 30.7429 218.522 30.6398 218.532 30.5093C218.537 30.4491 218.553 30.2972 218.635 30.1234C218.725 29.9329 218.945 29.6221 219.376 29.515C219.762 29.419 220.062 29.5548 220.177 29.6171C220.306 29.6866 220.39 29.7655 220.427 29.8014L219.648 30.5986ZM219.674 30.7131L220.734 30.3671L220.776 30.4977L219.717 30.8438L218.657 31.1899L218.615 31.0592L219.674 30.7131ZM219.717 30.8438L220.776 30.4977L220.819 30.6284L219.76 30.9745L218.7 31.3205L218.657 31.1899L219.717 30.8438ZM219.76 30.9745L220.819 30.6284C221.043 31.3132 220.604 31.7956 220.464 31.9282C220.287 32.0965 220.077 32.2131 219.919 32.2915L219.424 31.2929L218.928 30.2944C219.023 30.2476 218.995 30.2485 218.93 30.3106C218.895 30.3436 218.802 30.4385 218.731 30.6014C218.651 30.7872 218.61 31.0458 218.7 31.3205L219.76 30.9745ZM219.424 31.2929L219.919 32.2915L219.541 32.4793L219.045 31.4807L218.55 30.4822L218.928 30.2944L219.424 31.2929Z" fill="#335270"/>
</svg>
