<svg width="22" height="20" viewBox="0 0 22 20" fill="none" xmlns="http://www.w3.org/2000/svg">
<path d="M10.75 13.75C12.4069 13.75 13.75 12.4069 13.75 10.75C13.75 9.09315 12.4069 7.75 10.75 7.75C9.09315 7.75 7.75 9.09315 7.75 10.75C7.75 12.4069 9.09315 13.75 10.75 13.75Z" stroke="black" stroke-width="1.5"/>
<path d="M0.75 11.114C0.75 8.04905 0.75 6.51705 1.499 5.41705C1.82457 4.93904 2.24118 4.52991 2.725 4.21305C3.445 3.74005 4.347 3.57105 5.728 3.51105C6.387 3.51105 6.954 3.02105 7.083 2.38605C7.18158 1.92092 7.43773 1.50408 7.80815 1.206C8.17857 0.907912 8.64055 0.746855 9.116 0.750047H12.384C13.372 0.750047 14.223 1.43505 14.417 2.38605C14.546 3.02105 15.113 3.51105 15.772 3.51105C17.152 3.57105 18.054 3.74105 18.775 4.21305C19.26 4.53105 19.677 4.94005 20.001 5.41705C20.75 6.51705 20.75 8.04905 20.75 11.114C20.75 14.179 20.75 15.71 20.001 16.811C19.6754 17.2891 19.2588 17.6982 18.775 18.015C17.654 18.75 16.093 18.75 12.972 18.75H8.528C5.407 18.75 3.846 18.75 2.725 18.015C2.24144 17.6978 1.82517 17.2883 1.5 16.81C1.28274 16.4864 1.12274 16.1279 1.027 15.75M17.75 7.75005H16.75" stroke="black" stroke-width="1.5" stroke-linecap="round"/>
</svg>
