<svg width="46" height="46" viewBox="0 0 46 46" fill="none" xmlns="http://www.w3.org/2000/svg">
<path d="M21.6334 16.2188L28.3417 4.71875C31.2486 5.48542 33.8285 6.89097 36.0812 8.93542C38.3339 10.9799 39.9707 13.4076 40.9917 16.2188H21.6334ZM16.3146 21.0104L9.75002 9.51042C11.475 7.81736 13.4799 6.47569 15.7645 5.48542C18.0492 4.49514 20.5166 4 23.1667 4C23.582 4 24.0611 4.02428 24.6042 4.07283C25.1472 4.12139 25.6424 4.17697 26.0896 4.23958L16.3146 21.0104ZM4.62294 27.9583C4.43127 27.1917 4.27922 26.409 4.16677 25.6104C4.05433 24.8118 3.99874 23.9972 4.00002 23.1667C4.00002 20.8986 4.36738 18.7583 5.10211 16.7458C5.83683 14.7333 6.87502 12.8965 8.21669 11.2354L17.8959 27.9583H4.62294ZM18.0396 41.6146C15.1327 40.8479 12.5452 39.4424 10.2771 37.3979C8.00905 35.3535 6.36391 32.9257 5.34169 30.1146H24.6521L18.0396 41.6146ZM23.1667 42.3333C22.6875 42.3333 22.2001 42.3014 21.7043 42.2375C21.2085 42.1736 20.7376 42.1097 20.2917 42.0458L30.0188 25.3229L36.5834 36.8229C34.8584 38.516 32.8542 39.8576 30.5708 40.8479C28.2874 41.8382 25.8194 42.3333 23.1667 42.3333ZM38.1167 35.0979L28.4375 18.375H41.7104C41.9021 19.1417 42.0542 19.9243 42.1666 20.7229C42.2791 21.5215 42.3346 22.3361 42.3334 23.1667C42.3334 25.4028 41.9424 27.5431 41.1604 29.5875C40.3784 31.6319 39.3638 33.4688 38.1167 35.0979Z" fill="#F0F0F0"/>
</svg>
