<svg width="55" height="55" viewBox="0 0 55 55" fill="none" xmlns="http://www.w3.org/2000/svg">
<g clip-path="url(#clip0_526_565)">
<path d="M1.47321 27.4429C1.47321 13.0835 13.1138 1.44287 27.4732 1.44287C41.8326 1.44287 53.4732 13.0835 53.4732 27.4429C53.4732 41.8023 41.8326 53.4429 27.4732 53.4429C13.1138 53.4429 1.47321 41.8023 1.47321 27.4429Z" fill="#E2DFDA"/>
<circle cx="27.4732" cy="21.2983" r="8" fill="#335270"/>
<ellipse cx="27.4732" cy="47.2983" rx="18" ry="16" fill="#335270"/>
</g>
<path d="M28.611 1.25114L28.4448 0.265041L28.611 1.25114ZM29.3677 1.22463L29.2691 2.21975L29.3677 1.22463ZM30.8973 1.26285L30.7143 0.279735L30.8973 1.26285ZM31.2947 1.18888L31.1117 0.205762L31.2947 1.18888ZM31.6921 1.1149L31.5091 0.131789L31.6921 1.1149ZM33.8211 2.08846L33.9216 1.09352L33.8211 2.08846ZM34.2018 2.12691L34.1013 3.12185L34.2018 2.12691ZM34.5824 2.16536L34.6829 1.17042L34.5824 2.16536ZM35.3142 2.34829L34.9338 3.27308L35.3142 2.34829ZM36.652 3.07801L37.3736 2.38572L36.652 3.07801ZM37.2204 3.67052L36.4988 4.3628L37.2204 3.67052ZM37.8818 4.03489L37.704 5.01897L37.8818 4.03489ZM38.2589 4.10302L38.0812 5.08709L38.2589 4.10302ZM38.6361 4.17114L38.8138 3.18706L38.6361 4.17114ZM39.3369 4.42575L38.8376 5.29219L39.3369 4.42575ZM39.9842 4.79873L40.4835 3.93229L39.9842 4.79873ZM40.7847 5.61888L39.9858 6.22025L40.7847 5.61888ZM41.0232 5.93571L41.8222 5.33434L41.0232 5.93571ZM41.5848 6.42833L42.0627 5.5499L41.5848 6.42833ZM41.908 6.60412L41.4301 7.48255L41.908 6.60412ZM42.2311 6.77992L42.709 5.90149L42.2311 6.77992ZM42.991 7.00381L42.8815 7.9978L42.991 7.00381ZM43.4277 7.0519L43.3182 8.04589L43.4277 7.0519ZM43.8644 7.09999L43.9738 6.106L43.8644 7.09999ZM44.5825 7.40356L45.2546 6.66318L44.5825 7.40356ZM44.8639 7.65904L44.1917 8.39943L44.8639 7.65904ZM45.1453 7.91452L45.8174 7.17414L45.1453 7.91452ZM45.7425 8.39327L45.1653 9.20985L45.7425 8.39327ZM46.3742 8.83982L46.9514 8.02324L46.3742 8.83982ZM46.9491 9.34593L47.6866 8.67055L46.9491 9.34593ZM47.4672 9.91162L46.7297 10.587L47.4672 9.91162ZM47.9471 10.5082L47.1294 11.0839L47.9471 10.5082ZM48.168 10.8219L47.3503 11.3976L48.168 10.8219ZM48.3889 11.1357L49.2065 10.56L48.3889 11.1357ZM48.7861 11.7912L47.8974 12.2497L48.7861 11.7912ZM49.1388 12.4748L48.2501 12.9333L49.1388 12.4748ZM49.3924 13.211L48.411 13.4032L49.3924 13.211ZM49.5469 13.9997L50.5282 13.8074L49.5469 13.9997ZM49.8634 14.6876L50.6385 14.0557L49.8634 14.6876ZM50.1027 14.9811L49.3276 15.613L50.1027 14.9811ZM50.342 15.2746L51.1171 14.6428L50.342 15.2746ZM50.7712 15.8936L49.9074 16.3975L50.7712 15.8936ZM51.1509 16.5444L52.0146 16.0404L51.1509 16.5444ZM51.451 17.2304L52.4073 16.938L51.451 17.2304ZM51.5612 17.5909L50.6049 17.8833L51.5612 17.5909ZM51.6715 17.9515L50.7151 18.2438L51.6715 17.9515ZM51.8116 18.6947L50.8147 18.7728L51.8116 18.6947ZM51.8416 19.0774L52.8386 18.9994L51.8416 19.0774ZM51.8716 19.4601L50.8746 19.5381L51.8716 19.4601ZM52.0722 20.1801L52.9645 19.7287L52.0722 20.1801ZM52.2429 20.5175L53.1352 20.066L52.2429 20.5175ZM52.4135 20.8548L53.3058 20.4034L52.4135 20.8548ZM52.5059 21.5862L53.4867 21.7811L52.5059 21.5862ZM52.3493 22.3741L53.3301 22.5691L52.3493 22.3741ZM52.4993 23.1055L51.6712 23.666L52.4993 23.1055ZM52.7276 23.4429L51.8995 24.0033L52.7276 23.4429ZM52.9559 23.7802L53.7841 23.2198L52.9559 23.7802ZM53.2127 24.4902L54.2098 24.4139L53.2127 24.4902ZM53.2697 25.2354L54.2668 25.1591L53.2697 25.2354ZM53.2921 25.9814L54.292 25.9978L53.2921 25.9814ZM53.2799 26.7282L52.28 26.7118L53.2799 26.7282ZM53.2712 27.4745L54.2712 27.4813L53.2712 27.4745ZM53.2661 28.2202L52.2661 28.2134L53.2661 28.2202ZM53.2926 28.9699L54.2896 28.8932L53.2926 28.9699ZM53.3506 29.7236L52.3535 29.8003L53.3506 29.7236ZM53.152 30.4443L53.986 30.9962L53.152 30.4443ZM52.6969 31.1322L51.8629 30.5804L52.6969 31.1322ZM52.3963 31.8338L51.4165 31.6337L52.3963 31.8338ZM52.2503 32.5491L53.2301 32.7491L52.2503 32.5491ZM52.1145 33.2679L53.0997 33.4391L52.1145 33.2679ZM51.989 33.9901L51.0038 33.8189L51.989 33.9901ZM52.0729 34.7893L51.1247 35.1068L52.0729 34.7893ZM52.2196 35.2275L53.1679 34.91L52.2196 35.2275ZM52.3663 35.6656L51.418 35.983L52.3663 35.6656ZM52.3338 36.4428L53.218 36.9099L52.3338 36.4428ZM51.9755 37.1211L51.0913 36.6541L51.9755 37.1211ZM51.4747 37.726L52.1115 38.497L51.4747 37.726ZM50.8313 38.2575L50.1944 37.4865L50.8313 38.2575ZM50.5092 38.9445L51.5092 38.9453L50.5092 38.9445ZM50.5089 39.3658L49.5089 39.365L50.5089 39.3658ZM50.5086 39.7871L51.5086 39.7879L50.5086 39.7871ZM50.3137 40.5346L51.1726 41.0468L50.3137 40.5346ZM49.9247 41.1869L50.7835 41.6991L49.9247 41.1869ZM49.5301 41.8366L50.3807 42.3625L49.5301 41.8366ZM49.3301 42.1602L50.1807 42.686L49.3301 42.1602ZM49.13 42.4838L48.2795 41.9579L49.13 42.4838ZM48.5321 42.9749L48.9201 43.8965L48.5321 42.9749ZM48.1342 43.1423L47.7462 42.2207L48.1342 43.1423ZM47.7363 43.3098L48.1243 44.2315L47.7363 43.3098ZM47.2915 43.9319L46.2968 43.8293L47.2915 43.9319ZM47.2447 44.3864L48.2394 44.4889L47.2447 44.3864ZM47.1978 44.8409L46.2031 44.7384L47.1978 44.8409ZM46.8458 45.5313L46.2344 44.74L46.8458 45.5313ZM46.5406 45.7671L45.9292 44.9759L46.5406 45.7671ZM46.2354 46.003L46.8469 46.7942L46.2354 46.003ZM45.548 46.3786L45.2045 45.4394L45.548 46.3786ZM44.7834 46.6582L45.1269 47.5974L44.7834 46.6582ZM44.2487 47.2055L45.1853 47.5559L44.2487 47.2055ZM44.0962 47.6131L45.0328 47.9635L44.0962 47.6131ZM43.9438 48.0207L43.0072 47.6703L43.9438 48.0207ZM43.3979 48.5329L43.6551 49.4993L43.3979 48.5329ZM42.6112 48.7423L42.3541 47.7759L42.6112 48.7423ZM41.9639 49.1504L42.7308 49.7922L41.9639 49.1504ZM41.71 49.4539L42.4769 50.0957L41.71 49.4539ZM41.456 49.7574L40.6891 49.1157L41.456 49.7574ZM40.8179 50.1507L41.0456 51.1245L40.8179 50.1507ZM40.4338 50.2405L40.2061 49.2668L40.4338 50.2405ZM40.0496 50.3304L40.2773 51.3041L40.0496 50.3304ZM39.3916 50.7218L40.1318 51.3941L39.3916 50.7218ZM38.8437 51.3249L38.1035 50.6526L38.8437 51.3249ZM38.1296 51.554L38.2922 50.5673L38.1296 51.554ZM37.6894 51.4815L37.5269 52.4682L37.6894 51.4815ZM37.2493 51.409L37.0867 52.3957L37.2493 51.409ZM36.5323 51.6805L37.3115 52.3074L36.5323 51.6805ZM36.2555 52.0245L35.4764 51.3977L36.2555 52.0245ZM35.9787 52.3686L35.1996 51.7417L35.9787 52.3686ZM35.2793 52.6118L35.5115 51.6391L35.2793 52.6118ZM34.8567 52.5109L34.6245 53.4835L34.8567 52.5109ZM34.4341 52.41L34.6664 51.4373L34.4341 52.41ZM33.6343 52.3128L33.6444 53.3128L33.6343 52.3128ZM32.8799 52.3204L32.8699 51.3204L32.8799 52.3204ZM32.1438 52.3977L31.9432 51.418L32.1438 52.3977ZM31.7849 52.4712L31.9855 53.4509V53.4509L31.7849 52.4712ZM31.4259 52.5447L31.2253 51.565L31.4259 52.5447ZM30.715 52.8074L31.1885 53.6882L30.715 52.8074ZM30.363 52.9967L29.8895 52.1159L30.363 52.9967ZM30.011 53.1859L29.5375 52.3051L30.011 53.1859ZM29.2884 53.5515L29.718 54.4545L29.2884 53.5515ZM28.9178 53.7278L29.3473 54.6308L28.9178 53.7278ZM28.5471 53.9041L28.1176 53.0011L28.5471 53.9041ZM27.8002 53.7935L27.1939 54.5887L27.8002 53.7935ZM27.424 53.5066L26.8176 54.3018L27.424 53.5066ZM27.0477 53.2197L27.6541 52.4245L27.0477 53.2197ZM26.29 53.0736L25.9438 52.1354L26.29 53.0736ZM25.9086 53.2144L26.2548 54.1525L25.9086 53.2144ZM25.5271 53.3552L25.8734 54.2933L25.5271 53.3552ZM24.797 53.2758L24.263 54.1213L24.797 53.2758ZM24.0997 52.8354L24.6337 51.9899L24.0997 52.8354ZM23.3711 52.6423L23.2999 51.6449L23.3711 52.6423ZM22.6112 52.6966L22.6824 53.694L22.6112 52.6966ZM21.8683 52.6397L22.0938 51.6655L21.8683 52.6397ZM21.5055 52.5558L21.28 53.53L21.5055 52.5558ZM21.1426 52.4718L21.3681 51.4975L21.1426 52.4718ZM20.4206 52.2881L20.6882 51.3246L20.4206 52.2881ZM19.7024 52.0886L19.4348 53.0522L19.7024 52.0886ZM18.1194 52.0422L18.1629 53.0412L18.1194 52.0422ZM17.3656 51.8985L16.9427 52.8047L17.3656 51.8985ZM16.6739 51.5757L16.251 52.4819L16.6739 51.5757ZM16.0114 51.1989L15.4489 52.0257L16.0114 51.1989ZM15.378 50.768L15.9405 49.9412L15.378 50.768ZM14.7965 50.2615L14.0568 50.9345L14.7965 50.2615ZM14.2668 49.6794L15.0064 49.0064L14.2668 49.6794ZM13.768 49.0748L14.5695 48.4768L13.768 49.0748ZM13.3002 48.4478L12.4987 49.0458L13.3002 48.4478ZM12.7648 47.9298L12.2033 48.7573L12.7648 47.9298ZM12.1617 47.5206L11.6002 48.3481L12.1617 47.5206ZM11.5667 47.0979L12.1633 46.2953L11.5667 47.0979ZM10.9797 46.6615L10.3831 47.4641L10.9797 46.6615ZM10.4008 46.2121L9.77137 46.9892L10.4008 46.2121ZM9.82977 45.7496L10.4592 44.9725L9.82977 45.7496ZM9.09254 45.4308L8.90225 46.4125L9.09254 45.4308ZM8.1891 45.2557L7.99881 46.2374H7.99881L8.1891 45.2557ZM7.66334 44.7377L8.64887 44.5682L7.66334 44.7377ZM7.51528 43.8769L8.50081 43.7074L7.51528 43.8769ZM7.00987 43.2994L6.68715 44.2459L7.00987 43.2994ZM6.57849 43.1523L6.25578 44.0988L6.57849 43.1523ZM6.14712 43.0052L6.46983 42.0587L6.14712 43.0052ZM5.70194 42.4132L4.70242 42.4442L5.70194 42.4132ZM5.24401 40.8841L4.82108 41.7902L5.24401 40.8841ZM4.41093 40.4952L4.83385 39.5891L4.41093 40.4952ZM4.02357 39.8597L3.02575 39.7936L4.02357 39.8597ZM4.05276 39.4185L3.05494 39.3525L4.05276 39.4185ZM4.08195 38.9773L5.07976 39.0433L4.08195 38.9773ZM4.11406 37.3282L3.11407 37.3258L4.11406 37.3282ZM3.64523 36.7018L3.21515 37.6045L3.64523 36.7018ZM2.19748 35.6422L3.19264 35.544L2.19748 35.6422ZM2.12084 34.866L1.12568 34.9643L2.12084 34.866ZM1.91686 34.125L2.82208 33.7001L1.91686 34.125ZM1.7512 33.7721L2.65642 33.3472L1.7512 33.7721ZM1.58554 33.4192L0.680314 33.8442L1.58554 33.4192ZM2.01969 31.8067L2.92256 32.2366V32.2366L2.01969 31.8067ZM1.88344 31.0491L2.59209 30.3436L1.88344 31.0491ZM1.54725 30.7115L0.838605 31.417L1.54725 30.7115ZM1.21107 30.3738L1.91972 29.6682L1.21107 30.3738ZM1.07444 29.6431L0.182794 29.1904L1.07444 29.6431ZM1.47356 28.8571L2.36521 29.3098L1.47356 28.8571ZM1.79832 28.0932L0.850859 27.7733L1.79832 28.0932ZM2.04873 27.3514L2.99619 27.6713L2.04873 27.3514ZM1.95737 26.5984L1.08734 27.0914L1.95737 26.5984ZM1.74081 26.2162L2.61084 25.7232L1.74081 26.2162ZM1.52425 25.834L2.39428 25.341L1.52425 25.834ZM1.2685 25.0651L0.273597 25.1659L1.2685 25.0651ZM1.22931 24.6783L2.22421 24.5775L1.22931 24.6783ZM1.19012 24.2916L0.195211 24.3924L1.19012 24.2916ZM1.40336 23.5636L2.20724 24.1584L1.40336 23.5636ZM1.90824 22.8813L1.10437 22.2865L1.90824 22.8813ZM2.34293 22.2031L3.22254 22.6788L2.34293 22.2031ZM2.52519 21.8661L1.64558 21.3904L2.52519 21.8661ZM2.70745 21.5291L3.58705 22.0048L2.70745 21.5291ZM3.06734 20.0981L4.05441 20.2584L3.06734 20.0981ZM3.17252 19.3571L4.16514 19.4783L3.17252 19.3571ZM3.21848 18.9806L2.22585 18.8594L3.21848 18.9806ZM3.26444 18.6042L2.27182 18.483L3.26444 18.6042ZM3.49508 17.9022L4.36492 18.3955L3.49508 17.9022ZM3.67975 17.5766L2.80991 17.0832L3.67975 17.5766ZM3.86442 17.2509L2.99458 16.7576L3.86442 17.2509ZM4.47834 15.8973L3.55555 15.512L4.47834 15.8973ZM4.62021 14.6891L5.62021 14.6877L4.62021 14.6891ZM4.61961 14.2564L3.61961 14.2578L4.61961 14.2564ZM5.00605 13.6229L4.54554 12.7352L5.00605 13.6229ZM5.78014 13.2213L6.24064 14.1089L5.78014 13.2213ZM6.43624 12.7593L5.73977 12.0417L6.43624 12.7593ZM6.7053 12.4982L6.00883 11.7806L6.7053 12.4982ZM6.97436 12.2371L7.67082 12.9546L6.97436 12.2371ZM7.22343 11.4742L8.22263 11.4344L7.22343 11.4742ZM7.20344 10.9725L6.20423 11.0123L7.20344 10.9725ZM7.18345 10.4708L6.18424 10.5106L7.18345 10.4708ZM7.70333 9.9538L7.67498 8.9542L7.70333 9.9538ZM8.78306 9.92318L8.81141 10.9228L8.78306 9.92318ZM9.52825 9.59379L8.69124 9.0466L9.52825 9.59379ZM9.9389 8.96563L10.7759 9.51281L9.9389 8.96563ZM10.9141 7.8469L11.6366 8.53821L10.9141 7.8469ZM11.3527 7.19971L12.2541 7.63271L11.3527 7.19971ZM11.7168 6.44177L10.8154 6.00877L11.7168 6.44177ZM12.2203 5.85783L11.6827 5.01464L12.2203 5.85783ZM12.5418 5.65285L13.0794 6.49604L12.5418 5.65285ZM12.8633 5.44788L12.3257 4.60469L12.8633 5.44788ZM13.6373 5.2699L13.5778 6.26812L13.6373 5.2699ZM14.0899 5.29689L14.0304 6.29512L14.0899 5.29689ZM14.5425 5.32388L14.602 4.32566L14.5425 5.32388ZM15.2461 5.03284L14.4613 4.41317L15.2461 5.03284ZM15.7483 4.39677L16.5332 5.01644L15.7483 4.39677ZM16.3835 4.02384L16.242 3.0339L16.3835 4.02384ZM18.0915 3.22032L17.337 2.56403L18.0915 3.22032ZM18.3693 2.9009L19.1238 3.55718L18.3693 2.9009ZM18.9936 2.41133L19.4344 3.30891L18.9936 2.41133ZM19.6865 2.07102L19.2456 1.17344L19.6865 2.07102ZM20.4446 1.98115L20.2532 2.96267L20.4446 1.98115ZM22.8376 2.35971L22.7195 3.35271L22.8376 2.35971ZM24.3087 2.22437L24.4734 3.21071L24.3087 2.22437ZM26.4734 1.85509L27.1619 2.58031L26.4734 1.85509ZM27.1399 1.2223L26.4514 0.497078L27.1399 1.2223ZM28.2317 1.31505L28.3979 2.30115L28.7772 2.23723L28.611 1.25114L28.4448 0.265041L28.0656 0.328952L28.2317 1.31505ZM28.611 1.25114L28.7772 2.23723C28.9438 2.20916 29.107 2.20369 29.2691 2.21975L29.3677 1.22463L29.4663 0.229499C29.1251 0.195696 28.7839 0.207904 28.4448 0.265041L28.611 1.25114ZM29.3677 1.22463L29.2691 2.21975L29.6465 2.25715L29.7451 1.26202L29.8437 0.266898L29.4663 0.229499L29.3677 1.22463ZM29.7451 1.26202L29.6465 2.25715L30.0239 2.29455L30.1225 1.29942L30.2211 0.304296L29.8437 0.266898L29.7451 1.26202ZM30.1225 1.29942L30.0239 2.29455C30.3754 2.32939 30.7286 2.31142 31.0803 2.24596L30.8973 1.26285L30.7143 0.279735C30.5361 0.312906 30.3728 0.319325 30.2211 0.304296L30.1225 1.29942ZM30.8973 1.26285L31.0803 2.24596L31.4777 2.17199L31.2947 1.18888L31.1117 0.205762L30.7143 0.279735L30.8973 1.26285ZM31.2947 1.18888L31.4777 2.17199L31.8751 2.09801L31.6921 1.1149L31.5091 0.131789L31.1117 0.205762L31.2947 1.18888ZM31.6921 1.1149L31.8751 2.09801C31.8782 2.09743 31.8752 2.09827 31.8672 2.09811C31.8591 2.09795 31.8492 2.09681 31.8389 2.09432C31.8287 2.09184 31.8218 2.08893 31.8189 2.08755C31.8163 2.08628 31.8197 2.08755 31.8288 2.09439L32.4272 1.2932L33.0257 0.492014C32.5877 0.164873 32.0615 0.0289632 31.5091 0.131789L31.6921 1.1149ZM32.4272 1.2932L31.8288 2.09439L32.1666 2.34666L32.765 1.54547L33.3634 0.744284L33.0257 0.492014L32.4272 1.2932ZM32.765 1.54547L32.1666 2.34666L32.5043 2.59893L33.1027 1.79774L33.7012 0.996555L33.3634 0.744284L32.765 1.54547ZM33.1027 1.79774L32.5043 2.59893C32.8596 2.86426 33.2684 3.03771 33.7206 3.0834L33.8211 2.08846L33.9216 1.09352C33.8664 1.08794 33.7963 1.06758 33.7012 0.996555L33.1027 1.79774ZM33.8211 2.08846L33.7206 3.0834L34.1013 3.12185L34.2018 2.12691L34.3023 1.13197L33.9216 1.09352L33.8211 2.08846ZM34.2018 2.12691L34.1013 3.12185L34.4819 3.1603L34.5824 2.16536L34.6829 1.17042L34.3023 1.13197L34.2018 2.12691ZM34.5824 2.16536L34.4819 3.1603C34.6402 3.17628 34.7898 3.21384 34.9338 3.27308L35.3142 2.34829L35.6947 1.42351C35.3705 1.29011 35.0322 1.2057 34.6829 1.17042L34.5824 2.16536ZM35.3142 2.34829L34.9338 3.27308L35.2849 3.41756L35.6654 2.49278L36.0459 1.568L35.6947 1.42351L35.3142 2.34829ZM35.6654 2.49278L35.2849 3.41756L35.6361 3.56205L36.0166 2.63726L36.3971 1.71248L36.0459 1.568L35.6654 2.49278ZM36.0166 2.63726L35.6361 3.56205C35.7314 3.60126 35.8293 3.66492 35.9303 3.77029L36.652 3.07801L37.3736 2.38572C37.0957 2.09608 36.77 1.86592 36.3971 1.71248L36.0166 2.63726ZM36.652 3.07801L35.9303 3.77029L36.2145 4.06655L36.9362 3.37426L37.6578 2.68198L37.3736 2.38572L36.652 3.07801ZM36.9362 3.37426L36.2145 4.06655L36.4988 4.3628L37.2204 3.67052L37.942 2.97823L37.6578 2.68198L36.9362 3.37426ZM37.2204 3.67052L36.4988 4.3628C36.8232 4.70102 37.2299 4.93335 37.704 5.01897L37.8818 4.03489L38.0595 3.05082C38.0307 3.04561 37.9965 3.03502 37.942 2.97823L37.2204 3.67052ZM37.8818 4.03489L37.704 5.01897L38.0812 5.08709L38.2589 4.10302L38.4367 3.11894L38.0595 3.05082L37.8818 4.03489ZM38.2589 4.10302L38.0812 5.08709L38.4584 5.15522L38.6361 4.17114L38.8138 3.18706L38.4367 3.11894L38.2589 4.10302ZM38.6361 4.17114L38.4584 5.15522C38.5997 5.18074 38.7241 5.22677 38.8376 5.29219L39.3369 4.42575L39.8362 3.55931C39.5182 3.37607 39.1754 3.25236 38.8138 3.18706L38.6361 4.17114ZM39.3369 4.42575L38.8376 5.29219L39.1613 5.47868L39.6605 4.61224L40.1598 3.7458L39.8362 3.55931L39.3369 4.42575ZM39.6605 4.61224L39.1613 5.47868L39.4849 5.66517L39.9842 4.79873L40.4835 3.93229L40.1598 3.7458L39.6605 4.61224ZM39.9842 4.79873L39.4849 5.66517C39.5768 5.71814 39.6643 5.7931 39.7473 5.90342L40.5463 5.30205L41.3452 4.70068C41.1103 4.38856 40.823 4.12797 40.4835 3.93229L39.9842 4.79873ZM40.5463 5.30205L39.7473 5.90342L39.9858 6.22025L40.7847 5.61888L41.5837 5.01751L41.3452 4.70068L40.5463 5.30205ZM40.7847 5.61888L39.9858 6.22025L40.2243 6.53708L41.0232 5.93571L41.8222 5.33434L41.5837 5.01751L40.7847 5.61888ZM41.0232 5.93571L40.2243 6.53708C40.4624 6.8535 40.7563 7.11602 41.107 7.30676L41.5848 6.42833L42.0627 5.5499C41.9825 5.50625 41.902 5.44035 41.8222 5.33434L41.0232 5.93571ZM41.5848 6.42833L41.107 7.30676L41.4301 7.48255L41.908 6.60412L42.3859 5.7257L42.0627 5.5499L41.5848 6.42833ZM41.908 6.60412L41.4301 7.48255L41.7532 7.65834L42.2311 6.77992L42.709 5.90149L42.3859 5.7257L41.908 6.60412ZM42.2311 6.77992L41.7532 7.65834C42.1027 7.84844 42.4858 7.95422 42.8815 7.9978L42.991 7.00381L43.1004 6.00981C42.9139 5.98927 42.7904 5.94579 42.709 5.90149L42.2311 6.77992ZM42.991 7.00381L42.8815 7.9978L43.3182 8.04589L43.4277 7.0519L43.5371 6.05791L43.1004 6.00981L42.991 7.00381ZM43.4277 7.0519L43.3182 8.04589L43.7549 8.09398L43.8644 7.09999L43.9738 6.106L43.5371 6.05791L43.4277 7.0519ZM43.8644 7.09999L43.7549 8.09398C43.8703 8.10669 43.9023 8.13669 43.9103 8.14395L44.5825 7.40356L45.2546 6.66318C44.8874 6.3298 44.4407 6.15742 43.9738 6.106L43.8644 7.09999ZM44.5825 7.40356L43.9103 8.14395L44.1917 8.39943L44.8639 7.65904L45.536 6.91866L45.2546 6.66318L44.5825 7.40356ZM44.8639 7.65904L44.1917 8.39943L44.4731 8.6549L45.1453 7.91452L45.8174 7.17414L45.536 6.91866L44.8639 7.65904ZM45.1453 7.91452L44.4731 8.6549C44.6913 8.853 44.9221 9.03797 45.1653 9.20985L45.7425 8.39327L46.3197 7.57669C46.1418 7.45087 45.9744 7.31667 45.8174 7.17414L45.1453 7.91452ZM45.7425 8.39327L45.1653 9.20985L45.4811 9.43312L46.0584 8.61654L46.6356 7.79996L46.3197 7.57669L45.7425 8.39327ZM46.0584 8.61654L45.4811 9.43312L45.797 9.65639L46.3742 8.83982L46.9514 8.02324L46.6356 7.79996L46.0584 8.61654ZM46.3742 8.83982L45.797 9.65639C45.9497 9.76439 46.0876 9.88585 46.2116 10.0213L46.9491 9.34593L47.6866 8.67055C47.4652 8.42889 47.2198 8.21294 46.9514 8.02324L46.3742 8.83982ZM46.9491 9.34593L46.2116 10.0213L46.4707 10.3042L47.2081 9.62877L47.9456 8.95339L47.6866 8.67055L46.9491 9.34593ZM47.2081 9.62877L46.4707 10.3042L46.7297 10.587L47.4672 9.91162L48.2046 9.23623L47.9456 8.95339L47.2081 9.62877ZM47.4672 9.91162L46.7297 10.587C46.8735 10.7441 47.0067 10.9096 47.1294 11.0839L47.9471 10.5082L48.7647 9.9325C48.5929 9.68845 48.4062 9.45629 48.2046 9.23623L47.4672 9.91162ZM47.9471 10.5082L47.1294 11.0839L47.3503 11.3976L48.168 10.8219L48.9856 10.2462L48.7647 9.9325L47.9471 10.5082ZM48.168 10.8219L47.3503 11.3976L47.5712 11.7114L48.3889 11.1357L49.2065 10.56L48.9856 10.2462L48.168 10.8219ZM48.3889 11.1357L47.5712 11.7114C47.6921 11.8831 47.8008 12.0624 47.8974 12.2497L48.7861 11.7912L49.6748 11.3327C49.5363 11.0643 49.3802 10.8066 49.2065 10.56L48.3889 11.1357ZM48.7861 11.7912L47.8974 12.2497L48.0737 12.5915L48.9624 12.133L49.8511 11.6745L49.6748 11.3327L48.7861 11.7912ZM48.9624 12.133L48.0737 12.5915L48.2501 12.9333L49.1388 12.4748L50.0275 12.0163L49.8511 11.6745L48.9624 12.133ZM49.1388 12.4748L48.2501 12.9333C48.3224 13.0735 48.3769 13.2288 48.411 13.4032L49.3924 13.211L50.3737 13.0187C50.3049 12.6673 50.1902 12.3318 50.0275 12.0163L49.1388 12.4748ZM49.3924 13.211L48.411 13.4032L48.4883 13.7976L49.4696 13.6053L50.451 13.4131L50.3737 13.0187L49.3924 13.211ZM49.4696 13.6053L48.4883 13.7976L48.5655 14.1919L49.5469 13.9997L50.5282 13.8074L50.451 13.4131L49.4696 13.6053ZM49.5469 13.9997L48.5655 14.1919C48.6466 14.6059 48.8186 14.9886 49.0883 15.3194L49.8634 14.6876L50.6385 14.0557C50.5891 13.9952 50.5501 13.9192 50.5282 13.8074L49.5469 13.9997ZM49.8634 14.6876L49.0883 15.3194L49.3276 15.613L50.1027 14.9811L50.8778 14.3492L50.6385 14.0557L49.8634 14.6876ZM50.1027 14.9811L49.3276 15.613L49.5669 15.9065L50.342 15.2746L51.1171 14.6428L50.8778 14.3492L50.1027 14.9811ZM50.342 15.2746L49.5669 15.9065C49.6938 16.0621 49.8072 16.2257 49.9074 16.3975L50.7712 15.8936L51.6349 15.3896C51.482 15.1276 51.3093 14.8785 51.1171 14.6428L50.342 15.2746ZM50.7712 15.8936L49.9074 16.3975L50.0973 16.7229L50.961 16.219L51.8248 15.715L51.6349 15.3896L50.7712 15.8936ZM50.961 16.219L50.0973 16.7229L50.2872 17.0484L51.1509 16.5444L52.0146 16.0404L51.8248 15.715L50.961 16.219ZM51.1509 16.5444L50.2872 17.0484C50.3748 17.1985 50.4438 17.3562 50.4947 17.5227L51.451 17.2304L52.4073 16.938C52.3113 16.6238 52.1802 16.3241 52.0146 16.0404L51.1509 16.5444ZM51.451 17.2304L50.4947 17.5227L50.6049 17.8833L51.5612 17.5909L52.5175 17.2986L52.4073 16.938L51.451 17.2304ZM51.5612 17.5909L50.6049 17.8833L50.7151 18.2438L51.6715 17.9515L52.6278 17.6591L52.5175 17.2986L51.5612 17.5909ZM51.6715 17.9515L50.7151 18.2438C50.7669 18.4132 50.8003 18.589 50.8147 18.7728L51.8116 18.6947L52.8086 18.6167C52.783 18.2902 52.723 17.9705 52.6278 17.6591L51.6715 17.9515ZM51.8116 18.6947L50.8147 18.7728L50.8447 19.1555L51.8416 19.0774L52.8386 18.9994L52.8086 18.6167L51.8116 18.6947ZM51.8416 19.0774L50.8447 19.1555L50.8746 19.5381L51.8716 19.4601L52.8685 19.3821L52.8386 18.9994L51.8416 19.0774ZM51.8716 19.4601L50.8746 19.5381C50.9046 19.9213 51.0063 20.2884 51.1799 20.6316L52.0722 20.1801L52.9645 19.7287C52.9105 19.6221 52.8785 19.5091 52.8685 19.3821L51.8716 19.4601ZM52.0722 20.1801L51.1799 20.6316L51.3506 20.9689L52.2429 20.5175L53.1352 20.066L52.9645 19.7287L52.0722 20.1801ZM52.2429 20.5175L51.3506 20.9689L51.5212 21.3063L52.4135 20.8548L53.3058 20.4034L53.1352 20.066L52.2429 20.5175ZM52.4135 20.8548L51.5212 21.3063C51.5275 21.3187 51.5366 21.3332 51.5251 21.3913L52.5059 21.5862L53.4867 21.7811C53.5796 21.3138 53.5271 20.8408 53.3058 20.4034L52.4135 20.8548ZM52.5059 21.5862L51.5251 21.3913L51.4468 21.7852L52.4276 21.9802L53.4084 22.1751L53.4867 21.7811L52.5059 21.5862ZM52.4276 21.9802L51.4468 21.7852L51.3685 22.1792L52.3493 22.3741L53.3301 22.5691L53.4084 22.1751L52.4276 21.9802ZM52.3493 22.3741L51.3685 22.1792C51.2634 22.7081 51.3716 23.2233 51.6712 23.666L52.4993 23.1055L53.3275 22.545C53.3223 22.5374 53.3215 22.5347 53.3225 22.5371C53.3237 22.5397 53.3257 22.5453 53.3273 22.5531C53.3289 22.5608 53.3293 22.5675 53.3293 22.5719C53.3293 22.5762 53.3289 22.5755 53.3301 22.5691L52.3493 22.3741ZM52.4993 23.1055L51.6712 23.666L51.8995 24.0033L52.7276 23.4429L53.5558 22.8824L53.3275 22.545L52.4993 23.1055ZM52.7276 23.4429L51.8995 24.0033L52.1278 24.3407L52.9559 23.7802L53.7841 23.2198L53.5558 22.8824L52.7276 23.4429ZM52.9559 23.7802L52.1278 24.3407C52.1916 24.4349 52.2111 24.5068 52.2157 24.5665L53.2127 24.4902L54.2098 24.4139C54.1764 23.9768 54.0247 23.5753 53.7841 23.2198L52.9559 23.7802ZM53.2127 24.4902L52.2157 24.5665L52.2442 24.9391L53.2412 24.8628L54.2383 24.7865L54.2098 24.4139L53.2127 24.4902ZM53.2412 24.8628L52.2442 24.9391L52.2727 25.3117L53.2697 25.2354L54.2668 25.1591L54.2383 24.7865L53.2412 24.8628ZM53.2697 25.2354L52.2727 25.3117C52.2893 25.5293 52.2958 25.747 52.2923 25.965L53.2921 25.9814L54.292 25.9978C54.2966 25.7179 54.2882 25.4383 54.2668 25.1591L53.2697 25.2354ZM53.2921 25.9814L52.2923 25.965L52.2861 26.3384L53.286 26.3548L54.2859 26.3712L54.292 25.9978L53.2921 25.9814ZM53.286 26.3548L52.2861 26.3384L52.28 26.7118L53.2799 26.7282L54.2797 26.7446L54.2859 26.3712L53.286 26.3548ZM53.2799 26.7282L52.28 26.7118C52.2759 26.9639 52.2729 27.2159 52.2712 27.4677L53.2712 27.4745L54.2712 27.4813C54.2729 27.2359 54.2757 26.9904 54.2797 26.7446L53.2799 26.7282ZM53.2712 27.4745L52.2712 27.4677L52.2687 27.8405L53.2687 27.8474L54.2686 27.8542L54.2712 27.4813L53.2712 27.4745ZM53.2687 27.8474L52.2687 27.8405L52.2661 28.2134L53.2661 28.2202L54.2661 28.227L54.2686 27.8542L53.2687 27.8474ZM53.2661 28.2202L52.2661 28.2134C52.2642 28.4902 52.2741 28.768 52.2955 29.0466L53.2926 28.9699L54.2896 28.8932C54.2724 28.6694 54.2646 28.4474 54.2661 28.227L53.2661 28.2202ZM53.2926 28.9699L52.2955 29.0466L52.3245 29.4235L53.3216 29.3468L54.3186 29.27L54.2896 28.8932L53.2926 28.9699ZM53.3216 29.3468L52.3245 29.4235L52.3535 29.8003L53.3506 29.7236L54.3476 29.6469L54.3186 29.27L53.3216 29.3468ZM53.3506 29.7236L52.3535 29.8003C52.3542 29.8091 52.3589 29.8308 52.318 29.8925L53.152 30.4443L53.986 30.9962C54.2486 30.5993 54.3856 30.1405 54.3476 29.6469L53.3506 29.7236ZM53.152 30.4443L52.318 29.8925L52.0905 30.2364L52.9244 30.7883L53.7584 31.3401L53.986 30.9962L53.152 30.4443ZM52.9244 30.7883L52.0905 30.2364L51.8629 30.5804L52.6969 31.1322L53.5308 31.684L53.7584 31.3401L52.9244 30.7883ZM52.6969 31.1322L51.8629 30.5804C51.6496 30.9027 51.4939 31.2545 51.4165 31.6337L52.3963 31.8338L53.3761 32.0338C53.396 31.9361 53.4407 31.8202 53.5308 31.684L52.6969 31.1322ZM52.3963 31.8338L51.4165 31.6337L51.3435 31.9914L52.3233 32.1914L53.3031 32.3914L53.3761 32.0338L52.3963 31.8338ZM52.3233 32.1914L51.3435 31.9914L51.2705 32.3491L52.2503 32.5491L53.2301 32.7491L53.3031 32.3914L52.3233 32.1914ZM52.2503 32.5491L51.2705 32.3491C51.2198 32.5971 51.1728 32.8463 51.1293 33.0967L52.1145 33.2679L53.0997 33.4391C53.1399 33.2079 53.1834 32.9779 53.2301 32.7491L52.2503 32.5491ZM52.1145 33.2679L51.1293 33.0967L51.0665 33.4578L52.0518 33.629L53.037 33.8002L53.0997 33.4391L52.1145 33.2679ZM52.0518 33.629L51.0665 33.4578L51.0038 33.8189L51.989 33.9901L52.9742 34.1613L53.037 33.8002L52.0518 33.629ZM51.989 33.9901L51.0038 33.8189C50.9271 34.2603 50.9877 34.6976 51.1247 35.1068L52.0729 34.7893L53.0212 34.4719C52.9626 34.297 52.9673 34.2015 52.9742 34.1613L51.989 33.9901ZM52.0729 34.7893L51.1247 35.1068L51.2713 35.5449L52.2196 35.2275L53.1679 34.91L53.0212 34.4719L52.0729 34.7893ZM52.2196 35.2275L51.2713 35.5449L51.418 35.983L52.3663 35.6656L53.3145 35.3481L53.1679 34.91L52.2196 35.2275ZM52.3663 35.6656L51.418 35.983C51.4353 36.0347 51.4318 36.05 51.4324 36.0372C51.4326 36.0308 51.4338 36.0205 51.4372 36.0078C51.4406 35.9951 51.4452 35.9841 51.4496 35.9758L52.3338 36.4428L53.218 36.9099C53.4908 36.3935 53.48 35.8423 53.3145 35.3481L52.3663 35.6656ZM52.3338 36.4428L51.4496 35.9758L51.2704 36.3149L52.1547 36.782L53.0389 37.249L53.218 36.9099L52.3338 36.4428ZM52.1547 36.782L51.2704 36.3149L51.0913 36.6541L51.9755 37.1211L52.8598 37.5882L53.0389 37.249L52.1547 36.782ZM51.9755 37.1211L51.0913 36.6541C51.0387 36.7536 50.9596 36.8544 50.8378 36.955L51.4747 37.726L52.1115 38.497C52.4187 38.2433 52.6735 37.9408 52.8598 37.5882L51.9755 37.1211ZM51.4747 37.726L50.8378 36.955L50.5161 37.2208L51.153 37.9917L51.7898 38.7627L52.1115 38.497L51.4747 37.726ZM51.153 37.9917L50.5161 37.2208L50.1944 37.4865L50.8313 38.2575L51.4681 39.0285L51.7898 38.7627L51.153 37.9917ZM50.8313 38.2575L50.1944 37.4865C49.7476 37.8556 49.5097 38.3682 49.5092 38.9437L50.5092 38.9445L51.5092 38.9453C51.5093 38.9389 51.5098 38.9411 51.508 38.95C51.506 38.9592 51.5022 38.9721 51.4954 38.9865C51.4886 39.001 51.4809 39.0127 51.4743 39.0211C51.4679 39.0292 51.4647 39.0313 51.4681 39.0285L50.8313 38.2575ZM50.5092 38.9445L49.5092 38.9437L49.5089 39.365L50.5089 39.3658L51.5089 39.3666L51.5092 38.9453L50.5092 38.9445ZM50.5089 39.3658L49.5089 39.365L49.5086 39.7863L50.5086 39.7871L51.5086 39.7879L51.5089 39.3666L50.5089 39.3658ZM50.5086 39.7871L49.5086 39.7863C49.5085 39.9074 49.4825 39.9761 49.4549 40.0224L50.3137 40.5346L51.1726 41.0468C51.4043 40.6582 51.5082 40.2286 51.5086 39.7879L50.5086 39.7871ZM50.3137 40.5346L49.4549 40.0224L49.2604 40.3485L50.1192 40.8607L50.9781 41.373L51.1726 41.0468L50.3137 40.5346ZM50.1192 40.8607L49.2604 40.3485L49.0658 40.6747L49.9247 41.1869L50.7835 41.6991L50.9781 41.373L50.1192 40.8607ZM49.9247 41.1869L49.0658 40.6747C48.9389 40.8875 48.8101 41.0996 48.6795 41.3108L49.5301 41.8366L50.3807 42.3625C50.5169 42.1422 50.6511 41.9211 50.7835 41.6991L49.9247 41.1869ZM49.5301 41.8366L48.6795 41.3108L48.4795 41.6344L49.3301 42.1602L50.1807 42.686L50.3807 42.3625L49.5301 41.8366ZM49.3301 42.1602L48.4795 41.6344L48.2795 41.9579L49.13 42.4838L49.9806 43.0096L50.1807 42.686L49.3301 42.1602ZM49.13 42.4838L48.2795 41.9579C48.2698 41.9736 48.2447 42.0109 48.1441 42.0532L48.5321 42.9749L48.9201 43.8965C49.3501 43.7155 49.7236 43.4254 49.9806 43.0096L49.13 42.4838ZM48.5321 42.9749L48.1441 42.0532L47.7462 42.2207L48.1342 43.1423L48.5222 44.064L48.9201 43.8965L48.5321 42.9749ZM48.1342 43.1423L47.7462 42.2207L47.3483 42.3882L47.7363 43.3098L48.1243 44.2315L48.5222 44.064L48.1342 43.1423ZM47.7363 43.3098L47.3483 42.3882C47.0677 42.5063 46.8079 42.6945 46.6127 42.9675C46.4195 43.2376 46.3268 43.5388 46.2968 43.8293L47.2915 43.9319L48.2863 44.0344C48.2876 44.0219 48.2845 44.0679 48.2396 44.1307C48.1927 44.1964 48.1396 44.2251 48.1243 44.2315L47.7363 43.3098ZM47.2915 43.9319L46.2968 43.8293L46.25 44.2839L47.2447 44.3864L48.2394 44.4889L48.2863 44.0344L47.2915 43.9319ZM47.2447 44.3864L46.25 44.2839L46.2031 44.7384L47.1978 44.8409L48.1926 44.9435L48.2394 44.4889L47.2447 44.3864ZM47.1978 44.8409L46.2031 44.7384C46.1979 44.7888 46.1891 44.7991 46.1955 44.7865C46.1987 44.7804 46.2041 44.7715 46.2121 44.7619C46.2201 44.7522 46.2281 44.7448 46.2344 44.74L46.8458 45.5313L47.4573 46.3226C47.9172 45.9671 48.1389 45.4644 48.1926 44.9435L47.1978 44.8409ZM46.8458 45.5313L46.2344 44.74L45.9292 44.9759L46.5406 45.7671L47.1521 46.5584L47.4573 46.3226L46.8458 45.5313ZM46.5406 45.7671L45.9292 44.9759L45.624 45.2117L46.2354 46.003L46.8469 46.7942L47.1521 46.5584L46.5406 45.7671ZM46.2354 46.003L45.624 45.2117C45.5061 45.3027 45.3683 45.3795 45.2045 45.4394L45.548 46.3786L45.8914 47.3178C46.2373 47.1913 46.5578 47.0176 46.8469 46.7942L46.2354 46.003ZM45.548 46.3786L45.2045 45.4394L44.8223 45.5792L45.1657 46.5184L45.5092 47.4576L45.8914 47.3178L45.548 46.3786ZM45.1657 46.5184L44.8223 45.5792L44.44 45.719L44.7834 46.6582L45.1269 47.5974L45.5092 47.4576L45.1657 46.5184ZM44.7834 46.6582L44.44 45.719C43.8901 45.9201 43.508 46.3315 43.3121 46.8552L44.2487 47.2055L45.1853 47.5559C45.1941 47.5325 45.1945 47.5427 45.1739 47.5637C45.1644 47.5734 45.1539 47.5819 45.1436 47.5884C45.1387 47.5915 45.1346 47.5938 45.1315 47.5953C45.1285 47.5968 45.1268 47.5974 45.1269 47.5974L44.7834 46.6582ZM44.2487 47.2055L43.3121 46.8552L43.1596 47.2627L44.0962 47.6131L45.0328 47.9635L45.1853 47.5559L44.2487 47.2055ZM44.0962 47.6131L43.1596 47.2627L43.0072 47.6703L43.9438 48.0207L44.8804 48.371L45.0328 47.9635L44.0962 47.6131ZM43.9438 48.0207L43.0072 47.6703C43.0014 47.6856 43.0087 47.659 43.0468 47.6233C43.0647 47.6065 43.0843 47.5926 43.1034 47.5823C43.1221 47.5721 43.1358 47.5679 43.1408 47.5665L43.3979 48.5329L43.6551 49.4993C44.2547 49.3397 44.6745 48.9214 44.8804 48.371L43.9438 48.0207ZM43.3979 48.5329L43.1408 47.5665L42.7474 47.6712L43.0046 48.6376L43.2618 49.604L43.6551 49.4993L43.3979 48.5329ZM43.0046 48.6376L42.7474 47.6712L42.3541 47.7759L42.6112 48.7423L42.8684 49.7086L43.2618 49.604L43.0046 48.6376ZM42.6112 48.7423L42.3541 47.7759C41.8986 47.8971 41.5027 48.1434 41.197 48.5087L41.9639 49.1504L42.7308 49.7922C42.7638 49.7528 42.7994 49.727 42.8684 49.7086L42.6112 48.7423ZM41.9639 49.1504L41.197 48.5087L40.943 48.8122L41.71 49.4539L42.4769 50.0957L42.7308 49.7922L41.9639 49.1504ZM41.71 49.4539L40.943 48.8122L40.6891 49.1157L41.456 49.7574L42.2229 50.3992L42.4769 50.0957L41.71 49.4539ZM41.456 49.7574L40.6891 49.1157C40.6583 49.1524 40.6346 49.1666 40.5902 49.177L40.8179 50.1507L41.0456 51.1245C41.5133 51.0151 41.915 50.7671 42.2229 50.3992L41.456 49.7574ZM40.8179 50.1507L40.5902 49.177L40.2061 49.2668L40.4338 50.2405L40.6614 51.2143L41.0456 51.1245L40.8179 50.1507ZM40.4338 50.2405L40.2061 49.2668L39.822 49.3566L40.0496 50.3304L40.2773 51.3041L40.6614 51.2143L40.4338 50.2405ZM40.0496 50.3304L39.822 49.3566C39.3617 49.4642 38.9656 49.7035 38.6514 50.0494L39.3916 50.7218L40.1318 51.3941C40.1828 51.3379 40.2255 51.3162 40.2773 51.3041L40.0496 50.3304ZM39.3916 50.7218L38.6514 50.0494L38.3774 50.351L39.1176 51.0233L39.8578 51.6957L40.1318 51.3941L39.3916 50.7218ZM39.1176 51.0233L38.3774 50.351L38.1035 50.6526L38.8437 51.3249L39.5839 51.9973L39.8578 51.6957L39.1176 51.0233ZM38.8437 51.3249L38.1035 50.6526C38.1097 50.6458 38.1234 50.6323 38.1458 50.6175C38.1686 50.6025 38.1949 50.5897 38.2227 50.5808C38.2809 50.5621 38.3119 50.5705 38.2922 50.5673L38.1296 51.554L37.967 52.5407C38.5575 52.638 39.1486 52.4765 39.5839 51.9973L38.8437 51.3249ZM38.1296 51.554L38.2922 50.5673L37.852 50.4948L37.6894 51.4815L37.5269 52.4682L37.967 52.5407L38.1296 51.554ZM37.6894 51.4815L37.852 50.4948L37.4119 50.4223L37.2493 51.409L37.0867 52.3957L37.5269 52.4682L37.6894 51.4815ZM37.2493 51.409L37.4119 50.4223C36.7671 50.316 36.1667 50.5397 35.7532 51.0536L36.5323 51.6805L37.3115 52.3074C37.3116 52.3072 37.303 52.3178 37.2836 52.3325C37.2636 52.3476 37.2367 52.3634 37.2042 52.3758C37.1337 52.4025 37.085 52.3954 37.0867 52.3957L37.2493 51.409ZM36.5323 51.6805L35.7532 51.0536L35.4764 51.3977L36.2555 52.0245L37.0346 52.6514L37.3115 52.3074L36.5323 51.6805ZM36.2555 52.0245L35.4764 51.3977L35.1996 51.7417L35.9787 52.3686L36.7578 52.9955L37.0346 52.6514L36.2555 52.0245ZM35.9787 52.3686L35.1996 51.7417C35.2019 51.7388 35.245 51.6889 35.3371 51.6569C35.4302 51.6245 35.4995 51.6362 35.5115 51.6391L35.2793 52.6118L35.0471 53.5844C35.3409 53.6546 35.6675 53.6594 35.9938 53.546C36.319 53.4329 36.5709 53.2278 36.7578 52.9955L35.9787 52.3686ZM35.2793 52.6118L35.5115 51.6391L35.0889 51.5382L34.8567 52.5109L34.6245 53.4835L35.0471 53.5844L35.2793 52.6118ZM34.8567 52.5109L35.0889 51.5382L34.6664 51.4373L34.4341 52.41L34.2019 53.3826L34.6245 53.4835L34.8567 52.5109ZM34.4341 52.41L34.6664 51.4373C34.317 51.3539 33.9686 51.3094 33.6243 51.3129L33.6343 52.3128L33.6444 53.3128C33.803 53.3112 33.9878 53.3315 34.2019 53.3826L34.4341 52.41ZM33.6343 52.3128L33.6243 51.3129L33.2471 51.3167L33.2571 52.3166L33.2672 53.3166L33.6444 53.3128L33.6343 52.3128ZM33.2571 52.3166L33.2471 51.3167L32.8699 51.3204L32.8799 52.3204L32.8899 53.3203L33.2672 53.3166L33.2571 52.3166ZM32.8799 52.3204L32.8699 51.3204C32.5563 51.3236 32.247 51.3558 31.9432 51.418L32.1438 52.3977L32.3444 53.3773C32.5191 53.3416 32.7006 53.3222 32.8899 53.3203L32.8799 52.3204ZM32.1438 52.3977L31.9432 51.418L31.5842 51.4915L31.7849 52.4712L31.9855 53.4509L32.3444 53.3773L32.1438 52.3977ZM31.7849 52.4712L31.5842 51.4915L31.2253 51.565L31.4259 52.5447L31.6266 53.5244L31.9855 53.4509L31.7849 52.4712ZM31.4259 52.5447L31.2253 51.565C30.8825 51.6352 30.5541 51.7586 30.2415 51.9267L30.715 52.8074L31.1885 53.6882C31.3452 53.604 31.4908 53.5522 31.6266 53.5244L31.4259 52.5447ZM30.715 52.8074L30.2415 51.9267L29.8895 52.1159L30.363 52.9967L30.8365 53.8775L31.1885 53.6882L30.715 52.8074ZM30.363 52.9967L29.8895 52.1159L29.5375 52.3051L30.011 53.1859L30.4845 54.0667L30.8365 53.8775L30.363 52.9967ZM30.011 53.1859L29.5375 52.3051C29.3177 52.4233 29.0915 52.5378 28.8588 52.6484L29.2884 53.5515L29.718 54.4545C29.9795 54.3301 30.235 54.2009 30.4845 54.0667L30.011 53.1859ZM29.2884 53.5515L28.8588 52.6484L28.4882 52.8248L28.9178 53.7278L29.3473 54.6308L29.718 54.4545L29.2884 53.5515ZM28.9178 53.7278L28.4882 52.8248L28.1176 53.0011L28.5471 53.9041L28.9767 54.8071L29.3473 54.6308L28.9178 53.7278ZM28.5471 53.9041L28.1176 53.0011C28.1335 52.9935 28.1619 52.9826 28.2009 52.9763C28.2407 52.9698 28.2821 52.9695 28.3216 52.9754C28.4015 52.9872 28.4311 53.017 28.4066 52.9983L27.8002 53.7935L27.1939 54.5887C27.4202 54.7613 27.6997 54.9051 28.0286 54.9538C28.3666 55.0039 28.6903 54.9434 28.9767 54.8071L28.5471 53.9041ZM27.8002 53.7935L28.4066 52.9983L28.0303 52.7114L27.424 53.5066L26.8176 54.3018L27.1939 54.5887L27.8002 53.7935ZM27.424 53.5066L28.0303 52.7114L27.6541 52.4245L27.0477 53.2197L26.4414 54.0149L26.8176 54.3018L27.424 53.5066ZM27.0477 53.2197L27.6541 52.4245C27.1833 52.0655 26.5762 51.902 25.9438 52.1354L26.29 53.0736L26.6363 54.0117C26.6223 54.0169 26.5994 54.0233 26.5692 54.026C26.5386 54.0287 26.5083 54.0269 26.4808 54.0216C26.4251 54.0109 26.4114 53.992 26.4414 54.0149L27.0477 53.2197ZM26.29 53.0736L25.9438 52.1354L25.5623 52.2762L25.9086 53.2144L26.2548 54.1525L26.6363 54.0117L26.29 53.0736ZM25.9086 53.2144L25.5623 52.2762L25.1809 52.417L25.5271 53.3552L25.8734 54.2933L26.2548 54.1525L25.9086 53.2144ZM25.5271 53.3552L25.1809 52.417C25.1805 52.4172 25.1886 52.4142 25.2043 52.412C25.2203 52.4099 25.2402 52.4092 25.262 52.4116C25.3094 52.4167 25.3344 52.4324 25.331 52.4303L24.797 53.2758L24.263 54.1213C24.7541 54.4314 25.3224 54.4967 25.8734 54.2933L25.5271 53.3552ZM24.797 53.2758L25.331 52.4303L24.9823 52.2101L24.4484 53.0556L23.9144 53.9011L24.263 54.1213L24.797 53.2758ZM24.4484 53.0556L24.9823 52.2101L24.6337 51.9899L24.0997 52.8354L23.5657 53.6809L23.9144 53.9011L24.4484 53.0556ZM24.0997 52.8354L24.6337 51.9899C24.2366 51.7391 23.7838 51.6103 23.2999 51.6449L23.3711 52.6423L23.4423 53.6398C23.465 53.6382 23.4979 53.638 23.5657 53.6809L24.0997 52.8354ZM23.3711 52.6423L23.2999 51.6449L22.9199 51.672L22.9911 52.6694L23.0624 53.6669L23.4423 53.6398L23.3711 52.6423ZM22.9911 52.6694L22.9199 51.672L22.5399 51.6991L22.6112 52.6966L22.6824 53.694L23.0624 53.6669L22.9911 52.6694ZM22.6112 52.6966L22.5399 51.6991C22.3838 51.7103 22.2363 51.6985 22.0938 51.6655L21.8683 52.6397L21.6429 53.614C21.9842 53.693 22.3319 53.7191 22.6824 53.694L22.6112 52.6966ZM21.8683 52.6397L22.0938 51.6655L21.7309 51.5815L21.5055 52.5558L21.28 53.53L21.6429 53.614L21.8683 52.6397ZM21.5055 52.5558L21.7309 51.5815L21.3681 51.4975L21.1426 52.4718L20.9171 53.446L21.28 53.53L21.5055 52.5558ZM21.1426 52.4718L21.3681 51.4975C21.1403 51.4448 20.9137 51.3872 20.6882 51.3246L20.4206 52.2881L20.153 53.2516C20.4064 53.322 20.6611 53.3868 20.9171 53.446L21.1426 52.4718ZM20.4206 52.2881L20.6882 51.3246L20.3291 51.2248L20.0615 52.1884L19.7939 53.1519L20.153 53.2516L20.4206 52.2881ZM20.0615 52.1884L20.3291 51.2248L19.97 51.1251L19.7024 52.0886L19.4348 53.0522L19.7939 53.1519L20.0615 52.1884ZM19.7024 52.0886L19.97 51.1251C19.6202 51.028 19.2587 50.9916 18.8918 51.0076L18.9353 52.0067L18.9788 53.0057C19.1558 52.998 19.3058 53.0163 19.4348 53.0522L19.7024 52.0886ZM18.9353 52.0067L18.8918 51.0076L18.4839 51.0253L18.5274 52.0244L18.5708 53.0235L18.9788 53.0057L18.9353 52.0067ZM18.5274 52.0244L18.4839 51.0253L18.0759 51.0431L18.1194 52.0422L18.1629 53.0412L18.5708 53.0235L18.5274 52.0244ZM18.1194 52.0422L18.0759 51.0431C17.9531 51.0484 17.8632 51.0272 17.7885 50.9923L17.3656 51.8985L16.9427 52.8047C17.3291 52.985 17.7418 53.0595 18.1629 53.0412L18.1194 52.0422ZM17.3656 51.8985L17.7885 50.9923L17.4426 50.8309L17.0198 51.7371L16.5969 52.6433L16.9427 52.8047L17.3656 51.8985ZM17.0198 51.7371L17.4426 50.8309L17.0968 50.6695L16.6739 51.5757L16.251 52.4819L16.5969 52.6433L17.0198 51.7371ZM16.6739 51.5757L17.0968 50.6695C16.915 50.5847 16.7408 50.4856 16.5738 50.3721L16.0114 51.1989L15.4489 52.0257C15.7042 52.1994 15.9717 52.3516 16.251 52.4819L16.6739 51.5757ZM16.0114 51.1989L16.5738 50.3721L16.2571 50.1566L15.6947 50.9835L15.1322 51.8103L15.4489 52.0257L16.0114 51.1989ZM15.6947 50.9835L16.2571 50.1566L15.9405 49.9412L15.378 50.768L14.8155 51.5949L15.1322 51.8103L15.6947 50.9835ZM15.378 50.768L15.9405 49.9412C15.796 49.8429 15.6613 49.7262 15.5361 49.5886L14.7965 50.2615L14.0568 50.9345C14.2847 51.185 14.5378 51.4059 14.8155 51.5949L15.378 50.768ZM14.7965 50.2615L15.5361 49.5886L15.2713 49.2975L14.5316 49.9704L13.792 50.6434L14.0568 50.9345L14.7965 50.2615ZM14.5316 49.9704L15.2713 49.2975L15.0064 49.0064L14.2668 49.6794L13.5271 50.3523L13.792 50.6434L14.5316 49.9704ZM14.2668 49.6794L15.0064 49.0064C14.8515 48.8361 14.7059 48.6596 14.5695 48.4768L13.768 49.0748L12.9665 49.6728C13.142 49.9079 13.3289 50.1345 13.5271 50.3523L14.2668 49.6794ZM13.768 49.0748L14.5695 48.4768L14.3356 48.1633L13.5341 48.7613L12.7326 49.3593L12.9665 49.6728L13.768 49.0748ZM13.5341 48.7613L14.3356 48.1633L14.1017 47.8498L13.3002 48.4478L12.4987 49.0458L12.7326 49.3593L13.5341 48.7613ZM13.3002 48.4478L14.1017 47.8498C13.884 47.558 13.626 47.3056 13.3262 47.1022L12.7648 47.9298L12.2033 48.7573C12.3056 48.8266 12.4045 48.9196 12.4987 49.0458L13.3002 48.4478ZM12.7648 47.9298L13.3262 47.1022L13.0246 46.8977L12.4632 47.7252L11.9018 48.5527L12.2033 48.7573L12.7648 47.9298ZM12.4632 47.7252L13.0246 46.8977L12.7231 46.6931L12.1617 47.5206L11.6002 48.3481L11.9018 48.5527L12.4632 47.7252ZM12.1617 47.5206L12.7231 46.6931C12.534 46.5648 12.3474 46.4322 12.1633 46.2953L11.5667 47.0979L10.9701 47.9004C11.1772 48.0544 11.3873 48.2036 11.6002 48.3481L12.1617 47.5206ZM11.5667 47.0979L12.1633 46.2953L11.8698 46.0772L11.2732 46.8797L10.6766 47.6822L10.9701 47.9004L11.5667 47.0979ZM11.2732 46.8797L11.8698 46.0772L11.5763 45.859L10.9797 46.6615L10.3831 47.4641L10.6766 47.6822L11.2732 46.8797ZM10.9797 46.6615L11.5763 45.859C11.3919 45.7219 11.2098 45.5805 11.0302 45.435L10.4008 46.2121L9.77137 46.9892C9.97241 47.152 10.1763 47.3103 10.3831 47.4641L10.9797 46.6615ZM10.4008 46.2121L11.0302 45.435L10.7447 45.2038L10.1153 45.9809L9.48586 46.7579L9.77137 46.9892L10.4008 46.2121ZM10.1153 45.9809L10.7447 45.2038L10.4592 44.9725L9.82977 45.7496L9.20036 46.5267L9.48586 46.7579L10.1153 45.9809ZM9.82977 45.7496L10.4592 44.9725C10.1133 44.6924 9.70508 44.5309 9.28284 44.4491L9.09254 45.4308L8.90225 46.4125C9.08231 46.4474 9.1656 46.4985 9.20036 46.5267L9.82977 45.7496ZM9.09254 45.4308L9.28284 44.4491L8.83112 44.3615L8.64082 45.3433L8.45053 46.325L8.90225 46.4125L9.09254 45.4308ZM8.64082 45.3433L8.83112 44.3615L8.37939 44.274L8.1891 45.2557L7.99881 46.2374L8.45053 46.325L8.64082 45.3433ZM8.1891 45.2557L8.37939 44.274C8.3743 44.273 8.44989 44.2876 8.53362 44.3701C8.62085 44.456 8.64478 44.5444 8.64887 44.5682L7.66334 44.7377L6.67782 44.9072C6.73127 45.218 6.8675 45.5362 7.12998 45.7948C7.38897 46.0499 7.70275 46.18 7.99881 46.2374L8.1891 45.2557ZM7.66334 44.7377L8.64887 44.5682L8.57484 44.1378L7.58931 44.3073L6.60378 44.4768L6.67782 44.9072L7.66334 44.7377ZM7.58931 44.3073L8.57484 44.1378L8.50081 43.7074L7.51528 43.8769L6.52975 44.0464L6.60378 44.4768L7.58931 44.3073ZM7.51528 43.8769L8.50081 43.7074C8.44934 43.4081 8.3259 43.1118 8.10442 42.8587C7.88467 42.6076 7.61111 42.4478 7.33258 42.3529L7.00987 43.2994L6.68715 44.2459C6.69621 44.2489 6.65068 44.2345 6.59939 44.1758C6.54639 44.1153 6.53186 44.0586 6.52975 44.0464L7.51528 43.8769ZM7.00987 43.2994L7.33258 42.3529L6.90121 42.2058L6.57849 43.1523L6.25578 44.0988L6.68715 44.2459L7.00987 43.2994ZM6.57849 43.1523L6.90121 42.2058L6.46983 42.0587L6.14712 43.0052L5.8244 43.9517L6.25578 44.0988L6.57849 43.1523ZM6.14712 43.0052L6.46983 42.0587C6.47175 42.0594 6.54768 42.0873 6.61937 42.1826C6.69241 42.2798 6.70099 42.3669 6.70146 42.3822L5.70194 42.4132L4.70242 42.4442C4.7121 42.7561 4.79947 43.0902 5.0209 43.3847C5.24098 43.6773 5.5349 43.853 5.8244 43.9517L6.14712 43.0052ZM5.70194 42.4132L6.70146 42.3822L6.68767 41.9373L5.68815 41.9683L4.68863 41.9993L4.70242 42.4442L5.70194 42.4132ZM5.68815 41.9683L6.68767 41.9373L6.67387 41.4924L5.67435 41.5234L4.67483 41.5544L4.68863 41.9993L5.68815 41.9683ZM5.67435 41.5234L6.67387 41.4924C6.66436 41.1856 6.58186 40.8686 6.38944 40.5827C6.19823 40.2986 5.93844 40.1046 5.66694 39.9779L5.24401 40.8841L4.82108 41.7902C4.82728 41.7931 4.77805 41.7705 4.73029 41.6995C4.68132 41.6267 4.67515 41.5645 4.67483 41.5544L5.67435 41.5234ZM5.24401 40.8841L5.66694 39.9779L5.2504 39.7835L4.82747 40.6897L4.40454 41.5958L4.82108 41.7902L5.24401 40.8841ZM4.82747 40.6897L5.2504 39.7835L4.83385 39.5891L4.41093 40.4952L3.988 41.4014L4.40454 41.5958L4.82747 40.6897ZM4.41093 40.4952L4.83385 39.5891C4.83133 39.5879 4.89995 39.6206 4.95973 39.7187C5.02137 39.8199 5.02265 39.9067 5.02139 39.9257L4.02357 39.8597L3.02575 39.7936C3.00504 40.1067 3.06115 40.4466 3.2519 40.7596C3.44081 41.0695 3.71284 41.273 3.988 41.4014L4.41093 40.4952ZM4.02357 39.8597L5.02139 39.9257L5.05058 39.4845L4.05276 39.4185L3.05494 39.3525L3.02575 39.7936L4.02357 39.8597ZM4.05276 39.4185L5.05058 39.4845L5.07976 39.0433L4.08195 38.9773L3.08413 38.9113L3.05494 39.3525L4.05276 39.4185ZM4.08195 38.9773L5.07976 39.0433C5.10049 38.7301 5.1114 38.4275 5.11211 38.1359L4.11211 38.1335L3.11211 38.1311C3.11152 38.3763 3.10232 38.6363 3.08413 38.9113L4.08195 38.9773ZM4.11211 38.1335L5.11211 38.1359L5.11308 37.7333L4.11309 37.7308L3.11309 37.7284L3.11211 38.1311L4.11211 38.1335ZM4.11309 37.7308L5.11308 37.7333L5.11406 37.3306L4.11406 37.3282L3.11407 37.3258L3.11309 37.7284L4.11309 37.7308ZM4.11406 37.3282L5.11406 37.3306C5.11594 36.5568 4.6155 36.0563 4.07531 35.799L3.64523 36.7018L3.21515 37.6045C3.27185 37.6315 3.24239 37.6305 3.19673 37.5694C3.17288 37.5376 3.15016 37.4964 3.1344 37.4481C3.11874 37.4001 3.11399 37.3574 3.11407 37.3258L4.11406 37.3282ZM3.64523 36.7018L4.07531 35.799L3.6055 35.5751L3.17542 36.4779L2.74534 37.3807L3.21515 37.6045L3.64523 36.7018ZM3.17542 36.4779L3.6055 35.5751L3.13568 35.3513L2.70561 36.2541L2.27553 37.1569L2.74534 37.3807L3.17542 36.4779ZM2.70561 36.2541L3.13568 35.3513C3.0713 35.3207 3.08114 35.312 3.113 35.3504C3.12991 35.3708 3.14929 35.4001 3.16517 35.4378C3.18111 35.4756 3.18952 35.5124 3.19264 35.544L2.19748 35.6422L1.20232 35.7405C1.27355 36.4619 1.76542 36.9139 2.27553 37.1569L2.70561 36.2541ZM2.19748 35.6422L3.19264 35.544L3.15432 35.1559L2.15916 35.2541L1.164 35.3524L1.20232 35.7405L2.19748 35.6422ZM2.15916 35.2541L3.15432 35.1559L3.116 34.7678L2.12084 34.866L1.12568 34.9643L1.164 35.3524L2.15916 35.2541ZM2.12084 34.866L3.116 34.7678C3.07928 34.3959 2.98088 34.0384 2.82208 33.7001L1.91686 34.125L1.01163 34.55C1.07371 34.6822 1.1113 34.8187 1.12568 34.9643L2.12084 34.866ZM1.91686 34.125L2.82208 33.7001L2.65642 33.3472L1.7512 33.7721L0.845974 34.1971L1.01163 34.55L1.91686 34.125ZM1.7512 33.7721L2.65642 33.3472L2.49076 32.9943L1.58554 33.4192L0.680314 33.8442L0.845974 34.1971L1.7512 33.7721ZM1.58554 33.4192L2.49076 32.9943C2.49611 33.0057 2.502 33.0219 2.50597 33.0416C2.50995 33.0614 2.51093 33.0795 2.51029 33.0939C2.50901 33.1229 2.50217 33.1195 2.52268 33.0764L1.61982 32.6465L0.716947 32.2165C0.482487 32.7089 0.417784 33.2849 0.680314 33.8442L1.58554 33.4192ZM1.61982 32.6465L2.52268 33.0764L2.72262 32.6565L1.81975 32.2266L0.916885 31.7966L0.716947 32.2165L1.61982 32.6465ZM1.81975 32.2266L2.72262 32.6565L2.92256 32.2366L2.01969 31.8067L1.11682 31.3768L0.916885 31.7966L1.81975 32.2266ZM2.01969 31.8067L2.92256 32.2366C3.05999 31.948 3.1367 31.6023 3.06981 31.2303C3.00334 30.8608 2.81314 30.5656 2.59209 30.3436L1.88344 31.0491L1.17479 31.7547C1.17786 31.7578 1.12244 31.7014 1.10139 31.5844C1.07991 31.4649 1.11269 31.3854 1.11682 31.3768L2.01969 31.8067ZM1.88344 31.0491L2.59209 30.3436L2.2559 30.0059L1.54725 30.7115L0.838605 31.417L1.17479 31.7547L1.88344 31.0491ZM1.54725 30.7115L2.2559 30.0059L1.91972 29.6682L1.21107 30.3738L0.502418 31.0794L0.838605 31.417L1.54725 30.7115ZM1.21107 30.3738L1.91972 29.6682C1.90963 29.6581 1.96845 29.7137 1.99178 29.8385C2.01664 29.9714 1.98007 30.0683 1.96609 30.0959L1.07444 29.6431L0.182794 29.1904C0.0357732 29.4799 -0.0445448 29.8296 0.0258528 30.2061C0.0947238 30.5744 0.28838 30.8644 0.502418 31.0794L1.21107 30.3738ZM1.07444 29.6431L1.96609 30.0959L2.16565 29.7028L1.274 29.2501L0.382355 28.7974L0.182794 29.1904L1.07444 29.6431ZM1.274 29.2501L2.16565 29.7028L2.36521 29.3098L1.47356 28.8571L0.581915 28.4043L0.382355 28.7974L1.274 29.2501ZM1.47356 28.8571L2.36521 29.3098C2.51735 29.0101 2.64516 28.7111 2.74579 28.413L1.79832 28.0932L0.850859 27.7733C0.784554 27.9697 0.695847 28.1799 0.581915 28.4043L1.47356 28.8571ZM1.79832 28.0932L2.74579 28.413L2.87099 28.0422L1.92353 27.7223L0.976061 27.4024L0.850859 27.7733L1.79832 28.0932ZM1.92353 27.7223L2.87099 28.0422L2.99619 27.6713L2.04873 27.3514L1.10126 27.0316L0.976061 27.4024L1.92353 27.7223ZM2.04873 27.3514L2.99619 27.6713C3.18237 27.1198 3.093 26.5741 2.8274 26.1054L1.95737 26.5984L1.08734 27.0914C1.10462 27.1219 1.09876 27.1228 1.09577 27.0982C1.09436 27.0865 1.09413 27.0731 1.09558 27.0595C1.09702 27.046 1.09967 27.0363 1.10126 27.0316L2.04873 27.3514ZM1.95737 26.5984L2.8274 26.1054L2.61084 25.7232L1.74081 26.2162L0.870783 26.7092L1.08734 27.0914L1.95737 26.5984ZM1.74081 26.2162L2.61084 25.7232L2.39428 25.341L1.52425 25.834L0.654224 26.327L0.870783 26.7092L1.74081 26.2162ZM1.52425 25.834L2.39428 25.341C2.3094 25.1912 2.27385 25.0673 2.26341 24.9643L1.2685 25.0651L0.273597 25.1659C0.315416 25.5786 0.450365 25.9673 0.654224 26.327L1.52425 25.834ZM1.2685 25.0651L2.26341 24.9643L2.22421 24.5775L1.22931 24.6783L0.234404 24.7792L0.273597 25.1659L1.2685 25.0651ZM1.22931 24.6783L2.22421 24.5775L2.18502 24.1907L1.19012 24.2916L0.195211 24.3924L0.234404 24.7792L1.22931 24.6783ZM1.19012 24.2916L2.18502 24.1907C2.1847 24.1875 2.18498 24.1878 2.18474 24.1905C2.18449 24.1933 2.18394 24.1958 2.1835 24.1973C2.18309 24.1987 2.18351 24.1967 2.18649 24.1908C2.18954 24.1848 2.19574 24.174 2.20724 24.1584L1.40336 23.5636L0.599488 22.9688C0.297926 23.3764 0.141605 23.8634 0.195211 24.3924L1.19012 24.2916ZM1.40336 23.5636L2.20724 24.1584L2.45967 23.8173L1.6558 23.2225L0.851927 22.6277L0.599488 22.9688L1.40336 23.5636ZM1.6558 23.2225L2.45967 23.8173L2.71211 23.4761L1.90824 22.8813L1.10437 22.2865L0.851927 22.6277L1.6558 23.2225ZM1.90824 22.8813L2.71211 23.4761C2.90548 23.2148 3.07639 22.9491 3.22254 22.6788L2.34293 22.2031L1.46332 21.7274C1.36647 21.9065 1.24759 22.0929 1.10437 22.2865L1.90824 22.8813ZM2.34293 22.2031L3.22254 22.6788L3.4048 22.3418L2.52519 21.8661L1.64558 21.3904L1.46332 21.7274L2.34293 22.2031ZM2.52519 21.8661L3.4048 22.3418L3.58705 22.0048L2.70745 21.5291L1.82784 21.0534L1.64558 21.3904L2.52519 21.8661ZM2.70745 21.5291L3.58705 22.0048C3.75977 21.6854 3.87792 21.3453 3.93599 20.9877L2.94891 20.8274L1.96184 20.6672C1.94096 20.7958 1.89813 20.9234 1.82784 21.0534L2.70745 21.5291ZM2.94891 20.8274L3.93599 20.9877L3.9952 20.6231L3.00813 20.4628L2.02106 20.3025L1.96184 20.6672L2.94891 20.8274ZM3.00813 20.4628L3.9952 20.6231L4.05441 20.2584L3.06734 20.0981L2.08027 19.9379L2.02106 20.3025L3.00813 20.4628ZM3.06734 20.0981L4.05441 20.2584C4.09605 20.002 4.13295 19.7419 4.16514 19.4783L3.17252 19.3571L2.17989 19.2359C2.1508 19.4741 2.11758 19.7081 2.08027 19.9379L3.06734 20.0981ZM3.17252 19.3571L4.16514 19.4783L4.21111 19.1018L3.21848 18.9806L2.22585 18.8594L2.17989 19.2359L3.17252 19.3571ZM3.21848 18.9806L4.21111 19.1018L4.25707 18.7254L3.26444 18.6042L2.27182 18.483L2.22585 18.8594L3.21848 18.9806ZM3.26444 18.6042L4.25707 18.7254C4.27194 18.6036 4.30774 18.4963 4.36492 18.3955L3.49508 17.9022L2.62524 17.4088C2.43619 17.7422 2.31823 18.1029 2.27182 18.483L3.26444 18.6042ZM3.49508 17.9022L4.36492 18.3955L4.54959 18.0699L3.67975 17.5766L2.80991 17.0832L2.62524 17.4088L3.49508 17.9022ZM3.67975 17.5766L4.54959 18.0699L4.73426 17.7443L3.86442 17.2509L2.99458 16.7576L2.80991 17.0832L3.67975 17.5766ZM3.86442 17.2509L4.73426 17.7443C4.87702 17.4926 5.00399 17.2337 5.11497 16.9679L4.19218 16.5826L3.26938 16.1973C3.18958 16.3885 3.09805 16.5752 2.99458 16.7576L3.86442 17.2509ZM4.19218 16.5826L5.11497 16.9679L5.25805 16.6252L4.33526 16.2399L3.41246 15.8547L3.26938 16.1973L4.19218 16.5826ZM4.33526 16.2399L5.25805 16.6252L5.40114 16.2825L4.47834 15.8973L3.55555 15.512L3.41246 15.8547L4.33526 16.2399ZM4.47834 15.8973L5.40114 16.2825C5.5554 15.9131 5.62138 15.52 5.62082 15.1204L4.62082 15.1218L3.62082 15.1232C3.62107 15.3006 3.59206 15.4245 3.55555 15.512L4.47834 15.8973ZM4.62082 15.1218L5.62082 15.1204L5.62021 14.6877L4.62021 14.6891L3.62021 14.6905L3.62082 15.1232L4.62082 15.1218ZM4.62021 14.6891L5.62021 14.6877L5.61961 14.255L4.61961 14.2564L3.61961 14.2578L3.62021 14.6905L4.62021 14.6891ZM4.61961 14.2564L5.61961 14.255C5.61962 14.2638 5.61613 14.3261 5.56962 14.4024C5.52338 14.4782 5.47092 14.5082 5.46655 14.5105L5.00605 13.6229L4.54554 12.7352C4.28314 12.8713 4.03727 13.0739 3.86221 13.3609C3.68688 13.6483 3.61919 13.9604 3.61961 14.2578L4.61961 14.2564ZM5.00605 13.6229L5.46655 14.5105L5.8536 14.3097L5.39309 13.4221L4.93259 12.5344L4.54554 12.7352L5.00605 13.6229ZM5.39309 13.4221L5.8536 14.3097L6.24064 14.1089L5.78014 13.2213L5.31963 12.3336L4.93259 12.5344L5.39309 13.4221ZM5.78014 13.2213L6.24064 14.1089C6.57145 13.9373 6.87309 13.7289 7.13271 13.4769L6.43624 12.7593L5.73977 12.0417C5.64065 12.1379 5.50488 12.2375 5.31963 12.3336L5.78014 13.2213ZM6.43624 12.7593L7.13271 13.4769L7.40176 13.2158L6.7053 12.4982L6.00883 11.7806L5.73977 12.0417L6.43624 12.7593ZM6.7053 12.4982L7.40176 13.2158L7.67082 12.9546L6.97436 12.2371L6.27789 11.5195L6.00883 11.7806L6.7053 12.4982ZM6.97436 12.2371L7.67082 12.9546C8.11698 12.5216 8.24324 11.9518 8.22263 11.4344L7.22343 11.4742L6.22422 11.514C6.22729 11.5912 6.21722 11.6156 6.22054 11.6054C6.22246 11.5995 6.22754 11.5863 6.23808 11.5691C6.24878 11.5516 6.26238 11.5345 6.27789 11.5195L6.97436 12.2371ZM7.22343 11.4742L8.22263 11.4344L8.20265 10.9327L7.20344 10.9725L6.20423 11.0123L6.22422 11.514L7.22343 11.4742ZM7.20344 10.9725L8.20265 10.9327L8.18266 10.431L7.18345 10.4708L6.18424 10.5106L6.20423 11.0123L7.20344 10.9725ZM7.18345 10.4708L8.18266 10.431C8.18287 10.4363 8.18558 10.6237 8.00858 10.7998C7.84529 10.9621 7.68738 10.9546 7.73168 10.9534L7.70333 9.9538L7.67498 8.9542C7.35937 8.96315 6.93485 9.04693 6.59828 9.38165C6.24798 9.73001 6.17071 10.1709 6.18424 10.5106L7.18345 10.4708ZM7.70333 9.9538L7.73168 10.9534L8.27154 10.9381L8.24319 9.93849L8.21485 8.93889L7.67498 8.9542L7.70333 9.9538ZM8.24319 9.93849L8.27154 10.9381L8.81141 10.9228L8.78306 9.92318L8.75471 8.92358L8.21485 8.93889L8.24319 9.93849ZM8.78306 9.92318L8.81141 10.9228C9.34505 10.9076 9.97894 10.7319 10.3653 10.141L9.52825 9.59379L8.69124 9.0466C8.71183 9.01511 8.73774 8.98609 8.76672 8.96208C8.79521 8.93848 8.82009 8.92514 8.835 8.91854C8.86121 8.90696 8.845 8.92102 8.75471 8.92358L8.78306 9.92318ZM9.52825 9.59379L10.3653 10.141L10.5706 9.82689L9.73358 9.27971L8.89656 8.73252L8.69124 9.0466L9.52825 9.59379ZM9.73358 9.27971L10.5706 9.82689L10.7759 9.51281L9.9389 8.96563L9.10189 8.41844L8.89656 8.73252L9.73358 9.27971ZM9.9389 8.96563L10.7759 9.51281C10.8795 9.35432 10.9953 9.20854 11.1234 9.07464L10.4008 8.38333L9.67828 7.69202C9.46424 7.91574 9.27204 8.15816 9.10189 8.41844L9.9389 8.96563ZM10.4008 8.38333L11.1234 9.07464L11.38 8.80642L10.6575 8.11512L9.93489 7.42381L9.67828 7.69202L10.4008 8.38333ZM10.6575 8.11512L11.38 8.80642L11.6366 8.53821L10.9141 7.8469L10.1915 7.15559L9.93489 7.42381L10.6575 8.11512ZM10.9141 7.8469L11.6366 8.53821C11.8895 8.27391 12.0931 7.96794 12.2541 7.63271L11.3527 7.19971L10.4513 6.76672C10.3696 6.93679 10.2808 7.06227 10.1915 7.15559L10.9141 7.8469ZM11.3527 7.19971L12.2541 7.63271L12.4362 7.25374L11.5348 6.82074L10.6334 6.38774L10.4513 6.76672L11.3527 7.19971ZM11.5348 6.82074L12.4362 7.25374L12.6182 6.87477L11.7168 6.44177L10.8154 6.00877L10.6334 6.38774L11.5348 6.82074ZM11.7168 6.44177L12.6182 6.87477C12.6675 6.77225 12.7166 6.72737 12.758 6.70101L12.2203 5.85783L11.6827 5.01464C11.2954 5.26158 11.0089 5.606 10.8154 6.00877L11.7168 6.44177ZM12.2203 5.85783L12.758 6.70101L13.0794 6.49604L12.5418 5.65285L12.0042 4.80966L11.6827 5.01464L12.2203 5.85783ZM12.5418 5.65285L13.0794 6.49604L13.4009 6.29107L12.8633 5.44788L12.3257 4.60469L12.0042 4.80966L12.5418 5.65285ZM12.8633 5.44788L13.4009 6.29107C13.4058 6.28794 13.4456 6.26024 13.5778 6.26812L13.6373 5.2699L13.6969 4.27167C13.2256 4.24356 12.7494 4.33452 12.3257 4.60469L12.8633 5.44788ZM13.6373 5.2699L13.5778 6.26812L14.0304 6.29512L14.0899 5.29689L14.1494 4.29866L13.6969 4.27167L13.6373 5.2699ZM14.0899 5.29689L14.0304 6.29512L14.4829 6.32211L14.5425 5.32388L14.602 4.32566L14.1494 4.29866L14.0899 5.29689ZM14.5425 5.32388L14.4829 6.32211C15.0659 6.35688 15.6344 6.15477 16.031 5.65251L15.2461 5.03284L14.4613 4.41317C14.4672 4.40569 14.4792 4.39232 14.4985 4.37752C14.518 4.36252 14.54 4.34984 14.5625 4.34054C14.6091 4.32124 14.6304 4.32735 14.602 4.32566L14.5425 5.32388ZM15.2461 5.03284L16.031 5.65251L16.2821 5.33448L15.4972 4.7148L14.7124 4.09513L14.4613 4.41317L15.2461 5.03284ZM15.4972 4.7148L16.2821 5.33448L16.5332 5.01644L15.7483 4.39677L14.9635 3.77709L14.7124 4.09513L15.4972 4.7148ZM15.7483 4.39677L16.5332 5.01644C16.5409 5.0067 16.5453 5.00269 16.5458 5.00226C16.5462 5.00195 16.5438 5.00402 16.539 5.00687C16.5341 5.00976 16.5291 5.01197 16.5251 5.01335C16.5211 5.0147 16.5207 5.0144 16.525 5.01378L16.3835 4.02384L16.242 3.0339C15.7198 3.10854 15.2821 3.37356 14.9635 3.77709L15.7483 4.39677ZM16.3835 4.02384L16.525 5.01378L16.9091 4.95888L16.7676 3.96894L16.6261 2.979L16.242 3.0339L16.3835 4.02384ZM16.7676 3.96894L16.9091 4.95888L17.2932 4.90399L17.1517 3.91405L17.0102 2.92411L16.6261 2.979L16.7676 3.96894ZM17.1517 3.91405L17.2932 4.90399C17.8094 4.83021 18.2408 4.5724 18.5682 4.19602L17.8136 3.53973L17.0591 2.88345C17.0327 2.9138 17.0178 2.92211 17.017 2.92256C17.0164 2.92289 17.0162 2.92298 17.0163 2.92294C17.0163 2.92293 17.0164 2.92291 17.0164 2.92289C17.0165 2.92287 17.0165 2.92286 17.0165 2.92286C17.0165 2.92287 17.0164 2.9229 17.0162 2.92295C17.016 2.923 17.0157 2.92308 17.0153 2.92319C17.0144 2.9234 17.0128 2.92374 17.0102 2.92411L17.1517 3.91405ZM17.8136 3.53973L18.5682 4.19602L18.846 3.8766L18.0915 3.22032L17.337 2.56403L17.0591 2.88345L17.8136 3.53973ZM18.0915 3.22032L18.846 3.8766L19.1238 3.55718L18.3693 2.9009L17.6148 2.24462L17.337 2.56403L18.0915 3.22032ZM18.3693 2.9009L19.1238 3.55718C19.2301 3.43497 19.3342 3.35815 19.4344 3.30891L18.9936 2.41133L18.5527 1.51374C18.1911 1.69137 17.8789 1.94093 17.6148 2.24462L18.3693 2.9009ZM18.9936 2.41133L19.4344 3.30891L19.7809 3.13876L19.34 2.24118L18.8992 1.34359L18.5527 1.51374L18.9936 2.41133ZM19.34 2.24118L19.7809 3.13876L20.1273 2.96861L19.6865 2.07102L19.2456 1.17344L18.8992 1.34359L19.34 2.24118ZM19.6865 2.07102L20.1273 2.96861C20.145 2.9599 20.1733 2.94708 20.2532 2.96267L20.4446 1.98115L20.636 0.999638C20.167 0.908185 19.6898 0.955278 19.2456 1.17344L19.6865 2.07102ZM20.4446 1.98115L20.2532 2.96267L20.6649 3.04295L20.8563 2.06143L21.0477 1.07992L20.636 0.999638L20.4446 1.98115ZM20.8563 2.06143L20.6649 3.04295L21.0766 3.12323L21.268 2.14171L21.4594 1.1602L21.0477 1.07992L20.8563 2.06143ZM21.268 2.14171L21.0766 3.12323C21.3735 3.18111 21.6639 3.22716 21.9476 3.2609L22.0657 2.2679L22.1838 1.2749C21.9529 1.24743 21.7115 1.20935 21.4594 1.1602L21.268 2.14171ZM22.0657 2.2679L21.9476 3.2609L22.3336 3.3068L22.4517 2.3138L22.5698 1.3208L22.1838 1.2749L22.0657 2.2679ZM22.4517 2.3138L22.3336 3.3068L22.7195 3.35271L22.8376 2.35971L22.9557 1.3667L22.5698 1.3208L22.4517 2.3138ZM22.8376 2.35971L22.7195 3.35271C23.0653 3.39383 23.41 3.38833 23.7501 3.33153L23.5853 2.3452L23.4206 1.35886C23.2784 1.38261 23.1246 1.38678 22.9557 1.3667L22.8376 2.35971ZM23.5853 2.3452L23.7501 3.33153L24.1118 3.27112L23.947 2.28478L23.7823 1.29845L23.4206 1.35886L23.5853 2.3452ZM23.947 2.28478L24.1118 3.27112L24.4734 3.21071L24.3087 2.22437L24.144 1.23803L23.7823 1.29845L23.947 2.28478ZM24.3087 2.22437L24.4734 3.21071C24.6583 3.17982 24.8446 3.16486 25.0327 3.16583L25.0378 2.16584L25.043 1.16585C24.7412 1.16431 24.4413 1.18836 24.144 1.23803L24.3087 2.22437ZM25.0378 2.16584L25.0327 3.16583L25.4002 3.16771L25.4053 2.16772L25.4104 1.16773L25.043 1.16585L25.0378 2.16584ZM25.4053 2.16772L25.4002 3.16771L25.7676 3.16959L25.7727 2.1696L25.7778 1.16962L25.4104 1.16773L25.4053 2.16772ZM25.7727 2.1696L25.7676 3.16959C26.3313 3.17248 26.8019 2.92216 27.1619 2.58031L26.4734 1.85509L25.7849 1.12987C25.74 1.17252 25.718 1.18144 25.7221 1.1796C25.7244 1.1786 25.7315 1.17573 25.7428 1.17329C25.7542 1.17082 25.7663 1.16956 25.7778 1.16962L25.7727 2.1696ZM26.4734 1.85509L27.1619 2.58031L27.4952 2.26391L26.8067 1.53869L26.1182 0.813475L25.7849 1.12987L26.4734 1.85509ZM26.8067 1.53869L27.4952 2.26391L27.8285 1.94751L27.1399 1.2223L26.4514 0.497078L26.1182 0.813475L26.8067 1.53869ZM27.1399 1.2223L27.8285 1.94751C27.9404 1.84122 27.9404 1.85728 27.8695 1.89604C27.8442 1.90985 27.7828 1.94166 27.6942 1.96628C27.6146 1.98842 27.4301 2.02842 27.2016 1.96923C26.93 1.89887 26.7104 1.71763 26.5861 1.48513C26.4821 1.29047 26.4732 1.11523 26.4732 1.04014H27.4732H28.4732C28.4732 0.942678 28.4609 0.749763 28.3499 0.542119C28.2186 0.296633 27.9886 0.107096 27.7032 0.0331405C27.4608 -0.0296494 27.2589 0.0114475 27.1585 0.0393771C27.0491 0.0697972 26.9633 0.112084 26.9103 0.141079C26.7283 0.24056 26.5616 0.392442 26.4514 0.497078L27.1399 1.2223ZM27.4732 1.04014H26.4732V1.17439H27.4732H28.4732V1.04014H27.4732ZM27.4732 1.17439H26.4732V1.30863H27.4732H28.4732V1.17439H27.4732ZM27.4732 1.30863H26.4732C26.4732 1.59777 26.5895 1.8936 26.8307 2.10911C27.0362 2.2927 27.2602 2.3533 27.3857 2.37657C27.6291 2.42172 27.8681 2.39043 28.0186 2.36506L27.8525 1.37896L27.6863 0.392863C27.584 0.410101 27.6333 0.388392 27.7504 0.410096C27.8126 0.421641 27.9893 0.462269 28.1631 0.617615C28.3728 0.804892 28.4732 1.06424 28.4732 1.30863H27.4732ZM27.8525 1.37896L28.0186 2.36506L28.3979 2.30115L28.2317 1.31505L28.0656 0.328952L27.6863 0.392863L27.8525 1.37896Z" fill="#F0F0F0"/>
<defs>
<clipPath id="clip0_526_565">
<path d="M1.47321 27.4429C1.47321 13.0835 13.1138 1.44287 27.4732 1.44287C41.8326 1.44287 53.4732 13.0835 53.4732 27.4429C53.4732 41.8023 41.8326 53.4429 27.4732 53.4429C13.1138 53.4429 1.47321 41.8023 1.47321 27.4429Z" fill="white"/>
</clipPath>
</defs>
</svg>
