<svg width="28" height="28" viewBox="0 0 28 28" fill="none" xmlns="http://www.w3.org/2000/svg">
<g clip-path="url(#clip0_3002_3166)">
<path d="M0.736328 13.7217C0.736328 6.54198 6.55663 0.72168 13.7363 0.72168V0.72168C20.916 0.72168 26.7363 6.54198 26.7363 13.7217V13.7217C26.7363 20.9014 20.916 26.7217 13.7363 26.7217V26.7217C6.55663 26.7217 0.736328 20.9014 0.736328 13.7217V13.7217Z" fill="#E2DFDA"/>
<circle cx="13.7363" cy="10.6494" r="4" fill="#335270"/>
<ellipse cx="13.7363" cy="23.6494" rx="9" ry="8" fill="#335270"/>
</g>
<path d="M14.3052 0.625813L14.2221 0.132765L14.3052 0.625813ZM14.6836 0.612557L14.6343 1.11012L14.6836 0.612557ZM15.4484 0.631668L15.3569 0.140112L15.4484 0.631668ZM15.6471 0.594682L15.5556 0.103125L15.6471 0.594682ZM15.8458 0.557695L15.7543 0.0661389L15.8458 0.557695ZM16.9103 1.04447L16.9605 0.547006L16.9103 1.04447ZM17.1006 1.0637L17.0504 1.56117L17.1006 1.0637ZM17.2909 1.08292L17.3412 0.585455L17.2909 1.08292ZM17.6568 1.17439L17.4666 1.63678L17.6568 1.17439ZM18.3257 1.53925L18.6865 1.1931L18.3257 1.53925ZM18.6099 1.8355L18.2491 2.18165L18.6099 1.8355ZM18.9406 2.01769L18.8517 2.50973L18.9406 2.01769ZM19.1292 2.05175L19.0403 2.54379L19.1292 2.05175ZM19.3178 2.08581L19.4066 1.59377L19.3178 2.08581ZM19.6682 2.21312L19.4185 2.64634L19.6682 2.21312ZM19.9918 2.39961L20.2415 1.96639L19.9918 2.39961ZM20.3921 2.80968L19.9926 3.11037L20.3921 2.80968ZM20.5113 2.9681L20.9108 2.66741L20.5113 2.9681ZM20.7921 3.21441L21.0311 2.7752L20.7921 3.21441ZM20.9537 3.30231L20.7148 3.74152L20.9537 3.30231ZM21.1153 3.3902L21.3542 2.95099L21.1153 3.3902ZM21.4952 3.50215L21.4405 3.99914L21.4952 3.50215ZM21.7136 3.52619L21.6588 4.02319L21.7136 3.52619ZM21.9319 3.55024L21.9866 3.05325L21.9319 3.55024ZM22.291 3.70203L22.627 3.33183L22.291 3.70203ZM22.4317 3.82977L22.0956 4.19996L22.4317 3.82977ZM22.5724 3.9575L22.9084 3.58731L22.5724 3.9575ZM22.871 4.19688L22.5824 4.60517L22.871 4.19688ZM23.1868 4.42015L23.4754 4.01186L23.1868 4.42015ZM23.4743 4.67321L23.843 4.33552L23.4743 4.67321ZM23.7333 4.95605L23.3646 5.29374L23.7333 4.95605ZM23.9733 5.25434L23.5644 5.54219L23.9733 5.25434ZM24.0837 5.41121L23.6749 5.69906L24.0837 5.41121ZM24.1942 5.56809L24.603 5.28024L24.1942 5.56809ZM24.3928 5.89585L23.9484 6.1251L24.3928 5.89585ZM24.5691 6.23765L24.1248 6.4669L24.5691 6.23765ZM24.6959 6.60573L24.2052 6.70184L24.6959 6.60573ZM24.7732 7.00008L25.2638 6.90396L24.7732 7.00008ZM24.9314 7.34402L25.319 7.02809L24.9314 7.34402ZM25.0511 7.49079L24.6635 7.80672L25.0511 7.49079ZM25.1707 7.63756L25.5583 7.32162L25.1707 7.63756ZM25.3853 7.94703L24.9534 8.19901L25.3853 7.94703ZM25.5752 8.27244L26.007 8.02046L25.5752 8.27244ZM25.7252 8.61543L26.2034 8.46925L25.7252 8.61543ZM25.7803 8.7957L25.3022 8.94188L25.7803 8.7957ZM25.8355 8.97598L25.3573 9.12216L25.8355 8.97598ZM25.9055 9.34761L25.4071 9.38663L25.9055 9.34761ZM25.9205 9.53895L26.419 9.49993L25.9205 9.53895ZM25.9355 9.7303L25.437 9.76932L25.9355 9.7303ZM26.0358 10.0903L26.482 9.86459L26.0358 10.0903ZM26.1212 10.259L26.5673 10.0333L26.1212 10.259ZM26.2065 10.4277L26.6526 10.2019L26.2065 10.4277ZM26.2527 10.7933L26.7431 10.8908L26.2527 10.7933ZM26.1744 11.1873L26.6648 11.2848L26.1744 11.1873ZM26.2494 11.553L25.8353 11.8332L26.2494 11.553ZM26.3635 11.7217L25.9494 12.0019L26.3635 11.7217ZM26.4777 11.8903L26.8918 11.6101L26.4777 11.8903ZM26.6061 12.2453L27.1046 12.2072L26.6061 12.2453ZM26.6346 12.6179L27.1331 12.5798L26.6346 12.6179ZM26.6458 12.991L27.1457 12.9992L26.6458 12.991ZM26.6397 13.3644L26.1397 13.3562L26.6397 13.3644ZM26.6353 13.7375L27.1353 13.7409L26.6353 13.7375ZM26.6328 14.1104L26.1328 14.1069L26.6328 14.1104ZM26.646 14.4852L27.1445 14.4468L26.646 14.4852ZM26.675 14.862L26.1765 14.9004L26.675 14.862ZM26.5757 15.2224L26.9927 15.4983L26.5757 15.2224ZM26.3482 15.5663L25.9312 15.2904L26.3482 15.5663ZM26.1979 15.9171L25.708 15.8171L26.1979 15.9171ZM26.1249 16.2748L26.6148 16.3748L26.1249 16.2748ZM26.057 16.6342L26.5496 16.7198L26.057 16.6342ZM25.9942 16.9953L25.5016 16.9097L25.9942 16.9953ZM26.0362 17.3949L25.5621 17.5536L26.0362 17.3949ZM26.1095 17.614L26.5837 17.4552L26.1095 17.614ZM26.1829 17.833L25.7087 17.9918L26.1829 17.833ZM26.1666 18.2217L26.6087 18.4552L26.1666 18.2217ZM25.9875 18.5608L25.5454 18.3273L25.9875 18.5608ZM25.7371 18.8633L26.0555 19.2487L25.7371 18.8633ZM25.4154 19.129L25.0969 18.7435L25.4154 19.129ZM25.2543 19.4725L25.7543 19.4729L25.2543 19.4725ZM25.2542 19.6832L24.7542 19.6828L25.2542 19.6832ZM25.254 19.8938L25.754 19.8942L25.254 19.8938ZM25.1566 20.2675L25.586 20.5237L25.1566 20.2675ZM24.9621 20.5937L25.3915 20.8498L24.9621 20.5937ZM24.7648 20.9186L25.1901 21.1815L24.7648 20.9186ZM24.6648 21.0803L25.0901 21.3433L24.6648 21.0803ZM24.5647 21.2421L24.1395 20.9792L24.5647 21.2421ZM24.2658 21.4877L24.4598 21.9485L24.2658 21.4877ZM24.0668 21.5714L23.8728 21.1106L24.0668 21.5714ZM23.8679 21.6552L24.0619 22.116L23.8679 21.6552ZM23.6455 21.9662L23.1481 21.9149L23.6455 21.9662ZM23.6221 22.1934L24.1194 22.2447L23.6221 22.1934ZM23.5986 22.4207L23.1013 22.3695L23.5986 22.4207ZM23.4226 22.7659L23.1169 22.3703L23.4226 22.7659ZM23.27 22.8838L22.9643 22.4882L23.27 22.8838ZM23.1174 23.0017L23.4232 23.3974L23.1174 23.0017ZM22.7737 23.1895L22.602 22.72L22.7737 23.1895ZM22.3914 23.3293L22.5632 23.7989L22.3914 23.3293ZM22.1241 23.603L22.5924 23.7782L22.1241 23.603ZM22.0478 23.8068L22.5161 23.982L22.0478 23.8068ZM21.9716 24.0106L21.5033 23.8354L21.9716 24.0106ZM21.6987 24.2667L21.8273 24.7499L21.6987 24.2667ZM21.3053 24.3714L21.1768 23.8882L21.3053 24.3714ZM20.9817 24.5755L21.3651 24.8963L20.9817 24.5755ZM20.8547 24.7272L21.2382 25.0481L20.8547 24.7272ZM20.7277 24.879L20.3443 24.5581L20.7277 24.879ZM20.4087 25.0756L20.5225 25.5625L20.4087 25.0756ZM20.2166 25.1205L20.1028 24.6336L20.2166 25.1205ZM20.0245 25.1654L20.1384 25.6523L20.0245 25.1654ZM19.6955 25.3611L20.0656 25.6973L19.6955 25.3611ZM19.4216 25.6627L19.0515 25.3265L19.4216 25.6627ZM19.0645 25.7772L19.1458 25.2839L19.0645 25.7772ZM18.8444 25.741L18.7632 26.2343L18.8444 25.741ZM18.6244 25.7047L18.5431 26.1981L18.6244 25.7047ZM18.2659 25.8405L18.6555 26.1539L18.2659 25.8405ZM18.1275 26.0125L17.7379 25.6991L18.1275 26.0125ZM17.9891 26.1845L17.5995 25.8711L17.9891 26.1845ZM17.6394 26.3061L17.7555 25.8198L17.6394 26.3061ZM17.4281 26.2557L17.312 26.742L17.4281 26.2557ZM17.2168 26.2052L17.3329 25.7189L17.2168 26.2052ZM16.8169 26.1567L16.8219 26.6566L16.8169 26.1567ZM16.4397 26.1604L16.4347 25.6605L16.4397 26.1604ZM16.0716 26.1991L15.9713 25.7092L16.0716 26.1991ZM15.8922 26.2358L15.9925 26.7257V26.7257L15.8922 26.2358ZM15.7127 26.2726L15.6124 25.7828L15.7127 26.2726ZM15.3572 26.404L15.594 26.8444L15.3572 26.404ZM15.1812 26.4986L14.9445 26.0582L15.1812 26.4986ZM15.0052 26.5932L14.7685 26.1528L15.0052 26.5932ZM14.6439 26.776L14.8587 27.2275L14.6439 26.776ZM14.4586 26.8641L14.6734 27.3157L14.4586 26.8641ZM14.2733 26.9523L14.0585 26.5008L14.2733 26.9523ZM13.8998 26.897L13.5967 27.2946L13.8998 26.897ZM13.7117 26.7535L13.4085 27.1511L13.7117 26.7535ZM13.5236 26.6101L13.8268 26.2125L13.5236 26.6101ZM13.1447 26.537L12.9716 26.068L13.1447 26.537ZM12.954 26.6074L13.1271 27.0765L12.954 26.6074ZM12.7633 26.6778L12.9364 27.1469L12.7633 26.6778ZM12.3982 26.6381L12.1312 27.0609L12.3982 26.6381ZM12.0496 26.4179L12.3166 25.9952L12.0496 26.4179ZM11.6853 26.3214L11.6497 25.8227L11.6853 26.3214ZM11.3053 26.3485L11.3409 26.8473L11.3053 26.3485ZM10.9339 26.3201L11.0466 25.833L10.9339 26.3201ZM10.7525 26.2781L10.6397 26.7653L10.7525 26.2781ZM10.571 26.2361L10.6838 25.749L10.571 26.2361ZM10.21 26.1443L10.3438 25.6625L10.21 26.1443ZM9.85092 26.0446L9.71713 26.5263L9.85092 26.0446ZM9.05943 26.0213L9.08117 26.5208L9.05943 26.0213ZM8.68253 25.9495L8.47109 26.4026L8.68253 25.9495ZM8.33668 25.7881L8.12524 26.2412L8.33668 25.7881ZM8.00541 25.5997L7.72418 26.0131L8.00541 25.5997ZM7.68872 25.3843L7.96995 24.9709L7.68872 25.3843ZM7.39796 25.131L7.02813 25.4675L7.39796 25.131ZM7.13311 24.8399L7.50294 24.5034L7.13311 24.8399ZM6.88373 24.5376L7.28447 24.2386L6.88373 24.5376ZM6.64982 24.2242L6.24909 24.5232L6.64982 24.2242ZM6.3821 23.9651L6.10139 24.3789L6.3821 23.9651ZM6.08056 23.7605L5.79985 24.1743L6.08056 23.7605ZM5.78306 23.5492L6.08136 23.1479L5.78306 23.5492ZM5.48959 23.331L5.19129 23.7323L5.48959 23.331ZM5.20011 23.1063L4.88541 23.4948L5.20011 23.1063ZM4.91461 22.8751L5.22931 22.4865L4.91461 22.8751ZM4.546 22.7157L4.45085 23.2065L4.546 22.7157ZM4.09427 22.6281L3.99913 23.119H3.99913L4.09427 22.6281ZM3.8314 22.3691L4.32416 22.2843L3.8314 22.3691ZM3.75736 21.9387L4.25013 21.8539L3.75736 21.9387ZM3.50466 21.6499L3.3433 22.1232L3.50466 21.6499ZM3.28897 21.5764L3.12761 22.0496L3.28897 21.5764ZM3.07328 21.5028L3.23464 21.0296L3.07328 21.5028ZM2.8507 21.2068L2.35094 21.2223L2.8507 21.2068ZM2.62173 20.4423L2.41027 20.8954L2.62173 20.4423ZM2.20519 20.2479L2.41665 19.7948L2.20519 20.2479ZM2.01151 19.9301L1.5126 19.8971L2.01151 19.9301ZM2.0261 19.7095L1.52719 19.6765L2.0261 19.7095ZM2.0407 19.4889L2.53961 19.5219L2.0407 19.4889ZM2.05676 18.6643L1.55676 18.6631L2.05676 18.6643ZM1.82234 18.3511L1.6073 18.8025L1.82234 18.3511ZM1.09846 17.8214L1.59604 17.7722L1.09846 17.8214ZM1.06014 17.4333L0.562562 17.4824L1.06014 17.4333ZM0.958152 17.0628L1.41076 16.8503L0.958152 17.0628ZM0.875322 16.8863L1.32793 16.6738L0.875322 16.8863ZM0.792492 16.7099L0.339881 16.9223L0.792492 16.7099ZM1.00957 15.9036L1.461 16.1185V16.1185L1.00957 15.9036ZM0.941444 15.5248L1.29577 15.172L0.941444 15.5248ZM0.773351 15.356L0.419026 15.7088L0.773351 15.356ZM0.605257 15.1871L0.959582 14.8344L0.605257 15.1871ZM0.536943 14.8218L0.0911206 14.5954L0.536943 14.8218ZM0.736504 14.4288L1.18233 14.6551L0.736504 14.4288ZM0.898885 14.0468L0.425153 13.8869L0.898885 14.0468ZM1.02409 13.676L1.49782 13.8359L1.02409 13.676ZM0.97841 13.2994L0.543395 13.5459L0.97841 13.2994ZM0.87013 13.1084L1.30515 12.8619L0.87013 13.1084ZM0.761851 12.9173L1.19687 12.6708L0.761851 12.9173ZM0.633975 12.5328L0.136522 12.5832L0.633975 12.5328ZM0.614378 12.3394L1.11183 12.289L0.614378 12.3394ZM0.594782 12.146L0.0973291 12.1964L0.594782 12.146ZM0.701404 11.7821L1.10334 12.0795L0.701404 11.7821ZM0.953843 11.4409L0.551906 11.1435L0.953843 11.4409ZM1.17119 11.1018L1.61099 11.3396L1.17119 11.1018ZM1.26232 10.9333L0.822514 10.6954L1.26232 10.9333ZM1.35345 10.7648L1.79325 11.0026L1.35345 10.7648ZM1.53339 10.0493L2.02693 10.1295L1.53339 10.0493ZM1.58598 9.67878L2.0823 9.73938L1.58598 9.67878ZM1.60896 9.49056L1.11265 9.42996L1.60896 9.49056ZM1.63195 9.30235L1.13563 9.24174L1.63195 9.30235ZM1.74726 8.95132L2.18218 9.19799L1.74726 8.95132ZM1.8396 8.78852L1.40468 8.54185L1.8396 8.78852ZM1.93193 8.62571L1.49701 8.37905L1.93193 8.62571ZM2.23889 7.94887L1.7775 7.75623L2.23889 7.94887ZM2.30983 7.3448L2.80983 7.3441L2.30983 7.3448ZM2.30953 7.12843L1.80953 7.12913L2.30953 7.12843ZM2.50275 6.81167L2.27249 6.36784L2.50275 6.81167ZM2.88979 6.61087L3.12005 7.0547L2.88979 6.61087ZM3.21784 6.37991L2.86961 6.02111L3.21784 6.37991ZM3.35237 6.24934L3.00414 5.89054L3.35237 6.24934ZM3.4869 6.11877L3.83513 6.47757L3.4869 6.11877ZM3.61144 5.73735L4.11104 5.71745L3.61144 5.73735ZM3.60144 5.4865L3.10184 5.5064L3.60144 5.4865ZM3.59145 5.23565L3.09185 5.25555L3.59145 5.23565ZM3.85139 4.97714L3.83721 4.47734L3.85139 4.97714ZM4.39125 4.96183L4.40543 5.46163L4.39125 4.96183ZM4.76385 4.79714L4.34534 4.52355L4.76385 4.79714ZM4.96917 4.48306L5.38768 4.75665L4.96917 4.48306ZM5.45676 3.92369L5.81804 4.26935L5.45676 3.92369ZM5.67608 3.6001L6.12678 3.8166L5.67608 3.6001ZM5.85813 3.22113L5.40743 3.00463L5.85813 3.22113ZM6.10989 2.92916L5.84108 2.50756L6.10989 2.92916ZM6.27063 2.82667L6.53944 3.24826L6.27063 2.82667ZM6.43137 2.72418L6.16256 2.30259L6.43137 2.72418ZM6.81839 2.63519L6.78862 3.13431L6.81839 2.63519ZM7.04467 2.64869L7.0149 3.1478L7.04467 2.64869ZM7.27095 2.66219L7.30072 2.16307L7.27095 2.66219ZM7.62279 2.51666L7.23036 2.20683L7.62279 2.51666ZM7.87389 2.19863L8.26632 2.50846L7.87389 2.19863ZM8.19149 2.01216L8.12075 1.51719L8.19149 2.01216ZM9.04546 1.6104L8.6682 1.28226L9.04546 1.6104ZM9.18438 1.45069L9.56163 1.77883L9.18438 1.45069ZM9.49651 1.20591L9.71693 1.6547L9.49651 1.20591ZM9.84295 1.03576L9.62253 0.586964L9.84295 1.03576ZM10.222 0.99082L10.1263 1.48158L10.222 0.99082ZM11.4185 1.1801L11.3595 1.6766L11.4185 1.1801ZM12.1541 1.11243L12.2364 1.6056L12.1541 1.11243ZM13.2364 0.927788L13.5807 1.2904L13.2364 0.927788ZM13.5697 0.611392L13.2254 0.248783L13.5697 0.611392ZM14.1156 0.657769L14.1987 1.15082L14.3883 1.11886L14.3052 0.625813L14.2221 0.132765L14.0325 0.16472L14.1156 0.657769ZM14.3052 0.625813L14.3883 1.11886C14.4716 1.10482 14.5532 1.10209 14.6343 1.11012L14.6836 0.612557L14.7329 0.114994C14.5623 0.0980924 14.3917 0.104196 14.2221 0.132765L14.3052 0.625813ZM14.6836 0.612557L14.6343 1.11012L14.823 1.12882L14.8723 0.631256L14.9216 0.133693L14.7329 0.114994L14.6836 0.612557ZM14.8723 0.631256L14.823 1.12882L15.0117 1.14752L15.061 0.649955L15.1103 0.152392L14.9216 0.133693L14.8723 0.631256ZM15.061 0.649955L15.0117 1.14752C15.1874 1.16494 15.364 1.15595 15.5399 1.12322L15.4484 0.631668L15.3569 0.140112C15.2678 0.156697 15.1861 0.159907 15.1103 0.152392L15.061 0.649955ZM15.4484 0.631668L15.5399 1.12322L15.7386 1.08624L15.6471 0.594682L15.5556 0.103125L15.3569 0.140112L15.4484 0.631668ZM15.6471 0.594682L15.7386 1.08624L15.9373 1.04925L15.8458 0.557695L15.7543 0.0661389L15.5556 0.103125L15.6471 0.594682ZM15.8458 0.557695L15.9373 1.04925C15.9388 1.04896 15.9373 1.04938 15.9333 1.0493C15.9293 1.04922 15.9243 1.04865 15.9192 1.0474C15.9141 1.04617 15.9106 1.04471 15.9092 1.04402C15.9079 1.04338 15.9096 1.04402 15.9141 1.04744L16.2133 0.646844L16.5126 0.246251C16.2936 0.0826809 16.0305 0.0147257 15.7543 0.0661389L15.8458 0.557695ZM16.2133 0.646844L15.9141 1.04744L16.083 1.17357L16.3822 0.772979L16.6814 0.372386L16.5126 0.246251L16.2133 0.646844ZM16.3822 0.772979L16.083 1.17357L16.2519 1.29971L16.5511 0.899114L16.8503 0.498521L16.6814 0.372386L16.3822 0.772979ZM16.5511 0.899114L16.2519 1.29971C16.4295 1.43237 16.6339 1.5191 16.86 1.54194L16.9103 1.04447L16.9605 0.547006C16.9329 0.544216 16.8979 0.534035 16.8503 0.498521L16.5511 0.899114ZM16.9103 1.04447L16.86 1.54194L17.0504 1.56117L17.1006 1.0637L17.1509 0.566231L16.9605 0.547006L16.9103 1.04447ZM17.1006 1.0637L17.0504 1.56117L17.2407 1.58039L17.2909 1.08292L17.3412 0.585455L17.1509 0.566231L17.1006 1.0637ZM17.2909 1.08292L17.2407 1.58039C17.3198 1.58839 17.3946 1.60716 17.4666 1.63678L17.6568 1.17439L17.8471 0.712C17.685 0.645297 17.5158 0.603095 17.3412 0.585455L17.2909 1.08292ZM17.6568 1.17439L17.4666 1.63678L17.6422 1.70903L17.8324 1.24663L18.0227 0.784242L17.8471 0.712L17.6568 1.17439ZM17.8324 1.24663L17.6422 1.70903L17.8178 1.78127L18.008 1.31888L18.1983 0.856485L18.0227 0.784242L17.8324 1.24663ZM18.008 1.31888L17.8178 1.78127C17.8654 1.80087 17.9143 1.83271 17.9649 1.88539L18.3257 1.53925L18.6865 1.1931C18.5476 1.04828 18.3847 0.933202 18.1983 0.856485L18.008 1.31888ZM18.3257 1.53925L17.9649 1.88539L18.107 2.03352L18.4678 1.68737L18.8286 1.34123L18.6865 1.1931L18.3257 1.53925ZM18.4678 1.68737L18.107 2.03352L18.2491 2.18165L18.6099 1.8355L18.9707 1.48936L18.8286 1.34123L18.4678 1.68737ZM18.6099 1.8355L18.2491 2.18165C18.4113 2.35076 18.6147 2.46692 18.8517 2.50973L18.9406 2.01769L19.0295 1.52565C19.0151 1.52305 18.998 1.51775 18.9707 1.48936L18.6099 1.8355ZM18.9406 2.01769L18.8517 2.50973L19.0403 2.54379L19.1292 2.05175L19.2181 1.55971L19.0295 1.52565L18.9406 2.01769ZM19.1292 2.05175L19.0403 2.54379L19.2289 2.57785L19.3178 2.08581L19.4066 1.59377L19.2181 1.55971L19.1292 2.05175ZM19.3178 2.08581L19.2289 2.57785C19.2996 2.59061 19.3618 2.61363 19.4185 2.64634L19.6682 2.21312L19.9178 1.7799C19.7588 1.68828 19.5874 1.62643 19.4066 1.59377L19.3178 2.08581ZM19.6682 2.21312L19.4185 2.64634L19.5804 2.73958L19.83 2.30636L20.0796 1.87314L19.9178 1.7799L19.6682 2.21312ZM19.83 2.30636L19.5804 2.73958L19.7422 2.83283L19.9918 2.39961L20.2415 1.96639L20.0796 1.87314L19.83 2.30636ZM19.9918 2.39961L19.7422 2.83283C19.7881 2.85932 19.8319 2.8968 19.8734 2.95195L20.2729 2.65127L20.6723 2.35058C20.5549 2.19452 20.4112 2.06423 20.2415 1.96639L19.9918 2.39961ZM20.2729 2.65127L19.8734 2.95195L19.9926 3.11037L20.3921 2.80968L20.7916 2.509L20.6723 2.35058L20.2729 2.65127ZM20.3921 2.80968L19.9926 3.11037L20.1118 3.26878L20.5113 2.9681L20.9108 2.66741L20.7916 2.509L20.3921 2.80968ZM20.5113 2.9681L20.1118 3.26878C20.2309 3.427 20.3779 3.55825 20.5532 3.65362L20.7921 3.21441L21.0311 2.7752C20.991 2.75337 20.9507 2.72042 20.9108 2.66741L20.5113 2.9681ZM20.7921 3.21441L20.5532 3.65362L20.7148 3.74152L20.9537 3.30231L21.1926 2.86309L21.0311 2.7752L20.7921 3.21441ZM20.9537 3.30231L20.7148 3.74152L20.8763 3.82942L21.1153 3.3902L21.3542 2.95099L21.1926 2.86309L20.9537 3.30231ZM21.1153 3.3902L20.8763 3.82942C21.0511 3.92446 21.2426 3.97735 21.4405 3.99914L21.4952 3.50215L21.5499 3.00515C21.4567 2.99488 21.3949 2.97314 21.3542 2.95099L21.1153 3.3902ZM21.4952 3.50215L21.4405 3.99914L21.6588 4.02319L21.7136 3.52619L21.7683 3.0292L21.5499 3.00515L21.4952 3.50215ZM21.7136 3.52619L21.6588 4.02319L21.8772 4.04724L21.9319 3.55024L21.9866 3.05325L21.7683 3.0292L21.7136 3.52619ZM21.9319 3.55024L21.8772 4.04724C21.9349 4.05359 21.9509 4.06859 21.9549 4.07222L22.291 3.70203L22.627 3.33183C22.4434 3.16514 22.2201 3.07895 21.9866 3.05325L21.9319 3.55024ZM22.291 3.70203L21.9549 4.07222L22.0956 4.19996L22.4317 3.82977L22.7677 3.45957L22.627 3.33183L22.291 3.70203ZM22.4317 3.82977L22.0956 4.19996L22.2363 4.3277L22.5724 3.9575L22.9084 3.58731L22.7677 3.45957L22.4317 3.82977ZM22.5724 3.9575L22.2363 4.3277C22.3454 4.42675 22.4608 4.51923 22.5824 4.60517L22.871 4.19688L23.1596 3.78859C23.0706 3.72568 22.9869 3.65858 22.9084 3.58731L22.5724 3.9575ZM22.871 4.19688L22.5824 4.60517L22.7403 4.7168L23.0289 4.30852L23.3175 3.90023L23.1596 3.78859L22.871 4.19688ZM23.0289 4.30852L22.7403 4.7168L22.8982 4.82844L23.1868 4.42015L23.4754 4.01186L23.3175 3.90023L23.0289 4.30852ZM23.1868 4.42015L22.8982 4.82844C22.9746 4.88244 23.0435 4.94317 23.1055 5.0109L23.4743 4.67321L23.843 4.33552C23.7323 4.21469 23.6096 4.10672 23.4754 4.01186L23.1868 4.42015ZM23.4743 4.67321L23.1055 5.0109L23.2351 5.15232L23.6038 4.81463L23.9725 4.47694L23.843 4.33552L23.4743 4.67321ZM23.6038 4.81463L23.2351 5.15232L23.3646 5.29374L23.7333 4.95605L24.102 4.61836L23.9725 4.47694L23.6038 4.81463ZM23.7333 4.95605L23.3646 5.29374C23.4365 5.37228 23.5031 5.45506 23.5644 5.54219L23.9733 5.25434L24.3821 4.9665C24.2962 4.84447 24.2028 4.72839 24.102 4.61836L23.7333 4.95605ZM23.9733 5.25434L23.5644 5.54219L23.6749 5.69906L24.0837 5.41121L24.4925 5.12337L24.3821 4.9665L23.9733 5.25434ZM24.0837 5.41121L23.6749 5.69906L23.7853 5.85593L24.1942 5.56809L24.603 5.28024L24.4925 5.12337L24.0837 5.41121ZM24.1942 5.56809L23.7853 5.85593C23.8458 5.94177 23.9001 6.03144 23.9484 6.1251L24.3928 5.89585L24.8371 5.66661C24.7679 5.5324 24.6898 5.40356 24.603 5.28024L24.1942 5.56809ZM24.3928 5.89585L23.9484 6.1251L24.0366 6.296L24.4809 6.06675L24.9253 5.83751L24.8371 5.66661L24.3928 5.89585ZM24.4809 6.06675L24.0366 6.296L24.1248 6.4669L24.5691 6.23765L25.0135 6.00841L24.9253 5.83751L24.4809 6.06675ZM24.5691 6.23765L24.1248 6.4669C24.1609 6.53701 24.1882 6.61465 24.2052 6.70184L24.6959 6.60573L25.1866 6.50961C25.1522 6.3339 25.0948 6.16615 25.0135 6.00841L24.5691 6.23765ZM24.6959 6.60573L24.2052 6.70184L24.2439 6.89902L24.7345 6.8029L25.2252 6.70679L25.1866 6.50961L24.6959 6.60573ZM24.7345 6.8029L24.2439 6.89902L24.2825 7.0962L24.7732 7.00008L25.2638 6.90396L25.2252 6.70679L24.7345 6.8029ZM24.7732 7.00008L24.2825 7.0962C24.323 7.30321 24.409 7.49454 24.5439 7.65996L24.9314 7.34402L25.319 7.02809C25.2943 6.99783 25.2748 6.95986 25.2638 6.90396L24.7732 7.00008ZM24.9314 7.34402L24.5439 7.65996L24.6635 7.80672L25.0511 7.49079L25.4386 7.17486L25.319 7.02809L24.9314 7.34402ZM25.0511 7.49079L24.6635 7.80672L24.7832 7.95349L25.1707 7.63756L25.5583 7.32162L25.4386 7.17486L25.0511 7.49079ZM25.1707 7.63756L24.7832 7.95349C24.8466 8.03131 24.9033 8.11309 24.9534 8.19901L25.3853 7.94703L25.8172 7.69505C25.7407 7.56402 25.6544 7.4395 25.5583 7.32162L25.1707 7.63756ZM25.3853 7.94703L24.9534 8.19901L25.0484 8.36172L25.4802 8.10973L25.9121 7.85775L25.8172 7.69505L25.3853 7.94703ZM25.4802 8.10973L25.0484 8.36172L25.1433 8.52442L25.5752 8.27244L26.007 8.02046L25.9121 7.85775L25.4802 8.10973ZM25.5752 8.27244L25.1433 8.52442C25.1871 8.59951 25.2216 8.67833 25.2471 8.7616L25.7252 8.61543L26.2034 8.46925C26.1554 8.31215 26.0898 8.16232 26.007 8.02046L25.5752 8.27244ZM25.7252 8.61543L25.2471 8.7616L25.3022 8.94188L25.7803 8.7957L26.2585 8.64953L26.2034 8.46925L25.7252 8.61543ZM25.7803 8.7957L25.3022 8.94188L25.3573 9.12216L25.8355 8.97598L26.3136 8.82981L26.2585 8.64953L25.7803 8.7957ZM25.8355 8.97598L25.3573 9.12216C25.3832 9.20684 25.3999 9.29475 25.4071 9.38663L25.9055 9.34761L26.404 9.30859C26.3912 9.14533 26.3612 8.98549 26.3136 8.82981L25.8355 8.97598ZM25.9055 9.34761L25.4071 9.38663L25.422 9.57797L25.9205 9.53895L26.419 9.49993L26.404 9.30859L25.9055 9.34761ZM25.9205 9.53895L25.422 9.57797L25.437 9.76932L25.9355 9.7303L26.434 9.69128L26.419 9.49993L25.9205 9.53895ZM25.9355 9.7303L25.437 9.76932C25.452 9.96091 25.5029 10.1445 25.5897 10.316L26.0358 10.0903L26.482 9.86459C26.455 9.81127 26.4389 9.75481 26.434 9.69128L25.9355 9.7303ZM26.0358 10.0903L25.5897 10.316L25.675 10.4847L26.1212 10.259L26.5673 10.0333L26.482 9.86459L26.0358 10.0903ZM26.1212 10.259L25.675 10.4847L25.7603 10.6534L26.2065 10.4277L26.6526 10.2019L26.5673 10.0333L26.1212 10.259ZM26.2065 10.4277L25.7603 10.6534C25.7635 10.6596 25.768 10.6668 25.7623 10.6959L26.2527 10.7933L26.7431 10.8908C26.7895 10.6572 26.7633 10.4206 26.6526 10.2019L26.2065 10.4277ZM26.2527 10.7933L25.7623 10.6959L25.7231 10.8929L26.2135 10.9903L26.7039 11.0878L26.7431 10.8908L26.2527 10.7933ZM26.2135 10.9903L25.7231 10.8929L25.684 11.0899L26.1744 11.1873L26.6648 11.2848L26.7039 11.0878L26.2135 10.9903ZM26.1744 11.1873L25.684 11.0899C25.6314 11.3543 25.6855 11.6119 25.8353 11.8332L26.2494 11.553L26.6635 11.2728C26.6609 11.2689 26.6605 11.2676 26.661 11.2688C26.6616 11.2701 26.6626 11.2729 26.6634 11.2768C26.6642 11.2807 26.6644 11.284 26.6644 11.2862C26.6644 11.2883 26.6642 11.288 26.6648 11.2848L26.1744 11.1873ZM26.2494 11.553L25.8353 11.8332L25.9494 12.0019L26.3635 11.7217L26.7776 11.4414L26.6635 11.2728L26.2494 11.553ZM26.3635 11.7217L25.9494 12.0019L26.0636 12.1706L26.4777 11.8903L26.8918 11.6101L26.7776 11.4414L26.3635 11.7217ZM26.4777 11.8903L26.0636 12.1706C26.0955 12.2177 26.1053 12.2536 26.1076 12.2835L26.6061 12.2453L27.1046 12.2072C27.0879 11.9886 27.0121 11.7879 26.8918 11.6101L26.4777 11.8903ZM26.6061 12.2453L26.1076 12.2835L26.1218 12.4698L26.6203 12.4316L27.1189 12.3935L27.1046 12.2072L26.6061 12.2453ZM26.6203 12.4316L26.1218 12.4698L26.1361 12.6561L26.6346 12.6179L27.1331 12.5798L27.1189 12.3935L26.6203 12.4316ZM26.6346 12.6179L26.1361 12.6561C26.1444 12.7649 26.1476 12.8738 26.1459 12.9827L26.6458 12.991L27.1457 12.9992C27.148 12.8592 27.1438 12.7194 27.1331 12.5798L26.6346 12.6179ZM26.6458 12.991L26.1459 12.9827L26.1428 13.1695L26.6427 13.1777L27.1427 13.1859L27.1457 12.9992L26.6458 12.991ZM26.6427 13.1777L26.1428 13.1695L26.1397 13.3562L26.6397 13.3644L27.1396 13.3726L27.1427 13.1859L26.6427 13.1777ZM26.6397 13.3644L26.1397 13.3562C26.1377 13.4822 26.1362 13.6082 26.1353 13.7341L26.6353 13.7375L27.1353 13.7409C27.1361 13.6182 27.1376 13.4954 27.1396 13.3726L26.6397 13.3644ZM26.6353 13.7375L26.1353 13.7341L26.1341 13.9205L26.6341 13.9239L27.134 13.9273L27.1353 13.7409L26.6353 13.7375ZM26.6341 13.9239L26.1341 13.9205L26.1328 14.1069L26.6328 14.1104L27.1328 14.1138L27.134 13.9273L26.6341 13.9239ZM26.6328 14.1104L26.1328 14.1069C26.1318 14.2454 26.1368 14.3842 26.1475 14.5236L26.646 14.4852L27.1445 14.4468C27.1359 14.3349 27.132 14.2239 27.1328 14.1138L26.6328 14.1104ZM26.646 14.4852L26.1475 14.5236L26.162 14.712L26.6605 14.6736L27.159 14.6353L27.1445 14.4468L26.646 14.4852ZM26.6605 14.6736L26.162 14.712L26.1765 14.9004L26.675 14.862L27.1735 14.8237L27.159 14.6353L26.6605 14.6736ZM26.675 14.862L26.1765 14.9004C26.1768 14.9048 26.1792 14.9157 26.1587 14.9465L26.5757 15.2224L26.9927 15.4983C27.124 15.2999 27.1925 15.0705 27.1735 14.8237L26.675 14.862ZM26.5757 15.2224L26.1587 14.9465L26.045 15.1185L26.4619 15.3944L26.8789 15.6703L26.9927 15.4983L26.5757 15.2224ZM26.4619 15.3944L26.045 15.1185L25.9312 15.2904L26.3482 15.5663L26.7651 15.8422L26.8789 15.6703L26.4619 15.3944ZM26.3482 15.5663L25.9312 15.2904C25.8245 15.4516 25.7467 15.6275 25.708 15.8171L26.1979 15.9171L26.6878 16.0171C26.6977 15.9683 26.7201 15.9104 26.7651 15.8422L26.3482 15.5663ZM26.1979 15.9171L25.708 15.8171L25.6715 15.9959L26.1614 16.096L26.6513 16.196L26.6878 16.0171L26.1979 15.9171ZM26.1614 16.096L25.6715 15.9959L25.635 16.1748L26.1249 16.2748L26.6148 16.3748L26.6513 16.196L26.1614 16.096ZM26.1249 16.2748L25.635 16.1748C25.6096 16.2988 25.5861 16.4234 25.5644 16.5486L26.057 16.6342L26.5496 16.7198C26.5697 16.6042 26.5914 16.4892 26.6148 16.3748L26.1249 16.2748ZM26.057 16.6342L25.5644 16.5486L25.533 16.7291L26.0256 16.8147L26.5182 16.9003L26.5496 16.7198L26.057 16.6342ZM26.0256 16.8147L25.533 16.7291L25.5016 16.9097L25.9942 16.9953L26.4868 17.0809L26.5182 16.9003L26.0256 16.8147ZM25.9942 16.9953L25.5016 16.9097C25.4633 17.1304 25.4936 17.349 25.5621 17.5536L26.0362 17.3949L26.5103 17.2362C26.481 17.1487 26.4834 17.101 26.4868 17.0809L25.9942 16.9953ZM26.0362 17.3949L25.5621 17.5536L25.6354 17.7727L26.1095 17.614L26.5837 17.4552L26.5103 17.2362L26.0362 17.3949ZM26.1095 17.614L25.6354 17.7727L25.7087 17.9918L26.1829 17.833L26.657 17.6743L26.5837 17.4552L26.1095 17.614ZM26.1829 17.833L25.7087 17.9918C25.7174 18.0176 25.7156 18.0253 25.7159 18.0188C25.716 18.0157 25.7166 18.0105 25.7183 18.0041C25.72 17.9978 25.7223 17.9923 25.7245 17.9881L26.1666 18.2217L26.6087 18.4552C26.7451 18.197 26.7397 17.9214 26.657 17.6743L26.1829 17.833ZM26.1666 18.2217L25.7245 17.9881L25.6349 18.1577L26.0771 18.3912L26.5192 18.6248L26.6087 18.4552L26.1666 18.2217ZM26.0771 18.3912L25.6349 18.1577L25.5454 18.3273L25.9875 18.5608L26.4296 18.7943L26.5192 18.6248L26.0771 18.3912ZM25.9875 18.5608L25.5454 18.3273C25.5191 18.3771 25.4795 18.4275 25.4186 18.4778L25.7371 18.8633L26.0555 19.2487C26.2091 19.1219 26.3365 18.9706 26.4296 18.7943L25.9875 18.5608ZM25.7371 18.8633L25.4186 18.4778L25.2578 18.6106L25.5762 18.9961L25.8946 19.3816L26.0555 19.2487L25.7371 18.8633ZM25.5762 18.9961L25.2578 18.6106L25.0969 18.7435L25.4154 19.129L25.7338 19.5145L25.8946 19.3816L25.5762 18.9961ZM25.4154 19.129L25.0969 18.7435C24.8735 18.928 24.7546 19.1843 24.7543 19.4721L25.2543 19.4725L25.7543 19.4729C25.7544 19.4697 25.7546 19.4708 25.7537 19.4753C25.7527 19.4799 25.7508 19.4863 25.7474 19.4935C25.744 19.5007 25.7402 19.5066 25.7369 19.5108C25.7337 19.5148 25.7321 19.5159 25.7338 19.5145L25.4154 19.129ZM25.2543 19.4725L24.7543 19.4721L24.7542 19.6828L25.2542 19.6832L25.7542 19.6836L25.7543 19.4729L25.2543 19.4725ZM25.2542 19.6832L24.7542 19.6828L24.754 19.8934L25.254 19.8938L25.754 19.8942L25.7542 19.6836L25.2542 19.6832ZM25.254 19.8938L24.754 19.8934C24.754 19.9539 24.741 19.9883 24.7272 20.0114L25.1566 20.2675L25.586 20.5237C25.7019 20.3293 25.7538 20.1146 25.754 19.8942L25.254 19.8938ZM25.1566 20.2675L24.7272 20.0114L24.6299 20.1745L25.0593 20.4306L25.4888 20.6867L25.586 20.5237L25.1566 20.2675ZM25.0593 20.4306L24.6299 20.1745L24.5326 20.3376L24.9621 20.5937L25.3915 20.8498L25.4888 20.6867L25.0593 20.4306ZM24.9621 20.5937L24.5326 20.3376C24.4692 20.444 24.4048 20.55 24.3395 20.6556L24.7648 20.9186L25.1901 21.1815C25.2582 21.0714 25.3253 20.9608 25.3915 20.8498L24.9621 20.5937ZM24.7648 20.9186L24.3395 20.6556L24.2395 20.8174L24.6648 21.0803L25.0901 21.3433L25.1901 21.1815L24.7648 20.9186ZM24.6648 21.0803L24.2395 20.8174L24.1395 20.9792L24.5647 21.2421L24.99 21.5051L25.0901 21.3433L24.6648 21.0803ZM24.5647 21.2421L24.1395 20.9792C24.1346 20.987 24.1221 21.0057 24.0718 21.0268L24.2658 21.4877L24.4598 21.9485C24.6748 21.858 24.8615 21.713 24.99 21.5051L24.5647 21.2421ZM24.2658 21.4877L24.0718 21.0268L23.8728 21.1106L24.0668 21.5714L24.2608 22.0323L24.4598 21.9485L24.2658 21.4877ZM24.0668 21.5714L23.8728 21.1106L23.6739 21.1943L23.8679 21.6552L24.0619 22.116L24.2608 22.0323L24.0668 21.5714ZM23.8679 21.6552L23.6739 21.1943C23.5336 21.2534 23.4037 21.3475 23.3061 21.484C23.2095 21.6191 23.1631 21.7697 23.1481 21.9149L23.6455 21.9662L24.1429 22.0174C24.1435 22.0112 24.142 22.0342 24.1195 22.0656C24.0961 22.0984 24.0695 22.1128 24.0619 22.116L23.8679 21.6552ZM23.6455 21.9662L23.1481 21.9149L23.1247 22.1422L23.6221 22.1934L24.1194 22.2447L24.1429 22.0174L23.6455 21.9662ZM23.6221 22.1934L23.1247 22.1422L23.1013 22.3695L23.5986 22.4207L24.096 22.472L24.1194 22.2447L23.6221 22.1934ZM23.5986 22.4207L23.1013 22.3695C23.0987 22.3947 23.0943 22.3998 23.0975 22.3935C23.0991 22.3904 23.1018 22.386 23.1058 22.3812C23.1098 22.3763 23.1138 22.3727 23.1169 22.3703L23.4226 22.7659L23.7284 23.1615C23.9583 22.9838 24.0692 22.7324 24.096 22.472L23.5986 22.4207ZM23.4226 22.7659L23.1169 22.3703L22.9643 22.4882L23.27 22.8838L23.5758 23.2794L23.7284 23.1615L23.4226 22.7659ZM23.27 22.8838L22.9643 22.4882L22.8117 22.6061L23.1174 23.0017L23.4232 23.3974L23.5758 23.2794L23.27 22.8838ZM23.1174 23.0017L22.8117 22.6061C22.7528 22.6516 22.6839 22.69 22.602 22.72L22.7737 23.1895L22.9454 23.6591C23.1184 23.5959 23.2786 23.5091 23.4232 23.3974L23.1174 23.0017ZM22.7737 23.1895L22.602 22.72L22.4109 22.7899L22.5826 23.2594L22.7543 23.729L22.9454 23.6591L22.7737 23.1895ZM22.5826 23.2594L22.4109 22.7899L22.2197 22.8598L22.3914 23.3293L22.5632 23.7989L22.7543 23.729L22.5826 23.2594ZM22.3914 23.3293L22.2197 22.8598C21.9448 22.9603 21.7537 23.166 21.6558 23.4278L22.1241 23.603L22.5924 23.7782C22.5968 23.7665 22.597 23.7716 22.5867 23.7821C22.5819 23.787 22.5767 23.7912 22.5715 23.7945C22.5691 23.796 22.567 23.7971 22.5655 23.7979C22.564 23.7986 22.5631 23.7989 22.5632 23.7989L22.3914 23.3293ZM22.1241 23.603L21.6558 23.4278L21.5795 23.6316L22.0478 23.8068L22.5161 23.982L22.5924 23.7782L22.1241 23.603ZM22.0478 23.8068L21.5795 23.6316L21.5033 23.8354L21.9716 24.0106L22.4399 24.1858L22.5161 23.982L22.0478 23.8068ZM21.9716 24.0106L21.5033 23.8354C21.5004 23.843 21.5041 23.8297 21.5231 23.8119C21.5321 23.8035 21.5419 23.7966 21.5514 23.7914C21.5608 23.7863 21.5676 23.7842 21.5701 23.7835L21.6987 24.2667L21.8273 24.7499C22.1271 24.6701 22.337 24.4609 22.4399 24.1858L21.9716 24.0106ZM21.6987 24.2667L21.5701 23.7835L21.3734 23.8358L21.502 24.319L21.6306 24.8022L21.8273 24.7499L21.6987 24.2667ZM21.502 24.319L21.3734 23.8358L21.1768 23.8882L21.3053 24.3714L21.4339 24.8546L21.6306 24.8022L21.502 24.319ZM21.3053 24.3714L21.1768 23.8882C20.949 23.9488 20.7511 24.0719 20.5982 24.2546L20.9817 24.5755L21.3651 24.8963C21.3816 24.8766 21.3994 24.8637 21.4339 24.8546L21.3053 24.3714ZM20.9817 24.5755L20.5982 24.2546L20.4712 24.4063L20.8547 24.7272L21.2382 25.0481L21.3651 24.8963L20.9817 24.5755ZM20.8547 24.7272L20.4712 24.4063L20.3443 24.5581L20.7277 24.879L21.1112 25.1998L21.2382 25.0481L20.8547 24.7272ZM20.7277 24.879L20.3443 24.5581C20.3289 24.5765 20.317 24.5836 20.2948 24.5887L20.4087 25.0756L20.5225 25.5625C20.7564 25.5078 20.9572 25.3838 21.1112 25.1998L20.7277 24.879ZM20.4087 25.0756L20.2948 24.5887L20.1028 24.6336L20.2166 25.1205L20.3304 25.6074L20.5225 25.5625L20.4087 25.0756ZM20.2166 25.1205L20.1028 24.6336L19.9107 24.6786L20.0245 25.1654L20.1384 25.6523L20.3304 25.6074L20.2166 25.1205ZM20.0245 25.1654L19.9107 24.6786C19.6806 24.7324 19.4825 24.852 19.3254 25.0249L19.6955 25.3611L20.0656 25.6973C20.0911 25.6692 20.1125 25.6584 20.1384 25.6523L20.0245 25.1654ZM19.6955 25.3611L19.3254 25.0249L19.1884 25.1757L19.5585 25.5119L19.9286 25.8481L20.0656 25.6973L19.6955 25.3611ZM19.5585 25.5119L19.1884 25.1757L19.0515 25.3265L19.4216 25.6627L19.7917 25.9989L19.9286 25.8481L19.5585 25.5119ZM19.4216 25.6627L19.0515 25.3265C19.0546 25.3231 19.0614 25.3164 19.0726 25.309C19.084 25.3015 19.0972 25.2951 19.1111 25.2906C19.1402 25.2813 19.1557 25.2855 19.1458 25.2839L19.0645 25.7772L18.9832 26.2706C19.2785 26.3192 19.574 26.2385 19.7917 25.9989L19.4216 25.6627ZM19.0645 25.7772L19.1458 25.2839L18.9257 25.2476L18.8444 25.741L18.7632 26.2343L18.9832 26.2706L19.0645 25.7772ZM18.8444 25.741L18.9257 25.2476L18.7057 25.2114L18.6244 25.7047L18.5431 26.1981L18.7632 26.2343L18.8444 25.741ZM18.6244 25.7047L18.7057 25.2114C18.3833 25.1583 18.0831 25.2701 17.8763 25.5271L18.2659 25.8405L18.6555 26.1539C18.6555 26.1538 18.6512 26.1592 18.6415 26.1665C18.6315 26.174 18.6181 26.182 18.6018 26.1881C18.5666 26.2015 18.5422 26.1979 18.5431 26.1981L18.6244 25.7047ZM18.2659 25.8405L17.8763 25.5271L17.7379 25.6991L18.1275 26.0125L18.517 26.3259L18.6555 26.1539L18.2659 25.8405ZM18.1275 26.0125L17.7379 25.6991L17.5995 25.8711L17.9891 26.1845L18.3786 26.498L18.517 26.3259L18.1275 26.0125ZM17.9891 26.1845L17.5995 25.8711C17.6007 25.8696 17.6222 25.8447 17.6683 25.8287C17.7148 25.8125 17.7495 25.8183 17.7555 25.8198L17.6394 26.3061L17.5233 26.7924C17.6702 26.8275 17.8335 26.8299 17.9966 26.7732C18.1592 26.7167 18.2852 26.6141 18.3786 26.498L17.9891 26.1845ZM17.6394 26.3061L17.7555 25.8198L17.5442 25.7693L17.4281 26.2557L17.312 26.742L17.5233 26.7924L17.6394 26.3061ZM17.4281 26.2557L17.5442 25.7693L17.3329 25.7189L17.2168 26.2052L17.1007 26.6916L17.312 26.742L17.4281 26.2557ZM17.2168 26.2052L17.3329 25.7189C17.1582 25.6772 16.984 25.655 16.8119 25.6567L16.8169 26.1567L16.8219 26.6566C16.9012 26.6558 16.9936 26.666 17.1007 26.6916L17.2168 26.2052ZM16.8169 26.1567L16.8119 25.6567L16.6233 25.6586L16.6283 26.1586L16.6333 26.6585L16.8219 26.6566L16.8169 26.1567ZM16.6283 26.1586L16.6233 25.6586L16.4347 25.6605L16.4397 26.1604L16.4447 26.6604L16.6333 26.6585L16.6283 26.1586ZM16.4397 26.1604L16.4347 25.6605C16.2779 25.662 16.1232 25.6781 15.9713 25.7092L16.0716 26.1991L16.1719 26.6889C16.2593 26.671 16.35 26.6614 16.4447 26.6604L16.4397 26.1604ZM16.0716 26.1991L15.9713 25.7092L15.7918 25.746L15.8922 26.2358L15.9925 26.7257L16.1719 26.6889L16.0716 26.1991ZM15.8922 26.2358L15.7918 25.746L15.6124 25.7828L15.7127 26.2726L15.813 26.7624L15.9925 26.7257L15.8922 26.2358ZM15.7127 26.2726L15.6124 25.7828C15.441 25.8179 15.2768 25.8795 15.1205 25.9636L15.3572 26.404L15.594 26.8444C15.6723 26.8022 15.7451 26.7763 15.813 26.7624L15.7127 26.2726ZM15.3572 26.404L15.1205 25.9636L14.9445 26.0582L15.1812 26.4986L15.418 26.939L15.594 26.8444L15.3572 26.404ZM15.1812 26.4986L14.9445 26.0582L14.7685 26.1528L15.0052 26.5932L15.242 27.0336L15.418 26.939L15.1812 26.4986ZM15.0052 26.5932L14.7685 26.1528C14.6586 26.2119 14.5455 26.2691 14.4291 26.3245L14.6439 26.776L14.8587 27.2275C14.9895 27.1653 15.1172 27.1007 15.242 27.0336L15.0052 26.5932ZM14.6439 26.776L14.4291 26.3245L14.2438 26.4126L14.4586 26.8641L14.6734 27.3157L14.8587 27.2275L14.6439 26.776ZM14.4586 26.8641L14.2438 26.4126L14.0585 26.5008L14.2733 26.9523L14.4881 27.4038L14.6734 27.3157L14.4586 26.8641ZM14.2733 26.9523L14.0585 26.5008C14.0665 26.497 14.0807 26.4916 14.1002 26.4884C14.1201 26.4851 14.1408 26.485 14.1605 26.4879C14.2005 26.4939 14.2153 26.5087 14.203 26.4994L13.8998 26.897L13.5967 27.2946C13.7098 27.3809 13.8496 27.4528 14.014 27.4772C14.183 27.5022 14.3449 27.4719 14.4881 27.4038L14.2733 26.9523ZM13.8998 26.897L14.203 26.4994L14.0149 26.3559L13.7117 26.7535L13.4085 27.1511L13.5967 27.2946L13.8998 26.897ZM13.7117 26.7535L14.0149 26.3559L13.8268 26.2125L13.5236 26.6101L13.2204 27.0077L13.4085 27.1511L13.7117 26.7535ZM13.5236 26.6101L13.8268 26.2125C13.5914 26.033 13.2878 25.9513 12.9716 26.068L13.1447 26.537L13.3179 27.0061C13.3109 27.0087 13.2994 27.0119 13.2843 27.0132C13.269 27.0146 13.2538 27.0137 13.2401 27.0111C13.2123 27.0057 13.2054 26.9963 13.2204 27.0077L13.5236 26.6101ZM13.1447 26.537L12.9716 26.068L12.7809 26.1384L12.954 26.6074L13.1271 27.0765L13.3179 27.0061L13.1447 26.537ZM12.954 26.6074L12.7809 26.1384L12.5902 26.2088L12.7633 26.6778L12.9364 27.1469L13.1271 27.0765L12.954 26.6074ZM12.7633 26.6778L12.5902 26.2088C12.59 26.2088 12.594 26.2073 12.6019 26.2063C12.6099 26.2052 12.6198 26.2048 12.6307 26.206C12.6544 26.2086 12.6669 26.2164 12.6652 26.2154L12.3982 26.6381L12.1312 27.0609C12.3768 27.2159 12.6609 27.2486 12.9364 27.1469L12.7633 26.6778ZM12.3982 26.6381L12.6652 26.2154L12.4909 26.1053L12.2239 26.528L11.9569 26.9508L12.1312 27.0609L12.3982 26.6381ZM12.2239 26.528L12.4909 26.1053L12.3166 25.9952L12.0496 26.4179L11.7826 26.8407L11.9569 26.9508L12.2239 26.528ZM12.0496 26.4179L12.3166 25.9952C12.118 25.8698 11.8916 25.8054 11.6497 25.8227L11.6853 26.3214L11.7209 26.8201C11.7322 26.8193 11.7487 26.8193 11.7826 26.8407L12.0496 26.4179ZM11.6853 26.3214L11.6497 25.8227L11.4597 25.8362L11.4953 26.335L11.5309 26.8337L11.7209 26.8201L11.6853 26.3214ZM11.4953 26.335L11.4597 25.8362L11.2697 25.8498L11.3053 26.3485L11.3409 26.8473L11.5309 26.8337L11.4953 26.335ZM11.3053 26.3485L11.2697 25.8498C11.1916 25.8554 11.1179 25.8495 11.0466 25.833L10.9339 26.3201L10.8212 26.8072C10.9918 26.8467 11.1657 26.8598 11.3409 26.8473L11.3053 26.3485ZM10.9339 26.3201L11.0466 25.833L10.8652 25.791L10.7525 26.2781L10.6397 26.7653L10.8212 26.8072L10.9339 26.3201ZM10.7525 26.2781L10.8652 25.791L10.6838 25.749L10.571 26.2361L10.4583 26.7233L10.6397 26.7653L10.7525 26.2781ZM10.571 26.2361L10.6838 25.749C10.5699 25.7227 10.4566 25.6938 10.3438 25.6625L10.21 26.1443L10.0762 26.6261C10.2029 26.6612 10.3303 26.6936 10.4583 26.7233L10.571 26.2361ZM10.21 26.1443L10.3438 25.6625L10.1643 25.6127L10.0305 26.0944L9.89669 26.5762L10.0762 26.6261L10.21 26.1443ZM10.0305 26.0944L10.1643 25.6127L9.98471 25.5628L9.85092 26.0446L9.71713 26.5263L9.89669 26.5762L10.0305 26.0944ZM9.85092 26.0446L9.98471 25.5628C9.80982 25.5142 9.6291 25.4961 9.44565 25.504L9.46738 26.0036L9.48912 26.5031C9.57764 26.4992 9.6526 26.5084 9.71713 26.5263L9.85092 26.0446ZM9.46738 26.0036L9.44565 25.504L9.24167 25.5129L9.26341 26.0124L9.28514 26.512L9.48912 26.5031L9.46738 26.0036ZM9.26341 26.0124L9.24167 25.5129L9.03769 25.5218L9.05943 26.0213L9.08117 26.5208L9.28514 26.512L9.26341 26.0124ZM9.05943 26.0213L9.03769 25.5218C8.97627 25.5245 8.93134 25.5138 8.89397 25.4964L8.68253 25.9495L8.47109 26.4026C8.66429 26.4928 8.87062 26.53 9.08117 26.5208L9.05943 26.0213ZM8.68253 25.9495L8.89397 25.4964L8.72104 25.4157L8.5096 25.8688L8.29816 26.3219L8.47109 26.4026L8.68253 25.9495ZM8.5096 25.8688L8.72104 25.4157L8.54812 25.335L8.33668 25.7881L8.12524 26.2412L8.29816 26.3219L8.5096 25.8688ZM8.33668 25.7881L8.54812 25.335C8.45721 25.2926 8.37012 25.2431 8.28664 25.1863L8.00541 25.5997L7.72418 26.0131C7.85183 26.0999 7.98558 26.176 8.12524 26.2412L8.33668 25.7881ZM8.00541 25.5997L8.28664 25.1863L8.12829 25.0786L7.84707 25.492L7.56584 25.9054L7.72418 26.0131L8.00541 25.5997ZM7.84707 25.492L8.12829 25.0786L7.96995 24.9709L7.68872 25.3843L7.4075 25.7977L7.56584 25.9054L7.84707 25.492ZM7.68872 25.3843L7.96995 24.9709C7.89772 24.9217 7.83039 24.8633 7.76779 24.7945L7.39796 25.131L7.02813 25.4675C7.14209 25.5928 7.2686 25.7032 7.4075 25.7977L7.68872 25.3843ZM7.39796 25.131L7.76779 24.7945L7.63536 24.649L7.26553 24.9855L6.8957 25.322L7.02813 25.4675L7.39796 25.131ZM7.26553 24.9855L7.63536 24.649L7.50294 24.5034L7.13311 24.8399L6.76328 25.1764L6.8957 25.322L7.26553 24.9855ZM7.13311 24.8399L7.50294 24.5034C7.4255 24.4183 7.35269 24.3301 7.28447 24.2386L6.88373 24.5376L6.48299 24.8366C6.57071 24.9542 6.66416 25.0675 6.76328 25.1764L7.13311 24.8399ZM6.88373 24.5376L7.28447 24.2386L7.16752 24.0819L6.76678 24.3809L6.36604 24.6799L6.48299 24.8366L6.88373 24.5376ZM6.76678 24.3809L7.16752 24.0819L7.05056 23.9251L6.64982 24.2242L6.24909 24.5232L6.36604 24.6799L6.76678 24.3809ZM6.64982 24.2242L7.05056 23.9251C6.94171 23.7793 6.81273 23.6531 6.66282 23.5514L6.3821 23.9651L6.10139 24.3789C6.1525 24.4136 6.202 24.4601 6.24909 24.5232L6.64982 24.2242ZM6.3821 23.9651L6.66282 23.5514L6.51205 23.4491L6.23133 23.8628L5.95062 24.2766L6.10139 24.3789L6.3821 23.9651ZM6.23133 23.8628L6.51205 23.4491L6.36128 23.3468L6.08056 23.7605L5.79985 24.1743L5.95062 24.2766L6.23133 23.8628ZM6.08056 23.7605L6.36128 23.3468C6.26674 23.2826 6.17343 23.2164 6.08136 23.1479L5.78306 23.5492L5.48476 23.9504C5.58833 24.0274 5.69336 24.1021 5.79985 24.1743L6.08056 23.7605ZM5.78306 23.5492L6.08136 23.1479L5.93463 23.0388L5.63633 23.4401L5.33802 23.8414L5.48476 23.9504L5.78306 23.5492ZM5.63633 23.4401L5.93463 23.0388L5.7879 22.9297L5.48959 23.331L5.19129 23.7323L5.33802 23.8414L5.63633 23.4401ZM5.48959 23.331L5.7879 22.9297C5.69566 22.8612 5.60463 22.7905 5.51481 22.7178L5.20011 23.1063L4.88541 23.4948C4.98593 23.5763 5.08789 23.6554 5.19129 23.7323L5.48959 23.331ZM5.20011 23.1063L5.51481 22.7178L5.37206 22.6021L5.05736 22.9907L4.74266 23.3792L4.88541 23.4948L5.20011 23.1063ZM5.05736 22.9907L5.37206 22.6021L5.22931 22.4865L4.91461 22.8751L4.5999 23.2636L4.74266 23.3792L5.05736 22.9907ZM4.91461 22.8751L5.22931 22.4865C5.05636 22.3464 4.85226 22.2657 4.64114 22.2248L4.546 22.7157L4.45085 23.2065C4.54088 23.224 4.58252 23.2495 4.5999 23.2636L4.91461 22.8751ZM4.546 22.7157L4.64114 22.2248L4.41528 22.181L4.32013 22.6719L4.22499 23.1627L4.45085 23.2065L4.546 22.7157ZM4.32013 22.6719L4.41528 22.181L4.18942 22.1372L4.09427 22.6281L3.99913 23.119L4.22499 23.1627L4.32013 22.6719ZM4.09427 22.6281L4.18942 22.1372C4.18688 22.1367 4.22467 22.144 4.26653 22.1853C4.31015 22.2282 4.32211 22.2724 4.32416 22.2843L3.8314 22.3691L3.33863 22.4539C3.36536 22.6092 3.43347 22.7683 3.56471 22.8976C3.69421 23.0252 3.8511 23.0903 3.99913 23.119L4.09427 22.6281ZM3.8314 22.3691L4.32416 22.2843L4.28714 22.0691L3.79438 22.1539L3.30161 22.2386L3.33863 22.4539L3.8314 22.3691ZM3.79438 22.1539L4.28714 22.0691L4.25013 21.8539L3.75736 21.9387L3.2646 22.0234L3.30161 22.2386L3.79438 22.1539ZM3.75736 21.9387L4.25013 21.8539C4.22439 21.7043 4.16267 21.5561 4.05194 21.4296C3.94206 21.304 3.80528 21.2242 3.66601 21.1767L3.50466 21.6499L3.3433 22.1232C3.34783 22.1247 3.32506 22.1175 3.29942 22.0882C3.27292 22.0579 3.26565 22.0296 3.2646 22.0234L3.75736 21.9387ZM3.50466 21.6499L3.66601 21.1767L3.45033 21.1031L3.28897 21.5764L3.12761 22.0496L3.3433 22.1232L3.50466 21.6499ZM3.28897 21.5764L3.45033 21.1031L3.23464 21.0296L3.07328 21.5028L2.91192 21.9761L3.12761 22.0496L3.28897 21.5764ZM3.07328 21.5028L3.23464 21.0296C3.2356 21.0299 3.27356 21.0439 3.30941 21.0916C3.34593 21.1401 3.35022 21.1837 3.35046 21.1913L2.8507 21.2068L2.35094 21.2223C2.35577 21.3783 2.39946 21.5454 2.51017 21.6926C2.62022 21.8389 2.76717 21.9267 2.91192 21.9761L3.07328 21.5028ZM2.8507 21.2068L3.35046 21.1913L3.34356 20.9689L2.8438 20.9844L2.34404 20.9999L2.35094 21.2223L2.8507 21.2068ZM2.8438 20.9844L3.34356 20.9689L3.33666 20.7464L2.8369 20.7619L2.33714 20.7774L2.34404 20.9999L2.8438 20.9844ZM2.8369 20.7619L3.33666 20.7464C3.3319 20.593 3.29065 20.4345 3.19444 20.2916C3.09884 20.1496 2.96894 20.0526 2.83319 19.9892L2.62173 20.4423L2.41027 20.8954C2.41336 20.8968 2.38875 20.8855 2.36487 20.85C2.34038 20.8136 2.3373 20.7825 2.33714 20.7774L2.8369 20.7619ZM2.62173 20.4423L2.83319 19.9892L2.62492 19.892L2.41346 20.3451L2.202 20.7982L2.41027 20.8954L2.62173 20.4423ZM2.41346 20.3451L2.62492 19.892L2.41665 19.7948L2.20519 20.2479L1.99372 20.7009L2.202 20.7982L2.41346 20.3451ZM2.20519 20.2479L2.41665 19.7948C2.41539 19.7942 2.4497 19.8106 2.47959 19.8596C2.51041 19.9102 2.51105 19.9536 2.51042 19.9631L2.01151 19.9301L1.5126 19.8971C1.50224 20.0536 1.5303 20.2235 1.62568 20.38C1.72013 20.535 1.85614 20.6367 1.99372 20.7009L2.20519 20.2479ZM2.01151 19.9301L2.51042 19.9631L2.52501 19.7425L2.0261 19.7095L1.52719 19.6765L1.5126 19.8971L2.01151 19.9301ZM2.0261 19.7095L2.52501 19.7425L2.53961 19.5219L2.0407 19.4889L1.54179 19.4559L1.52719 19.6765L2.0261 19.7095ZM2.0407 19.4889L2.53961 19.5219C2.54997 19.3653 2.55542 19.214 2.55578 19.0682L2.05578 19.067L1.55578 19.0658C1.55548 19.1884 1.55088 19.3184 1.54179 19.4559L2.0407 19.4889ZM2.05578 19.067L2.55578 19.0682L2.55627 18.8669L2.05627 18.8657L1.55627 18.8645L1.55578 19.0658L2.05578 19.067ZM2.05627 18.8657L2.55627 18.8669L2.55675 18.6656L2.05676 18.6643L1.55676 18.6631L1.55627 18.8645L2.05627 18.8657ZM2.05676 18.6643L2.55675 18.6656C2.55769 18.2786 2.30747 18.0284 2.03738 17.8997L1.82234 18.3511L1.6073 18.8025C1.63565 18.816 1.62092 18.8155 1.59809 18.785C1.58616 18.769 1.5748 18.7484 1.56692 18.7243C1.5591 18.7003 1.55672 18.6789 1.55676 18.6631L2.05676 18.6643ZM1.82234 18.3511L2.03738 17.8997L1.80247 17.7878L1.58743 18.2392L1.37239 18.6906L1.6073 18.8025L1.82234 18.3511ZM1.58743 18.2392L1.80247 17.7878L1.56757 17.6759L1.35253 18.1273L1.13749 18.5787L1.37239 18.6906L1.58743 18.2392ZM1.35253 18.1273L1.56757 17.6759C1.53537 17.6606 1.54029 17.6563 1.55622 17.6754C1.56468 17.6856 1.57437 17.7003 1.58231 17.7191C1.59028 17.7381 1.59449 17.7565 1.59604 17.7722L1.09846 17.8214L0.600882 17.8705C0.636497 18.2312 0.882431 18.4572 1.13749 18.5787L1.35253 18.1273ZM1.09846 17.8214L1.59604 17.7722L1.57688 17.5782L1.0793 17.6273L0.581722 17.6764L0.600882 17.8705L1.09846 17.8214ZM1.0793 17.6273L1.57688 17.5782L1.55772 17.3841L1.06014 17.4333L0.562562 17.4824L0.581722 17.6764L1.0793 17.6273ZM1.06014 17.4333L1.55772 17.3841C1.53936 17.1982 1.49016 17.0194 1.41076 16.8503L0.958152 17.0628L0.505541 17.2752C0.53658 17.3414 0.555376 17.4096 0.562562 17.4824L1.06014 17.4333ZM0.958152 17.0628L1.41076 16.8503L1.32793 16.6738L0.875322 16.8863L0.422711 17.0988L0.505541 17.2752L0.958152 17.0628ZM0.875322 16.8863L1.32793 16.6738L1.2451 16.4974L0.792492 16.7099L0.339881 16.9223L0.422711 17.0988L0.875322 16.8863ZM0.792492 16.7099L1.2451 16.4974C1.24778 16.5031 1.25072 16.5112 1.25271 16.5211C1.2547 16.531 1.25519 16.54 1.25487 16.5472C1.25423 16.5617 1.25081 16.56 1.26107 16.5384L0.809631 16.3235L0.358197 16.1085C0.240967 16.3547 0.208615 16.6427 0.339881 16.9223L0.792492 16.7099ZM0.809631 16.3235L1.26107 16.5384L1.36103 16.3285L0.9096 16.1135L0.458166 15.8986L0.358197 16.1085L0.809631 16.3235ZM0.9096 16.1135L1.36103 16.3285L1.461 16.1185L1.00957 15.9036L0.558135 15.6886L0.458166 15.8986L0.9096 16.1135ZM1.00957 15.9036L1.461 16.1185C1.52972 15.9742 1.56807 15.8014 1.53463 15.6154C1.50139 15.4306 1.4063 15.283 1.29577 15.172L0.941444 15.5248L0.58712 15.8776C0.588656 15.8791 0.560944 15.8509 0.550418 15.7924C0.539678 15.7327 0.556066 15.693 0.558135 15.6886L1.00957 15.9036ZM0.941444 15.5248L1.29577 15.172L1.12768 15.0032L0.773351 15.356L0.419026 15.7088L0.58712 15.8776L0.941444 15.5248ZM0.773351 15.356L1.12768 15.0032L0.959582 14.8344L0.605257 15.1871L0.250932 15.5399L0.419026 15.7088L0.773351 15.356ZM0.605257 15.1871L0.959582 14.8344C0.954538 14.8293 0.983949 14.8571 0.995614 14.9195C1.00804 14.986 0.989757 15.0344 0.982766 15.0482L0.536943 14.8218L0.0911206 14.5954C0.01761 14.7402 -0.022549 14.9151 0.0126498 15.1033C0.0470853 15.2875 0.143913 15.4324 0.250932 15.5399L0.605257 15.1871ZM0.536943 14.8218L0.982766 15.0482L1.08255 14.8517L0.636724 14.6253L0.190901 14.3989L0.0911206 14.5954L0.536943 14.8218ZM0.636724 14.6253L1.08255 14.8517L1.18233 14.6551L0.736504 14.4288L0.290681 14.2024L0.190901 14.3989L0.636724 14.6253ZM0.736504 14.4288L1.18233 14.6551C1.2584 14.5053 1.3223 14.3558 1.37262 14.2068L0.898885 14.0468L0.425153 13.8869C0.392001 13.9851 0.347647 14.0902 0.290681 14.2024L0.736504 14.4288ZM0.898885 14.0468L1.37262 14.2068L1.43522 14.0213L0.961487 13.8614L0.487754 13.7015L0.425153 13.8869L0.898885 14.0468ZM0.961487 13.8614L1.43522 14.0213L1.49782 13.8359L1.02409 13.676L0.550355 13.516L0.487754 13.7015L0.961487 13.8614ZM1.02409 13.676L1.49782 13.8359C1.59091 13.5602 1.54622 13.2873 1.41342 13.0529L0.97841 13.2994L0.543395 13.5459C0.552034 13.5612 0.549102 13.5616 0.547608 13.5493C0.546901 13.5435 0.546789 13.5368 0.547515 13.53C0.548235 13.5232 0.549558 13.5184 0.550355 13.516L1.02409 13.676ZM0.97841 13.2994L1.41342 13.0529L1.30515 12.8619L0.87013 13.1084L0.435115 13.3549L0.543395 13.5459L0.97841 13.2994ZM0.87013 13.1084L1.30515 12.8619L1.19687 12.6708L0.761851 12.9173L0.326836 13.1638L0.435115 13.3549L0.87013 13.1084ZM0.761851 12.9173L1.19687 12.6708C1.15442 12.5959 1.13665 12.5339 1.13143 12.4824L0.633975 12.5328L0.136522 12.5832C0.157432 12.7895 0.224906 12.9839 0.326836 13.1638L0.761851 12.9173ZM0.633975 12.5328L1.13143 12.4824L1.11183 12.289L0.614378 12.3394L0.116926 12.3898L0.136522 12.5832L0.633975 12.5328ZM0.614378 12.3394L1.11183 12.289L1.09223 12.0956L0.594782 12.146L0.0973291 12.1964L0.116926 12.3898L0.614378 12.3394ZM0.594782 12.146L1.09223 12.0956C1.09207 12.094 1.09221 12.0941 1.09209 12.0955C1.09197 12.0969 1.09169 12.0982 1.09147 12.0989C1.09127 12.0996 1.09148 12.0986 1.09297 12.0957C1.0945 12.0927 1.09759 12.0872 1.10334 12.0795L0.701404 11.7821L0.299467 11.4847C0.148686 11.6884 0.070526 11.9319 0.0973291 12.1964L0.594782 12.146ZM0.701404 11.7821L1.10334 12.0795L1.22956 11.9089L0.827624 11.6115L0.425687 11.3141L0.299467 11.4847L0.701404 11.7821ZM0.827624 11.6115L1.22956 11.9089L1.35578 11.7383L0.953843 11.4409L0.551906 11.1435L0.425687 11.3141L0.827624 11.6115ZM0.953843 11.4409L1.35578 11.7383C1.45246 11.6076 1.53792 11.4748 1.61099 11.3396L1.17119 11.1018L0.731386 10.8639C0.682958 10.9535 0.623517 11.0467 0.551906 11.1435L0.953843 11.4409ZM1.17119 11.1018L1.61099 11.3396L1.70212 11.1711L1.26232 10.9333L0.822514 10.6954L0.731386 10.8639L1.17119 11.1018ZM1.26232 10.9333L1.70212 11.1711L1.79325 11.0026L1.35345 10.7648L0.913642 10.5269L0.822514 10.6954L1.26232 10.9333ZM1.35345 10.7648L1.79325 11.0026C1.87961 10.843 1.93868 10.6729 1.96772 10.4941L1.47418 10.414L0.980645 10.3338C0.970202 10.3981 0.948789 10.462 0.913642 10.5269L1.35345 10.7648ZM1.47418 10.414L1.96772 10.4941L1.99732 10.3118L1.50379 10.2316L1.01025 10.1515L0.980645 10.3338L1.47418 10.414ZM1.50379 10.2316L1.99732 10.3118L2.02693 10.1295L1.53339 10.0493L1.03986 9.96917L1.01025 10.1515L1.50379 10.2316ZM1.53339 10.0493L2.02693 10.1295C2.04775 10.0012 2.0662 9.87121 2.0823 9.73938L1.58598 9.67878L1.08967 9.61817C1.07512 9.73729 1.05851 9.85429 1.03986 9.96917L1.53339 10.0493ZM1.58598 9.67878L2.0823 9.73938L2.10528 9.55116L1.60896 9.49056L1.11265 9.42996L1.08967 9.61817L1.58598 9.67878ZM1.60896 9.49056L2.10528 9.55116L2.12826 9.36295L1.63195 9.30235L1.13563 9.24174L1.11265 9.42996L1.60896 9.49056ZM1.63195 9.30235L2.12826 9.36295C2.13569 9.30205 2.15359 9.2484 2.18218 9.19799L1.74726 8.95132L1.31234 8.70466C1.21782 8.87132 1.15884 9.05168 1.13563 9.24174L1.63195 9.30235ZM1.74726 8.95132L2.18218 9.19799L2.27452 9.03519L1.8396 8.78852L1.40468 8.54185L1.31234 8.70466L1.74726 8.95132ZM1.8396 8.78852L2.27452 9.03519L2.36685 8.87238L1.93193 8.62571L1.49701 8.37905L1.40468 8.54185L1.8396 8.78852ZM1.93193 8.62571L2.36685 8.87238C2.43823 8.74653 2.50172 8.61711 2.55721 8.48421L2.09581 8.29156L1.63441 8.09892C1.59452 8.19448 1.54875 8.28783 1.49701 8.37905L1.93193 8.62571ZM2.09581 8.29156L2.55721 8.48421L2.62875 8.31286L2.16735 8.12022L1.70596 7.92757L1.63441 8.09892L2.09581 8.29156ZM2.16735 8.12022L2.62875 8.31286L2.70029 8.14152L2.23889 7.94887L1.7775 7.75623L1.70596 7.92757L2.16735 8.12022ZM2.23889 7.94887L2.70029 8.14152C2.77743 7.95677 2.81041 7.76024 2.81013 7.56046L2.31013 7.56116L1.81013 7.56186C1.81026 7.65056 1.79575 7.7125 1.7775 7.75623L2.23889 7.94887ZM2.31013 7.56116L2.81013 7.56046L2.80983 7.3441L2.30983 7.3448L1.80983 7.3455L1.81013 7.56186L2.31013 7.56116ZM2.30983 7.3448L2.80983 7.3441L2.80953 7.12773L2.30953 7.12843L1.80953 7.12913L1.80983 7.3455L2.30983 7.3448ZM2.30953 7.12843L2.80953 7.12773C2.80953 7.13217 2.80779 7.16331 2.78454 7.20143C2.76141 7.23934 2.73518 7.25436 2.733 7.2555L2.50275 6.81167L2.27249 6.36784C2.14129 6.43591 2.01836 6.53719 1.93083 6.68068C1.84317 6.82439 1.80932 6.98045 1.80953 7.12913L2.30953 7.12843ZM2.50275 6.81167L2.733 7.2555L2.92652 7.1551L2.69627 6.71127L2.46602 6.26744L2.27249 6.36784L2.50275 6.81167ZM2.69627 6.71127L2.92652 7.1551L3.12005 7.0547L2.88979 6.61087L2.65954 6.16705L2.46602 6.26744L2.69627 6.71127ZM2.88979 6.61087L3.12005 7.0547C3.28545 6.96889 3.43627 6.86469 3.56608 6.7387L3.21784 6.37991L2.86961 6.02111C2.82005 6.06922 2.75216 6.11899 2.65954 6.16705L2.88979 6.61087ZM3.21784 6.37991L3.56608 6.7387L3.70061 6.60814L3.35237 6.24934L3.00414 5.89054L2.86961 6.02111L3.21784 6.37991ZM3.35237 6.24934L3.70061 6.60814L3.83513 6.47757L3.4869 6.11877L3.13867 5.75998L3.00414 5.89054L3.35237 6.24934ZM3.4869 6.11877L3.83513 6.47757C4.05821 6.26106 4.12135 5.97613 4.11104 5.71745L3.61144 5.73735L3.11183 5.75726C3.11337 5.79586 3.10834 5.80802 3.10999 5.80294C3.11095 5.80001 3.11349 5.79341 3.11876 5.7848C3.12411 5.77606 3.13092 5.7675 3.13867 5.75998L3.4869 6.11877ZM3.61144 5.73735L4.11104 5.71745L4.10105 5.4666L3.60144 5.4865L3.10184 5.5064L3.11183 5.75726L3.61144 5.73735ZM3.60144 5.4865L4.10105 5.4666L4.09105 5.21574L3.59145 5.23565L3.09185 5.25555L3.10184 5.5064L3.60144 5.4865ZM3.59145 5.23565L4.09105 5.21574C4.09116 5.21839 4.09251 5.31211 4.00401 5.40013C3.92237 5.48132 3.84341 5.47757 3.86556 5.47694L3.85139 4.97714L3.83721 4.47734C3.67941 4.48182 3.46715 4.52371 3.29886 4.69107C3.12371 4.86525 3.08508 5.08567 3.09185 5.25555L3.59145 5.23565ZM3.85139 4.97714L3.86556 5.47694L4.13549 5.46929L4.12132 4.96949L4.10715 4.46969L3.83721 4.47734L3.85139 4.97714ZM4.12132 4.96949L4.13549 5.46929L4.40543 5.46163L4.39125 4.96183L4.37708 4.46203L4.10715 4.46969L4.12132 4.96949ZM4.39125 4.96183L4.40543 5.46163C4.67225 5.45407 4.98919 5.36621 5.18236 5.07073L4.76385 4.79714L4.34534 4.52355C4.35564 4.5078 4.36859 4.49329 4.38308 4.48129C4.39733 4.46949 4.40977 4.46281 4.41723 4.45952C4.43033 4.45372 4.42222 4.46075 4.37708 4.46203L4.39125 4.96183ZM4.76385 4.79714L5.18236 5.07073L5.28502 4.91369L4.86651 4.6401L4.448 4.36651L4.34534 4.52355L4.76385 4.79714ZM4.86651 4.6401L5.28502 4.91369L5.38768 4.75665L4.96917 4.48306L4.55067 4.20947L4.448 4.36651L4.86651 4.6401ZM4.96917 4.48306L5.38768 4.75665C5.43949 4.6774 5.49737 4.60452 5.56142 4.53756L5.20014 4.19191L4.83886 3.84626C4.73184 3.95811 4.63574 4.07932 4.55067 4.20947L4.96917 4.48306ZM5.20014 4.19191L5.56142 4.53756L5.68973 4.40346L5.32845 4.0578L4.96717 3.71215L4.83886 3.84626L5.20014 4.19191ZM5.32845 4.0578L5.68973 4.40346L5.81804 4.26935L5.45676 3.92369L5.09548 3.57804L4.96717 3.71215L5.32845 4.0578ZM5.45676 3.92369L5.81804 4.26935C5.94447 4.1372 6.04627 3.98421 6.12678 3.8166L5.67608 3.6001L5.22539 3.3836C5.18454 3.46864 5.14012 3.53138 5.09548 3.57804L5.45676 3.92369ZM5.67608 3.6001L6.12678 3.8166L6.2178 3.62711L5.76711 3.41062L5.31641 3.19412L5.22539 3.3836L5.67608 3.6001ZM5.76711 3.41062L6.2178 3.62711L6.30883 3.43763L5.85813 3.22113L5.40743 3.00463L5.31641 3.19412L5.76711 3.41062ZM5.85813 3.22113L6.30883 3.43763C6.33345 3.38637 6.35803 3.36393 6.3787 3.35075L6.10989 2.92916L5.84108 2.50756C5.64743 2.63104 5.50417 2.80325 5.40743 3.00463L5.85813 3.22113ZM6.10989 2.92916L6.3787 3.35075L6.53944 3.24826L6.27063 2.82667L6.00182 2.40508L5.84108 2.50756L6.10989 2.92916ZM6.27063 2.82667L6.53944 3.24826L6.70018 3.14578L6.43137 2.72418L6.16256 2.30259L6.00182 2.40508L6.27063 2.82667ZM6.43137 2.72418L6.70018 3.14578C6.70263 3.14421 6.72253 3.13036 6.78862 3.13431L6.81839 2.63519L6.84816 2.13608C6.61253 2.12203 6.37442 2.1675 6.16256 2.30259L6.43137 2.72418ZM6.81839 2.63519L6.78862 3.13431L7.0149 3.1478L7.04467 2.64869L7.07444 2.14958L6.84816 2.13608L6.81839 2.63519ZM7.04467 2.64869L7.0149 3.1478L7.24118 3.1613L7.27095 2.66219L7.30072 2.16307L7.07444 2.14958L7.04467 2.64869ZM7.27095 2.66219L7.24118 3.1613C7.53267 3.17869 7.81694 3.07763 8.01522 2.8265L7.62279 2.51666L7.23036 2.20683C7.23331 2.20309 7.23934 2.1964 7.24896 2.189C7.25872 2.1815 7.26972 2.17516 7.28095 2.17052C7.30428 2.16087 7.31493 2.16392 7.30072 2.16307L7.27095 2.66219ZM7.62279 2.51666L8.01522 2.8265L8.14077 2.66748L7.74834 2.35765L7.35591 2.04781L7.23036 2.20683L7.62279 2.51666ZM7.74834 2.35765L8.14077 2.66748L8.26632 2.50846L7.87389 2.19863L7.48146 1.88879L7.35591 2.04781L7.74834 2.35765ZM7.87389 2.19863L8.26632 2.50846C8.27016 2.50359 8.27239 2.50159 8.27263 2.50138C8.27281 2.50122 8.27165 2.50225 8.26921 2.50368C8.26676 2.50512 8.26426 2.50623 8.26225 2.50692C8.2603 2.50759 8.26006 2.50744 8.26223 2.50713L8.19149 2.01216L8.12075 1.51719C7.8596 1.55451 7.64076 1.68702 7.48146 1.88879L7.87389 2.19863ZM8.19149 2.01216L8.26223 2.50713L8.45428 2.47968L8.38353 1.98471L8.31279 1.48974L8.12075 1.51719L8.19149 2.01216ZM8.38353 1.98471L8.45428 2.47968L8.64632 2.45224L8.57558 1.95727L8.50484 1.4623L8.31279 1.48974L8.38353 1.98471ZM8.57558 1.95727L8.64632 2.45224C8.90442 2.41535 9.12011 2.28645 9.2838 2.09825L8.90654 1.77011L8.52929 1.44197C8.51609 1.45715 8.50862 1.4613 8.50823 1.46152C8.50794 1.46169 8.50783 1.46173 8.50787 1.46172C8.50788 1.46171 8.5079 1.4617 8.50793 1.46169C8.50796 1.46168 8.50797 1.46167 8.50797 1.46168C8.50796 1.46168 8.50792 1.46169 8.50783 1.46172C8.50774 1.46174 8.50759 1.46179 8.50736 1.46184C8.50693 1.46194 8.50611 1.46212 8.50484 1.4623L8.57558 1.95727ZM8.90654 1.77011L9.2838 2.09825L9.42272 1.93854L9.04546 1.6104L8.6682 1.28226L8.52929 1.44197L8.90654 1.77011ZM9.04546 1.6104L9.42272 1.93854L9.56163 1.77883L9.18438 1.45069L8.80712 1.12255L8.6682 1.28226L9.04546 1.6104ZM9.18438 1.45069L9.56163 1.77883C9.61478 1.71773 9.66681 1.67932 9.71693 1.6547L9.49651 1.20591L9.27609 0.757116C9.09526 0.845931 8.93919 0.97071 8.80712 1.12255L9.18438 1.45069ZM9.49651 1.20591L9.71693 1.6547L9.89015 1.56962L9.66973 1.12083L9.44931 0.67204L9.27609 0.757116L9.49651 1.20591ZM9.66973 1.12083L9.89015 1.56962L10.0634 1.48455L9.84295 1.03576L9.62253 0.586964L9.44931 0.67204L9.66973 1.12083ZM9.84295 1.03576L10.0634 1.48455C10.0722 1.4802 10.0864 1.47378 10.1263 1.48158L10.222 0.99082L10.3177 0.500063C10.0832 0.454337 9.84463 0.477883 9.62253 0.586964L9.84295 1.03576ZM10.222 0.99082L10.1263 1.48158L10.3322 1.52172L10.4279 1.03096L10.5236 0.540203L10.3177 0.500063L10.222 0.99082ZM10.4279 1.03096L10.3322 1.52172L10.538 1.56186L10.6337 1.0711L10.7294 0.580343L10.5236 0.540203L10.4279 1.03096ZM10.6337 1.0711L10.538 1.56186C10.6865 1.5908 10.8317 1.61382 10.9735 1.63069L11.0326 1.13419L11.0916 0.637692C10.9762 0.62396 10.8555 0.60492 10.7294 0.580343L10.6337 1.0711ZM11.0326 1.13419L10.9735 1.63069L11.1665 1.65365L11.2256 1.15714L11.2846 0.660644L11.0916 0.637692L11.0326 1.13419ZM11.2256 1.15714L11.1665 1.65365L11.3595 1.6766L11.4185 1.1801L11.4776 0.683596L11.2846 0.660644L11.2256 1.15714ZM11.4185 1.1801L11.3595 1.6766C11.5324 1.69716 11.7047 1.69441 11.8748 1.66601L11.7924 1.17284L11.71 0.679674C11.6389 0.69155 11.562 0.693636 11.4776 0.683596L11.4185 1.1801ZM11.7924 1.17284L11.8748 1.66601L12.0556 1.6358L11.9732 1.14264L11.8909 0.649468L11.71 0.679674L11.7924 1.17284ZM11.9732 1.14264L12.0556 1.6358L12.2364 1.6056L12.1541 1.11243L12.0717 0.619261L11.8909 0.649468L11.9732 1.14264ZM12.1541 1.11243L12.2364 1.6056C12.3289 1.59016 12.422 1.58267 12.5161 1.58316L12.5186 1.08316L12.5212 0.58317C12.3703 0.582397 12.2204 0.594426 12.0717 0.619261L12.1541 1.11243ZM12.5186 1.08316L12.5161 1.58316L12.6998 1.5841L12.7024 1.0841L12.7049 0.584111L12.5212 0.58317L12.5186 1.08316ZM12.7024 1.0841L12.6998 1.5841L12.8835 1.58504L12.8861 1.08505L12.8886 0.585052L12.7049 0.584111L12.7024 1.0841ZM12.8861 1.08505L12.8835 1.58504C13.1654 1.58648 13.4007 1.46133 13.5807 1.2904L13.2364 0.927788L12.8922 0.56518C12.8697 0.586505 12.8587 0.590963 12.8608 0.590046C12.8619 0.589543 12.8655 0.588109 12.8711 0.586888C12.8768 0.585652 12.8829 0.585023 12.8886 0.585052L12.8861 1.08505ZM13.2364 0.927788L13.5807 1.2904L13.7473 1.1322L13.4031 0.76959L13.0588 0.406982L12.8922 0.56518L13.2364 0.927788ZM13.4031 0.76959L13.7473 1.1322L13.914 0.974L13.5697 0.611392L13.2254 0.248783L13.0588 0.406982L13.4031 0.76959ZM13.5697 0.611392L13.914 0.974C13.9699 0.920853 13.9699 0.928882 13.9345 0.948263C13.9218 0.955171 13.8911 0.971072 13.8468 0.983387C13.807 0.994456 13.7148 1.01446 13.6005 0.984859C13.4647 0.94968 13.3549 0.859057 13.2928 0.742807C13.2408 0.645478 13.2363 0.55786 13.2363 0.520315H13.7363H14.2363C14.2363 0.471583 14.2302 0.375125 14.1747 0.271304C14.109 0.148561 13.994 0.0537921 13.8513 0.0168144C13.7301 -0.0145805 13.6292 0.00596792 13.579 0.0199327C13.5243 0.0351427 13.4814 0.0562863 13.4549 0.0707837C13.3639 0.120524 13.2805 0.196465 13.2254 0.248783L13.5697 0.611392ZM13.7363 0.520315H13.2363V0.587437H13.7363H14.2363V0.520315H13.7363ZM13.7363 0.587437H13.2363V0.654558H13.7363H14.2363V0.587437H13.7363ZM13.7363 0.654558H13.2363C13.2363 0.799127 13.2944 0.947046 13.4151 1.0548C13.5178 1.14659 13.6298 1.1769 13.6926 1.18853C13.8143 1.2111 13.9338 1.19546 14.009 1.18277L13.926 0.689724L13.8429 0.196676C13.7917 0.205295 13.8164 0.19444 13.8749 0.205292C13.906 0.211064 13.9943 0.231379 14.0813 0.309052C14.1861 0.40269 14.2363 0.532363 14.2363 0.654558H13.7363ZM13.926 0.689724L14.009 1.18277L14.1987 1.15082L14.1156 0.657769L14.0325 0.16472L13.8429 0.196676L13.926 0.689724Z" fill="#F0F0F0"/>
<defs>
<clipPath id="clip0_3002_3166">
<path d="M0.736328 13.7217C0.736328 6.54198 6.55663 0.72168 13.7363 0.72168V0.72168C20.916 0.72168 26.7363 6.54198 26.7363 13.7217V13.7217C26.7363 20.9014 20.916 26.7217 13.7363 26.7217V26.7217C6.55663 26.7217 0.736328 20.9014 0.736328 13.7217V13.7217Z" fill="white"/>
</clipPath>
</defs>
</svg>
