<svg width="24" height="24" viewBox="0 0 24 24" fill="none" xmlns="http://www.w3.org/2000/svg">
<path d="M12 18.132L5.93314 12.0669L7.14686 10.8326L11.1429 14.8286V0H12.8571V14.8286L16.8514 10.8343L18.0669 12.0669L12 18.132ZM2.77029 24C1.98057 24 1.32171 23.736 0.793714 23.208C0.265714 22.68 0.00114286 22.0206 0 21.2297V17.076H1.71429V21.2297C1.71429 21.4937 1.824 21.736 2.04343 21.9566C2.26286 22.1771 2.50457 22.2869 2.76857 22.2857H21.2314C21.4943 22.2857 21.736 22.176 21.9566 21.9566C22.1771 21.7371 22.2869 21.4949 22.2857 21.2297V17.076H24V21.2297C24 22.0194 23.736 22.6783 23.208 23.2063C22.68 23.7343 22.0206 23.9989 21.2297 24H2.77029Z" fill="#DFE2E4"/>
</svg>
