<svg width="65" height="37" viewBox="0 0 65 37" fill="none" xmlns="http://www.w3.org/2000/svg">
<mask id="path-1-inside-1_224_8490" fill="white">
<path d="M0 18.5C0 8.28273 8.28273 0 18.5 0H61C63.2091 0 65 1.79086 65 4V33C65 35.2091 63.2091 37 61 37H18.5C8.28273 37 0 28.7173 0 18.5Z"/>
</mask>
<path d="M0 18.5C0 8.28273 8.28273 0 18.5 0H61C63.2091 0 65 1.79086 65 4V33C65 35.2091 63.2091 37 61 37H18.5C8.28273 37 0 28.7173 0 18.5Z" fill="#1A1A1A"/>
<path d="M-1 18.5C-1 7.73045 7.73045 -1 18.5 -1H60C62.7614 -1 65 1.23858 65 4C65 2.34315 63.2091 1 61 1H18.5C8.83502 1 1 8.83502 1 18.5H-1ZM65 33C65 35.7614 62.7614 38 60 38H18.5C7.73045 38 -1 29.2696 -1 18.5H1C1 28.165 8.83502 36 18.5 36H61C63.2091 36 65 34.6569 65 33ZM18.5 38C7.73045 38 -1 29.2696 -1 18.5C-1 7.73045 7.73045 -1 18.5 -1V1C8.83502 1 1 8.83502 1 18.5C1 28.165 8.83502 36 18.5 36V38ZM18.5 36M65 0V37V0" fill="#EA4335" mask="url(#path-1-inside-1_224_8490)"/>
<path d="M11.2905 24V14.816H17.0025V16.44H13.1385V18.54H16.5965V20.164H13.1385V24H11.2905ZM18.631 24V22.544H20.479V16.272H18.631V14.816H24.175V16.272H22.327V22.544H24.175V24H18.631ZM26.2375 24V14.816H28.0995V22.376H31.7955V24H26.2375ZM37.12 16.44V24H35.272V16.44H32.794V14.816H39.598V16.44H37.12ZM40.8765 24V14.816H46.3785V16.44H42.7245V18.54H46.2525V20.164H42.7245V22.376H46.3785V24H40.8765ZM50.051 24H48.231V14.816H51.549C51.969 14.816 52.3423 14.886 52.669 15.026C53.005 15.1567 53.285 15.3527 53.509 15.614C53.733 15.866 53.901 16.174 54.013 16.538C54.1343 16.8927 54.195 17.294 54.195 17.742C54.195 18.3953 54.0596 18.9553 53.789 19.422C53.5276 19.8793 53.159 20.1827 52.683 20.332L54.363 24H52.347L50.905 20.598H50.051V24ZM51.115 19.072C51.5536 19.072 51.857 18.9833 52.025 18.806C52.193 18.6287 52.277 18.3393 52.277 17.938V17.532C52.277 17.1307 52.1883 16.846 52.011 16.678C51.843 16.5007 51.5443 16.412 51.115 16.412H50.051V19.072H51.115Z" fill="#EA4335"/>
<g filter="url(#filter0_f_224_8490)">
<path d="M11.2905 24V14.816H17.0025V16.44H13.1385V18.54H16.5965V20.164H13.1385V24H11.2905ZM18.631 24V22.544H20.479V16.272H18.631V14.816H24.175V16.272H22.327V22.544H24.175V24H18.631ZM26.2375 24V14.816H28.0995V22.376H31.7955V24H26.2375ZM37.12 16.44V24H35.272V16.44H32.794V14.816H39.598V16.44H37.12ZM40.8765 24V14.816H46.3785V16.44H42.7245V18.54H46.2525V20.164H42.7245V22.376H46.3785V24H40.8765ZM50.051 24H48.231V14.816H51.549C51.969 14.816 52.3423 14.886 52.669 15.026C53.005 15.1567 53.285 15.3527 53.509 15.614C53.733 15.866 53.901 16.174 54.013 16.538C54.1343 16.8927 54.195 17.294 54.195 17.742C54.195 18.3953 54.0596 18.9553 53.789 19.422C53.5276 19.8793 53.159 20.1827 52.683 20.332L54.363 24H52.347L50.905 20.598H50.051V24ZM51.115 19.072C51.5536 19.072 51.857 18.9833 52.025 18.806C52.193 18.6287 52.277 18.3393 52.277 17.938V17.532C52.277 17.1307 52.1883 16.846 52.011 16.678C51.843 16.5007 51.5443 16.412 51.115 16.412H50.051V19.072H51.115Z" fill="#EA4335"/>
</g>
<defs>
<filter id="filter0_f_224_8490" x="3.29056" y="6.81592" width="59.0724" height="25.1841" filterUnits="userSpaceOnUse" color-interpolation-filters="sRGB">
<feFlood flood-opacity="0" result="BackgroundImageFix"/>
<feBlend mode="normal" in="SourceGraphic" in2="BackgroundImageFix" result="shape"/>
<feGaussianBlur stdDeviation="4" result="effect1_foregroundBlur_224_8490"/>
</filter>
</defs>
</svg>
