<svg width="402" height="249" viewBox="0 0 402 249" fill="none" xmlns="http://www.w3.org/2000/svg">
<g filter="url(#filter0_g_228_9309)">
<g clip-path="url(#clip0_228_9309)">
<path d="M286.618 210.232L304.184 41.6452L495.971 61.6289L478.405 230.215L286.618 210.232ZM326.579 51.7962L309.566 50.0235L307.793 67.0368L324.806 68.8096L326.579 51.7962ZM486.562 91.9174L307.148 73.223L295.867 181.49L475.281 200.185L486.562 91.9174ZM312.236 189.449L295.223 187.677L293.45 204.69L310.463 206.463L312.236 189.449ZM349.78 54.2136L332.766 52.4409L330.993 69.4542L348.007 71.227L349.78 54.2136ZM335.436 191.867L318.423 190.094L316.65 207.107L333.664 208.88L335.436 191.867ZM372.979 56.631L355.966 54.8582L354.193 71.8716L371.206 73.6443L372.979 56.631ZM358.636 194.284L341.623 192.511L339.85 209.525L356.863 211.298L358.636 194.284ZM396.179 59.0483L379.165 57.2756L377.393 74.2889L394.406 76.0617L396.179 59.0483ZM381.836 196.701L364.822 194.929L363.05 211.942L380.063 213.715L381.836 196.701ZM419.378 61.4656L402.365 59.6929L400.592 76.7062L417.606 78.479L419.378 61.4656ZM405.035 199.119L388.022 197.346L386.249 214.359L403.262 216.132L405.035 199.119ZM442.579 63.8831L425.566 62.1103L423.793 79.1237L440.806 80.8964L442.579 63.8831ZM428.236 201.536L411.222 199.764L409.45 216.777L426.463 218.55L428.236 201.536ZM465.779 66.3005L448.766 64.5278L446.993 81.5411L464.007 83.3139L465.779 66.3005ZM451.436 203.954L434.423 202.181L432.65 219.194L449.664 220.967L451.436 203.954ZM488.979 68.7178L471.966 66.9451L470.193 83.9585L487.206 85.7312L488.979 68.7178ZM474.636 206.371L457.623 204.598L455.85 221.612L472.863 223.384L474.636 206.371Z" fill="#DFE2E4"/>
<path d="M-93.8619 170.587L-76.2956 2.00022L115.491 21.9839L97.925 190.57L-93.8619 170.587ZM-53.901 12.1521L-70.9143 10.3794L-72.6871 27.3928L-55.6737 29.1655L-53.901 12.1521ZM106.082 52.2724L-73.3316 33.578L-84.6127 141.845L94.8007 160.54L106.082 52.2724ZM-68.2431 149.805L-85.2565 148.033L-87.0292 165.046L-70.0158 166.819L-68.2431 149.805ZM-30.7003 14.5686L-47.7137 12.7959L-49.4864 29.8092L-32.4731 31.582L-30.7003 14.5686ZM-45.0424 152.222L-62.0558 150.449L-63.8285 167.463L-46.8152 169.235L-45.0424 152.222ZM-7.50072 16.9859L-24.5141 15.2132L-26.2868 32.2266L-9.27347 33.9993L-7.50072 16.9859ZM-21.8428 154.639L-38.8562 152.866L-40.6289 169.88L-23.6156 171.653L-21.8428 154.639ZM15.6989 19.4033L-1.31449 17.6305L-3.08723 34.6439L13.9261 36.4166L15.6989 19.4033ZM1.35676 157.057L-15.6566 155.284L-17.4293 172.297L-0.415988 174.07L1.35676 157.057ZM38.8994 21.8207L21.8861 20.048L20.1133 37.0613L37.1267 38.8341L38.8994 21.8207ZM24.5573 159.474L7.54396 157.701L5.77122 174.715L22.7846 176.487L24.5573 159.474ZM62.1 24.2382L45.0866 22.4654L43.3139 39.4788L60.3273 41.2515L62.1 24.2382ZM47.7579 161.891L30.7445 160.119L28.9718 177.132L45.9851 178.905L47.7579 161.891ZM85.2996 26.6555L68.2862 24.8827L66.5135 41.8961L83.5269 43.6688L85.2996 26.6555ZM70.9575 164.309L53.9441 162.536L52.1714 179.549L69.1847 181.322L70.9575 164.309ZM108.499 29.0728L91.4858 27.3001L89.7131 44.3134L106.726 46.0862L108.499 29.0728ZM94.1571 166.726L77.1437 164.953L75.371 181.967L92.3843 183.739L94.1571 166.726Z" fill="#DFE2E4"/>
<path d="M96.3776 190.409L113.944 21.8225L305.731 41.8062L288.165 210.392L96.3776 190.409ZM136.339 31.9744L119.325 30.2017L117.552 47.215L134.566 48.9878L136.339 31.9744ZM296.321 72.0947L116.908 53.4003L105.627 161.668L285.04 180.362L296.321 72.0947ZM121.995 169.628L104.982 167.855L103.209 184.868L120.223 186.641L121.995 169.628ZM159.539 34.3909L142.526 32.6181L140.753 49.6315L157.766 51.4042L159.539 34.3909ZM145.196 172.044L128.183 170.271L126.41 187.285L143.423 189.057L145.196 172.044ZM182.739 36.8082L165.725 35.0355L163.953 52.0488L180.966 53.8216L182.739 36.8082ZM168.396 174.461L151.382 172.689L149.61 189.702L166.623 191.475L168.396 174.461ZM205.938 39.2255L188.925 37.4528L187.152 54.4662L204.166 56.2389L205.938 39.2255ZM191.595 176.879L174.582 175.106L172.809 192.119L189.823 193.892L191.595 176.879ZM229.138 41.6429L212.125 39.8701L210.352 56.8835L227.365 58.6562L229.138 41.6429ZM214.795 179.296L197.782 177.523L196.009 194.537L213.022 196.309L214.795 179.296ZM252.339 44.0603L235.325 42.2876L233.552 59.3009L250.566 61.0737L252.339 44.0603ZM237.995 181.714L220.982 179.941L219.209 196.954L236.223 198.727L237.995 181.714ZM275.539 46.4778L258.526 44.705L256.753 61.7184L273.766 63.4911L275.539 46.4778ZM261.196 184.131L244.183 182.358L242.41 199.372L259.423 201.144L261.196 184.131ZM298.739 48.8951L281.725 47.1223L279.953 64.1357L296.966 65.9084L298.739 48.8951ZM284.396 186.548L267.382 184.776L265.61 201.789L282.623 203.562L284.396 186.548Z" fill="#DFE2E4"/>
</g>
<path d="M169.216 120.238L172.477 88.9441L235.064 95.4655L229.992 144.144L167.405 137.623L169.216 120.238Z" stroke="#DFE2E4" stroke-width="3.11008" stroke-linecap="round" stroke-linejoin="round"/>
<path d="M168.491 127.192L183.486 118.21L193.193 126.251L215.867 111.039L231.803 126.759" stroke="#DFE2E4" stroke-width="1.55504" stroke-linecap="round" stroke-linejoin="round"/>
<path d="M185.95 111.437C188.83 111.737 191.409 109.645 191.709 106.765C192.009 103.884 189.917 101.306 187.037 101.006C184.156 100.705 181.578 102.797 181.278 105.678C180.978 108.558 183.069 111.137 185.95 111.437Z" fill="#DFE2E4"/>
<path d="M168.492 127.191L183.487 118.209L193.193 126.25L215.867 111.039L231.803 126.758L229.992 144.144L167.405 137.622L168.492 127.191Z" fill="#DFE2E4"/>
</g>
<defs>
<filter id="filter0_g_228_9309" x="-95.8619" y="0" width="593.833" height="250.499" filterUnits="userSpaceOnUse" color-interpolation-filters="sRGB">
<feFlood flood-opacity="0" result="BackgroundImageFix"/>
<feBlend mode="normal" in="SourceGraphic" in2="BackgroundImageFix" result="shape"/>
<feTurbulence type="fractalNoise" baseFrequency="0.20000000298023224 0.20000000298023224" numOctaves="3" seed="7428" />
<feDisplacementMap in="shape" scale="4" xChannelSelector="R" yChannelSelector="G" result="displacedImage" width="100%" height="100%" />
<feMerge result="effect1_texture_228_9309">
<feMergeNode in="displacedImage"/>
</feMerge>
</filter>
<clipPath id="clip0_228_9309">
<rect width="169.499" height="575.365" fill="white" transform="translate(495.971 61.6287) rotate(95.9486)"/>
</clipPath>
</defs>
</svg>
