<svg width="24" height="24" viewBox="0 0 24 24" fill="none" xmlns="http://www.w3.org/2000/svg">
<path d="M15.729 3.88389C17.163 2.44389 19.261 2.41389 20.422 3.57989C21.586 4.74789 21.555 6.85989 20.119 8.29989L17.696 10.7329C17.5596 10.8745 17.4842 11.0641 17.4862 11.2608C17.4882 11.4574 17.5673 11.6454 17.7066 11.7843C17.8459 11.9231 18.0341 12.0017 18.2307 12.0032C18.4274 12.0046 18.6167 11.9287 18.758 11.7919L21.182 9.35889C23.093 7.43989 23.333 4.37689 21.485 2.52089C19.635 0.663893 16.578 0.905894 14.665 2.82489L9.819 7.69189C7.908 9.61089 7.668 12.6739 9.516 14.5289C9.58502 14.6007 9.66764 14.658 9.75905 14.6975C9.85046 14.737 9.94881 14.7579 10.0484 14.759C10.148 14.7601 10.2468 14.7413 10.339 14.7039C10.4313 14.6664 10.5151 14.6109 10.5857 14.5406C10.6563 14.4704 10.7121 14.3868 10.7501 14.2947C10.788 14.2026 10.8072 14.1039 10.8066 14.0044C10.806 13.9048 10.7855 13.8063 10.7465 13.7147C10.7074 13.6231 10.6505 13.5403 10.579 13.4709C9.415 12.3029 9.447 10.1909 10.882 8.75089L15.729 3.88389Z" fill="#335270"/>
<path d="M14.485 9.47011C14.3444 9.32914 14.1536 9.24979 13.9546 9.24951C13.7555 9.24923 13.5645 9.32804 13.4235 9.46861C13.2825 9.60917 13.2032 9.79998 13.2029 9.99905C13.2026 10.1981 13.2814 10.3891 13.422 10.5301C14.586 11.6981 14.555 13.8091 13.119 15.2501L8.272 20.1161C6.837 21.5561 4.739 21.5861 3.578 20.4201C2.414 19.2521 2.446 17.1401 3.881 15.7001L6.305 13.2671C6.37454 13.1973 6.42964 13.1145 6.46717 13.0234C6.50471 12.9323 6.52393 12.8347 6.52374 12.7362C6.52356 12.6377 6.50397 12.5401 6.46609 12.4492C6.42822 12.3582 6.3728 12.2756 6.303 12.2061C6.2332 12.1366 6.15039 12.0815 6.0593 12.0439C5.9682 12.0064 5.87061 11.9872 5.77209 11.9874C5.67356 11.9876 5.57604 12.0071 5.48509 12.045C5.39414 12.0829 5.31154 12.1383 5.242 12.2081L2.818 14.6411C0.907001 16.5611 0.667001 19.6231 2.515 21.4791C4.365 23.3371 7.422 23.0941 9.335 21.1751L14.182 16.3081C16.093 14.3901 16.333 11.3251 14.485 9.47011Z" fill="#335270"/>
</svg>
