<svg width="96" height="126" viewBox="0 0 96 126" fill="none" xmlns="http://www.w3.org/2000/svg">
<path d="M48 1C56.0311 0.996128 62.8525 3.81742 68.5205 9.48535C74.1885 15.1533 77.0077 21.9722 77 29.999V43H84C87.0324 43 89.6044 44.0693 91.7705 46.2354C93.9366 48.4015 95.0037 50.9714 95 53.999V114C95 117.033 93.9328 119.606 91.7705 121.771C89.6091 123.937 87.0373 125.004 84.001 125H12C8.96707 125 6.39713 123.932 4.23535 121.771C2.2086 119.744 1.14205 117.356 1.01367 114.562L1 113.999V54C1 50.9676 2.06878 48.3973 4.23438 46.2354C6.40085 44.0726 8.9721 43.0037 12.001 43H19V30C19 21.9644 21.8217 15.1451 27.4854 9.48535C33.1492 3.82548 39.9684 1.00399 48 1ZM48.002 71C44.4253 70.9915 41.3456 72.2754 38.8184 74.8242C36.2958 77.3683 35.013 80.4426 35 83.9961C34.987 87.5556 36.2724 90.6367 38.8213 93.1855C41.369 95.733 44.446 97.0152 48 96.999V97L48.001 96.999H48.0039C51.5693 96.9981 54.6475 95.7183 57.1846 93.1855C59.7234 90.651 61.0043 87.5706 61 83.999C60.9957 80.4294 59.7158 77.3518 57.1855 74.8213C54.655 72.2908 51.5749 71.0086 48.002 71ZM48 11C42.7378 11 38.2326 12.8533 34.543 16.543C30.8533 20.2326 29 24.7378 29 30V43H67V30C67 24.7378 65.1467 20.2326 61.457 16.543C57.7674 12.8533 53.2622 11 48 11Z" fill="#DFE2E4" stroke="#303030" stroke-width="2"/>
</svg>
