<svg width="24" height="24" viewBox="0 0 24 24" fill="none" xmlns="http://www.w3.org/2000/svg">
<path fill-rule="evenodd" clip-rule="evenodd" d="M12.6756 1.44H11.3244L10.5504 4.5336L9.774 4.7736C9.32158 4.91301 8.88325 5.09461 8.4648 5.316L7.746 5.6964L5.01 4.0548L4.0548 5.0112L5.6964 7.7472L5.316 8.4648C5.0942 8.88321 4.9122 9.32154 4.7724 9.774L4.5336 10.5504L1.44 11.3244V12.6756L4.5336 13.4496L4.7736 14.226C4.912 14.6804 5.0928 15.1168 5.316 15.5352L5.6964 16.254L4.0548 18.99L5.0112 19.9452L7.7472 18.3036L8.4648 18.684C8.8832 18.9064 9.3196 19.0876 9.774 19.2276L10.5504 19.4664L11.3244 22.56H12.6756L13.4496 19.4664L14.226 19.2264C14.6784 19.087 15.1167 18.9054 15.5352 18.684L16.254 18.3036L18.99 19.9452L19.9452 18.9888L18.3036 16.2528L18.684 15.5352C18.9064 15.1168 19.0876 14.6804 19.2276 14.226L19.4664 13.4496L22.56 12.6756V11.3244L19.4664 10.5504L19.2264 9.774C19.087 9.32158 18.9054 8.88325 18.684 8.4648L18.3036 7.746L19.9452 5.01L18.9888 4.0548L16.2528 5.6964L15.5352 5.316C15.1168 5.0942 14.6785 4.9122 14.226 4.7724L13.4496 4.5336L12.6756 1.44ZM16.2096 4.044L18.4092 2.724C18.6386 2.58643 18.9073 2.52943 19.1728 2.56204C19.4382 2.59465 19.6852 2.71501 19.8744 2.904L21.096 4.1256C21.285 4.31484 21.4053 4.56179 21.438 4.82725C21.4706 5.0927 21.4136 5.36144 21.276 5.5908L19.956 7.7904C20.22 8.2864 20.436 8.8064 20.604 9.3504L23.0916 9.9732C23.3511 10.0382 23.5814 10.1881 23.746 10.399C23.9106 10.6098 24 10.8697 24 11.1372V12.8628C24 13.1303 23.9106 13.3902 23.746 13.601C23.5814 13.8119 23.3511 13.9618 23.0916 14.0268L20.604 14.6496C20.436 15.1936 20.22 15.7136 19.956 16.2096L21.276 18.4092C21.4136 18.6386 21.4706 18.9073 21.438 19.1728C21.4053 19.4382 21.285 19.6852 21.096 19.8744L19.8744 21.096C19.6852 21.285 19.4382 21.4053 19.1728 21.438C18.9073 21.4706 18.6386 21.4136 18.4092 21.276L16.2096 19.956C15.7136 20.22 15.1936 20.436 14.6496 20.604L14.0268 23.0916C13.9618 23.3511 13.8119 23.5814 13.601 23.746C13.3902 23.9106 13.1303 24 12.8628 24H11.1372C10.8697 24 10.6098 23.9106 10.399 23.746C10.1881 23.5814 10.0382 23.3511 9.9732 23.0916L9.3504 20.604C8.81123 20.4374 8.28893 20.2204 7.7904 19.956L5.5908 21.276C5.36144 21.4136 5.0927 21.4706 4.82725 21.438C4.56179 21.4053 4.31484 21.285 4.1256 21.096L2.904 19.8744C2.71501 19.6852 2.59465 19.4382 2.56204 19.1728C2.52943 18.9073 2.58643 18.6386 2.724 18.4092L4.044 16.2096C3.77957 15.7111 3.56261 15.1888 3.396 14.6496L0.9084 14.0268C0.649103 13.9618 0.418918 13.8122 0.254355 13.6015C0.0897924 13.3909 0.000274371 13.1313 0 12.864V11.1384C7.03252e-06 10.8709 0.0894026 10.611 0.253986 10.4002C0.41857 10.1893 0.648904 10.0394 0.9084 9.9744L3.396 9.3516C3.564 8.8076 3.78 8.2876 4.044 7.7916L2.724 5.592C2.58643 5.36264 2.52943 5.0939 2.56204 4.82845C2.59465 4.56299 2.71501 4.31604 2.904 4.1268L4.1256 2.904C4.31484 2.71501 4.56179 2.59465 4.82725 2.56204C5.0927 2.52943 5.36144 2.58643 5.5908 2.724L7.7904 4.044C8.2864 3.78 8.8064 3.564 9.3504 3.396L9.9732 0.9084C10.0382 0.649103 10.1878 0.418918 10.3985 0.254355C10.6091 0.0897924 10.8687 0.000274371 11.136 0H12.8616C13.1291 7.03252e-06 13.389 0.0894026 13.5999 0.253986C13.8107 0.41857 13.9606 0.648904 14.0256 0.9084L14.6484 3.396C15.1924 3.564 15.7124 3.78 16.2084 4.044H16.2096ZM12 15.36C12.8911 15.36 13.7458 15.006 14.3759 14.3759C15.006 13.7458 15.36 12.8911 15.36 12C15.36 11.1089 15.006 10.2542 14.3759 9.62412C13.7458 8.994 12.8911 8.64 12 8.64C11.1089 8.64 10.2542 8.994 9.62412 9.62412C8.994 10.2542 8.64 11.1089 8.64 12C8.64 12.8911 8.994 13.7458 9.62412 14.3759C10.2542 15.006 11.1089 15.36 12 15.36ZM12 16.8C10.727 16.8 9.50606 16.2943 8.60589 15.3941C7.70571 14.4939 7.2 13.273 7.2 12C7.2 10.727 7.70571 9.50606 8.60589 8.60589C9.50606 7.70571 10.727 7.2 12 7.2C13.273 7.2 14.4939 7.70571 15.3941 8.60589C16.2943 9.50606 16.8 10.727 16.8 12C16.8 13.273 16.2943 14.4939 15.3941 15.3941C14.4939 16.2943 13.273 16.8 12 16.8Z" fill="#1A1A1A"/>
</svg>
