<svg width="24" height="24" viewBox="0 0 24 24" fill="none" xmlns="http://www.w3.org/2000/svg">
<path d="M18.0125 23C17.1842 23 16.4812 22.7168 15.9037 22.1506C15.3271 21.5834 15.0387 20.8949 15.0387 20.085C15.0387 19.9628 15.0937 19.6544 15.2037 19.1598L6.2075 13.9372C5.9375 14.242 5.60708 14.4811 5.21625 14.6547C4.82542 14.8282 4.40583 14.915 3.9575 14.915C3.13583 14.915 2.4375 14.629 1.8625 14.057C1.2875 13.485 1 12.7993 1 12C1 11.2007 1.2875 10.515 1.8625 9.943C2.4375 9.371 3.13583 9.085 3.9575 9.085C4.405 9.085 4.82458 9.17178 5.21625 9.34533C5.60792 9.51889 5.93833 9.75844 6.2075 10.064L15.205 4.86344C15.1467 4.70537 15.1046 4.54852 15.0787 4.39289C15.0521 4.23644 15.0387 4.07674 15.0387 3.91378C15.0387 3.10467 15.3292 2.41656 15.91 1.84944C16.4908 1.28315 17.1958 1 18.025 1C18.8542 1 19.5575 1.28396 20.135 1.85189C20.7125 2.41981 21.0008 3.10915 21 3.91989C20.9992 4.73063 20.7096 5.41833 20.1312 5.983C19.5529 6.54767 18.8487 6.82959 18.0187 6.82878C17.5671 6.82878 17.1504 6.73833 16.7687 6.55744C16.3871 6.37655 16.0621 6.13333 15.7937 5.82778L6.795 11.0503C6.85333 11.2084 6.89542 11.3657 6.92125 11.5221C6.94792 11.6777 6.96125 11.837 6.96125 12C6.96125 12.163 6.94792 12.3223 6.92125 12.4779C6.89458 12.6335 6.85292 12.7908 6.79625 12.9497L15.7937 18.1722C16.0629 17.8667 16.3879 17.6234 16.7687 17.4426C17.1504 17.2617 17.5671 17.1712 18.0187 17.1712C18.8471 17.1712 19.5512 17.4548 20.1312 18.0219C20.7104 18.5906 21 19.2804 21 20.0911C21 20.9019 20.7096 21.5896 20.1287 22.1542C19.5479 22.7189 18.8417 23.0008 18.0125 23ZM18.0187 21.7778C18.5096 21.7778 18.9208 21.6156 19.2525 21.2913C19.5842 20.967 19.75 20.5653 19.75 20.0862C19.75 19.6071 19.5842 19.205 19.2525 18.8799C18.9208 18.5548 18.51 18.3926 18.02 18.3934C17.53 18.3943 17.1187 18.5564 16.7862 18.8799C16.4537 19.2034 16.2879 19.6051 16.2887 20.085C16.2896 20.5649 16.4554 20.967 16.7862 21.2913C17.1171 21.6156 17.5271 21.7778 18.0187 21.7778ZM3.9575 13.6916C4.45417 13.6916 4.87083 13.5294 5.2075 13.2051C5.54333 12.8808 5.71125 12.4791 5.71125 12C5.71125 11.5209 5.54333 11.1192 5.2075 10.7949C4.87167 10.4706 4.455 10.3084 3.9575 10.3084C3.47333 10.3084 3.06792 10.4706 2.74125 10.7949C2.41458 11.1192 2.25083 11.5209 2.25 12C2.24917 12.4791 2.41292 12.8812 2.74125 13.2063C3.06958 13.5314 3.475 13.6932 3.9575 13.6916ZM18.02 5.60656C18.51 5.60656 18.9208 5.44441 19.2525 5.12011C19.5842 4.79581 19.75 4.3937 19.75 3.91378C19.75 3.43385 19.5842 3.03215 19.2525 2.70867C18.9208 2.38518 18.51 2.22304 18.02 2.22222C17.53 2.22141 17.1187 2.38356 16.7862 2.70867C16.4537 3.03378 16.2879 3.43589 16.2887 3.915C16.2896 4.39411 16.4554 4.79581 16.7862 5.12011C17.1171 5.44441 17.5283 5.60656 18.02 5.60656Z" fill="#335270"/>
</svg>
