<svg width="124" height="22" viewBox="0 0 124 22" fill="none" xmlns="http://www.w3.org/2000/svg">
<g opacity="0.8">
<rect width="124" height="22" rx="11" fill="#F0F0F0" fill-opacity="0.25"/>
<path d="M18.9783 10.464C19.4903 10.464 19.8743 10.344 20.1303 10.104C20.3863 9.856 20.5143 9.54 20.5143 9.156V9.072C20.5143 8.648 20.3903 8.332 20.1423 8.124C19.8943 7.916 19.5663 7.812 19.1583 7.812C18.7663 7.812 18.4463 7.904 18.1983 8.088C17.9583 8.272 17.7623 8.516 17.6103 8.82L16.9503 8.28C17.0383 8.12 17.1503 7.964 17.2863 7.812C17.4223 7.652 17.5783 7.512 17.7543 7.392C17.9303 7.272 18.1343 7.176 18.3663 7.104C18.6063 7.032 18.8783 6.996 19.1823 6.996C19.5023 6.996 19.7983 7.04 20.0703 7.128C20.3423 7.208 20.5783 7.336 20.7783 7.512C20.9863 7.68 21.1503 7.888 21.2703 8.136C21.3903 8.384 21.4503 8.664 21.4503 8.976C21.4503 9.232 21.4103 9.464 21.3303 9.672C21.2583 9.872 21.1543 10.048 21.0183 10.2C20.8903 10.344 20.7383 10.472 20.5623 10.584C20.3863 10.688 20.2023 10.764 20.0103 10.812V10.86C20.2183 10.908 20.4143 10.984 20.5983 11.088C20.7903 11.184 20.9583 11.312 21.1023 11.472C21.2543 11.632 21.3743 11.828 21.4623 12.06C21.5503 12.292 21.5943 12.552 21.5943 12.84C21.5943 13.176 21.5303 13.488 21.4023 13.776C21.2823 14.056 21.1103 14.296 20.8863 14.496C20.6703 14.696 20.4023 14.852 20.0823 14.964C19.7703 15.076 19.4263 15.132 19.0503 15.132C18.7303 15.132 18.4423 15.092 18.1863 15.012C17.9383 14.94 17.7143 14.844 17.5143 14.724C17.3223 14.596 17.1543 14.452 17.0103 14.292C16.8663 14.132 16.7383 13.964 16.6263 13.788L17.2983 13.248C17.3943 13.408 17.4943 13.552 17.5983 13.68C17.7023 13.808 17.8223 13.92 17.9583 14.016C18.1023 14.112 18.2623 14.188 18.4383 14.244C18.6143 14.292 18.8183 14.316 19.0503 14.316C19.5703 14.316 19.9663 14.188 20.2383 13.932C20.5183 13.676 20.6583 13.312 20.6583 12.84V12.744C20.6583 12.28 20.5223 11.92 20.2503 11.664C19.9863 11.408 19.5823 11.28 19.0383 11.28H18.1623V10.464H18.9783ZM29.4581 6.804H25.7381V6.048H29.4581V6.804ZM27.1541 8.772H23.7941V8.028H31.4141V8.772H28.0661C28.0501 9.036 28.0021 9.28 27.9221 9.504C27.8421 9.728 27.7141 9.944 27.5381 10.152L27.5981 10.164L27.8381 9.996C27.9421 9.916 28.0501 9.876 28.1621 9.876C28.2581 9.876 28.3541 9.9 28.4501 9.948L31.8821 11.532L31.3901 12.216L27.8021 10.488C27.7061 10.44 27.5981 10.416 27.4781 10.416C27.3741 10.416 27.2781 10.44 27.1901 10.488C26.8781 10.76 26.4501 11.04 25.9061 11.328C25.3621 11.608 24.6581 11.916 23.7941 12.252L23.3141 11.58C24.2581 11.22 24.9981 10.896 25.5341 10.608C26.0781 10.312 26.4741 10.02 26.7221 9.732C26.9701 9.444 27.1141 9.124 27.1541 8.772ZM32.4941 14.232V15H22.7021V14.232H27.1421V12.12H28.0541V14.232H32.4941ZM44.2861 8.928V9.696H42.6181V13.68H41.7061V5.772H42.6181V8.928H44.2861ZM34.8781 12.216L34.3861 11.52C35.4741 11.072 36.3021 10.672 36.8701 10.32C37.4381 9.968 37.8381 9.596 38.0701 9.204C38.3021 8.812 38.4181 8.332 38.4181 7.764V7.26H34.6861V6.48H39.3301V7.68C39.3301 8.416 39.1981 9.028 38.9341 9.516C38.6781 10.004 38.2341 10.452 37.6021 10.86C36.9781 11.268 36.0701 11.72 34.8781 12.216ZM36.9901 15.66H42.8581V16.416H36.6781C36.4861 16.416 36.3381 16.364 36.2341 16.26C36.1301 16.156 36.0781 16.004 36.0781 15.804V12.816H36.9901V15.66ZM60.8819 8.4V9.168H59.2979V12.024H58.3979V5.772H59.2979V8.4H60.8819ZM55.6379 6.444H52.5299V5.796H55.6379V6.444ZM53.6459 7.956H51.3419V7.32H56.7779V7.956H54.5099C54.4699 8.324 54.3299 8.648 54.0899 8.928L54.1619 8.952L54.3659 8.82C54.4699 8.756 54.5619 8.724 54.6419 8.724C54.7139 8.724 54.8019 8.744 54.9059 8.784L57.0299 9.744L56.4299 10.296L54.2099 9.24C54.1299 9.2 54.0539 9.18 53.9819 9.18C53.9099 9.18 53.8339 9.2 53.7539 9.24C53.3699 9.568 52.6619 9.96 51.6299 10.416L51.0299 9.864C51.9499 9.504 52.6019 9.184 52.9859 8.904C53.3699 8.616 53.5899 8.3 53.6459 7.956ZM57.5699 11.448C56.6819 11.592 55.6179 11.7 54.3779 11.772C53.1379 11.844 51.8659 11.88 50.5619 11.88L50.4899 11.22C51.4259 11.22 52.4539 11.2 53.5739 11.16V10.044H54.4379V11.112C55.5739 11.056 56.5939 10.956 57.4979 10.812L57.5699 11.448ZM53.4059 15.996H59.5619V16.728H53.1299C52.9379 16.728 52.7899 16.676 52.6859 16.572C52.5819 16.468 52.5299 16.316 52.5299 16.116V14.292H58.3979V13.296H52.4579V12.588H59.2739V15H53.4059V15.996ZM70.3219 10.224H68.1859V9.492H70.3219V7.992H68.1859V7.26H70.3219V5.772H71.2339V11.976H70.3219V10.224ZM65.2459 11.352C64.7259 11.352 64.2579 11.248 63.8419 11.04C63.4339 10.824 63.1139 10.52 62.8819 10.128C62.6499 9.736 62.5339 9.276 62.5339 8.748C62.5339 8.22 62.6499 7.76 62.8819 7.368C63.1139 6.976 63.4339 6.676 63.8419 6.468C64.2499 6.252 64.7179 6.144 65.2459 6.144C65.7739 6.144 66.2419 6.252 66.6499 6.468C67.0579 6.676 67.3779 6.976 67.6099 7.368C67.8419 7.76 67.9579 8.22 67.9579 8.748C67.9579 9.276 67.8419 9.736 67.6099 10.128C67.3779 10.52 67.0539 10.824 66.6379 11.04C66.2299 11.248 65.7659 11.352 65.2459 11.352ZM65.2459 10.62C65.7739 10.62 66.1979 10.472 66.5179 10.176C66.8459 9.872 67.0099 9.468 67.0099 8.964V8.532C67.0099 8.028 66.8459 7.628 66.5179 7.332C66.1979 7.028 65.7739 6.876 65.2459 6.876C64.7179 6.876 64.2899 7.028 63.9619 7.332C63.6419 7.628 63.4819 8.028 63.4819 8.532V8.964C63.4819 9.468 63.6419 9.872 63.9619 10.176C64.2899 10.472 64.7179 10.62 65.2459 10.62ZM71.2939 14.472C71.2939 14.912 71.1659 15.304 70.9099 15.648C70.6619 16 70.2859 16.276 69.7819 16.476C69.2779 16.676 68.6619 16.776 67.9339 16.776C67.2059 16.776 66.5859 16.676 66.0739 16.476C65.5699 16.276 65.1899 16 64.9339 15.648C64.6859 15.304 64.5619 14.912 64.5619 14.472C64.5619 14.032 64.6859 13.64 64.9339 13.296C65.1899 12.944 65.5699 12.668 66.0739 12.468C66.5859 12.268 67.2059 12.168 67.9339 12.168C68.6619 12.168 69.2779 12.268 69.7819 12.468C70.2859 12.668 70.6619 12.944 70.9099 13.296C71.1659 13.64 71.2939 14.032 71.2939 14.472ZM70.3219 14.376C70.3219 13.96 70.1219 13.612 69.7219 13.332C69.3299 13.052 68.7339 12.912 67.9339 12.912C67.1339 12.912 66.5339 13.056 66.1339 13.344C65.7339 13.624 65.5339 13.968 65.5339 14.376V14.58C65.5339 14.988 65.7339 15.332 66.1339 15.612C66.5339 15.9 67.1339 16.044 67.9339 16.044C68.7339 16.044 69.3299 15.9 69.7219 15.612C70.1219 15.332 70.3219 14.988 70.3219 14.58V14.376ZM82.6898 11.916H81.7778V5.772H82.6898V11.916ZM80.9738 11.316C80.0698 11.46 78.9858 11.572 77.7218 11.652C76.4658 11.724 75.1738 11.76 73.8458 11.76L73.7618 11.016C74.6578 11.016 75.6378 10.996 76.7018 10.956V9.624H74.6738V6.18H79.7018V6.912H75.5618V8.892H79.8098V9.624H77.5898V10.92C78.9898 10.84 80.0898 10.736 80.8898 10.608L80.9738 11.316ZM82.7018 12.516V16.62H76.5818C76.3898 16.62 76.2418 16.568 76.1378 16.464C76.0338 16.36 75.9818 16.208 75.9818 16.008V12.516H76.8818V13.788H81.8018V12.516H82.7018ZM81.8018 14.532H76.8818V15.864H81.8018V14.532ZM94.1098 5.772V16.188H93.1978V5.772H94.1098ZM91.7458 12.192L91.8658 12.948C90.5618 13.204 88.9818 13.332 87.1258 13.332H85.8178V6.612H86.7298V12.552H87.0898C88.9538 12.552 90.5058 12.432 91.7458 12.192ZM106.754 10.644H105.026V16.212H104.114V5.796H105.026V9.876H106.754V10.644ZM102.854 12.348L102.974 13.08C101.75 13.328 100.222 13.452 98.3898 13.452H97.1178V6.624H101.906V7.392H98.0298V12.696H98.3778C100.138 12.696 101.63 12.58 102.854 12.348Z" fill="#F0F0F0"/>
</g>
</svg>
